{"glyphs":{"0":{"ha":878,"x_min":-18,"x_max":847,"o":"m 659 967 q 829 740 809 935 q 845 668 838 741 l 847 647 q 772 459 823 463 q 523 114 776 422 q 405 3 492 112 q 312 -18 323 -17 q 9 76 9 68 l -14 125 l -16 147 q -8 155 -16 155 l -18 169 q 157 640 -8 327 q 347 901 254 821 q 402 941 365 902 q 568 837 557 952 l 577 838 q 650 966 566 947 l 659 967 m 250 247 l 253 218 q 521 550 444 380 q 567 771 581 633 l 566 786 q 380 576 530 778 q 250 247 281 404 z "},"1":{"ha":499,"x_min":-21,"x_max":472,"o":"m 300 980 q 450 860 431 968 q 405 595 472 733 q 339 345 409 573 q 216 2 296 137 l 189 -3 q 1 74 55 40 l -7 119 q 123 628 -21 199 q 265 919 171 850 q 300 980 260 947 z "},"2":{"ha":801,"x_min":13,"x_max":724,"o":"m 465 967 q 705 690 724 906 l 707 608 q 613 469 674 498 q 479 307 610 444 l 498 306 q 572 317 557 319 q 595 261 596 280 q 498 96 590 205 q 410 30 497 85 q 333 -9 406 -16 l 306 -7 q 298 3 297 -5 q 270 -3 279 -4 q 13 193 162 33 l 18 248 q 274 463 19 264 q 410 661 405 604 l 412 679 q 281 645 304 664 q 42 840 117 724 l 43 848 q 159 930 96 935 q 465 967 300 981 z "},"3":{"ha":651,"x_min":10,"x_max":763,"o":"m 534 964 l 568 961 q 753 834 763 944 l 745 732 q 573 526 738 657 q 408 395 465 426 q 385 320 403 341 q 469 219 474 273 l 459 100 q 237 9 390 -4 q 203 3 237 1 q 10 140 35 84 q 135 197 14 185 l 138 231 q 56 366 48 282 l 58 400 q 247 606 119 528 l 321 667 l 321 675 q 296 669 304 669 q 128 804 201 703 q 98 849 102 806 q 372 961 104 920 l 372 953 q 534 964 469 970 z "},"4":{"ha":883,"x_min":0,"x_max":833,"o":"m 574 967 l 590 967 q 645 897 645 942 l 645 888 q 629 818 645 869 l 637 818 l 669 825 q 786 763 743 825 l 786 755 q 669 511 786 657 l 669 495 q 818 511 779 511 l 833 488 l 833 448 q 669 330 790 366 q 527 275 669 307 l 456 126 q 370 0 456 56 l 361 0 q 212 63 305 0 l 204 110 l 243 267 l 236 267 q 16 448 159 303 l 0 503 q 236 763 0 590 q 574 967 431 935 m 291 503 l 291 495 q 330 479 324 479 q 433 621 379 513 l 425 621 q 291 503 328 553 z "},"5":{"ha":716,"x_min":0,"x_max":753,"o":"m 705 966 q 753 918 753 949 q 483 608 753 711 l 425 599 q 338 647 387 647 l 338 589 q 512 241 504 326 l 512 155 q 406 0 463 0 l 387 9 l 338 0 q 9 184 154 0 l 0 222 l 29 241 q 184 203 141 203 q 203 222 186 222 q 48 512 168 328 l 0 676 q 135 908 28 903 q 241 956 135 926 l 454 918 q 705 966 551 947 z "},"6":{"ha":719,"x_min":0,"x_max":643,"o":"m 527 968 l 534 968 q 643 899 643 956 q 543 728 643 810 q 380 534 490 728 l 380 527 l 387 527 q 604 372 604 502 l 597 372 l 604 357 q 349 16 604 179 q 287 0 294 0 l 248 0 q 0 178 150 0 l 0 217 q 70 450 0 319 q 263 774 191 695 q 349 876 276 774 q 527 968 463 968 m 248 271 l 248 248 q 263 233 250 233 q 357 341 320 277 l 349 357 q 357 364 349 364 q 317 426 344 407 q 248 271 290 393 z "},"7":{"ha":695,"x_min":0,"x_max":646,"o":"m 135 974 q 157 946 135 966 q 165 956 165 946 q 368 919 276 919 l 383 928 q 646 735 646 882 q 511 368 646 526 q 210 0 458 296 q 52 156 60 109 q 157 313 79 216 q 353 606 317 501 q 0 891 130 606 l 0 919 q 135 974 0 961 z "},"8":{"ha":922,"x_min":0,"x_max":878,"o":"m 479 966 q 673 895 626 966 l 665 878 l 701 878 q 736 886 720 878 q 878 762 878 831 q 753 505 878 649 q 727 470 731 505 q 736 399 736 421 l 727 363 q 736 328 736 348 q 673 159 726 328 q 416 0 483 0 l 346 0 q 337 9 337 0 q 328 0 328 9 q 275 18 275 6 l 257 9 l 248 9 q 0 231 26 134 q 266 505 31 358 q 151 629 266 516 q 98 692 98 681 l 98 727 q 337 922 98 817 q 479 966 438 966 m 452 718 q 496 665 456 697 q 549 701 549 686 l 549 718 q 532 727 532 718 q 452 718 499 718 m 337 301 q 399 248 351 248 q 425 257 416 257 l 425 310 l 381 310 l 337 301 z "},"9":{"ha":851,"x_min":0,"x_max":804,"o":"m 454 967 q 745 864 609 967 q 804 821 804 831 l 804 779 q 445 180 688 613 l 454 163 l 445 120 q 454 94 454 103 q 351 0 395 0 q 171 137 287 0 l 171 197 q 205 308 171 245 l 205 334 q 9 556 157 340 q 0 616 9 605 q 248 899 0 736 q 454 967 391 956 m 291 591 l 291 573 l 308 573 q 419 684 368 573 l 419 693 l 411 693 q 291 591 315 635 z "},"\u0000":{"ha":0,"x_min":0,"x_max":0,"o":""}," ":{"ha":345,"x_min":0,"x_max":0,"o":""},"!":{"ha":1843,"x_min":17,"x_max":1801,"o":"m 921 1158 q 1033 1065 977 1158 q 1082 991 1082 1031 l 1082 972 q 1051 917 1082 949 l 1051 873 q 1082 855 1082 869 q 1045 793 1045 849 l 1045 738 l 1033 738 l 1033 781 q 989 762 1010 762 l 977 762 q 958 781 968 762 q 964 787 958 787 q 958 831 958 812 l 946 824 l 946 837 q 1002 892 964 881 l 1039 880 l 1039 899 l 996 905 q 952 886 975 905 l 946 899 q 977 924 977 915 l 964 924 l 934 917 l 903 924 q 884 917 896 924 q 841 924 859 924 q 779 917 833 924 q 772 924 779 924 l 766 911 l 779 905 l 772 892 l 772 880 q 828 892 819 892 q 884 831 884 873 l 871 837 l 871 806 l 878 774 l 859 762 l 841 762 q 785 831 785 762 l 779 831 l 779 806 q 853 663 779 663 q 921 638 853 652 q 1027 725 1027 674 l 1039 725 q 1021 675 1039 713 q 1014 558 1014 577 q 1144 484 1144 532 q 1150 452 1150 473 l 1150 347 q 1156 218 1150 298 q 1132 186 1144 189 l 1126 186 l 1126 193 l 1138 211 l 1138 353 q 1114 359 1124 353 q 946 236 1114 236 l 946 248 q 1039 260 1025 260 l 1039 267 q 667 317 736 317 q 649 279 667 284 l 642 279 l 642 286 l 655 311 q 618 323 631 311 l 618 317 q 636 242 618 307 q 587 527 601 242 q 655 645 601 645 q 649 750 649 718 l 649 806 q 779 1134 649 1064 q 921 1158 818 1152 m 1008 924 l 1008 917 l 1039 911 l 1039 924 l 1008 924 m 859 917 q 890 892 888 905 l 890 886 l 884 886 l 853 905 q 785 899 798 899 l 785 911 q 859 917 795 911 m 748 855 l 748 831 q 760 843 760 831 q 748 855 760 855 m 785 855 l 791 824 l 797 824 l 797 855 l 785 855 m 1039 855 q 1033 818 1033 823 l 1033 812 l 1039 812 q 1045 849 1039 817 l 1045 855 l 1039 855 m 835 849 q 847 837 836 837 l 853 849 l 835 849 m 816 812 l 816 800 q 853 774 822 774 l 859 806 l 847 812 q 822 806 836 806 q 816 812 822 812 m 946 818 q 958 793 946 808 l 958 787 q 934 812 949 787 l 946 818 m 996 812 l 989 800 l 977 806 l 970 806 q 989 774 979 774 l 996 774 q 1014 793 1004 774 l 1014 806 q 996 812 1008 806 m 909 725 l 934 725 q 921 713 934 713 l 909 713 l 909 725 m 884 700 l 890 700 l 903 694 q 928 700 913 700 q 946 682 936 700 q 928 663 946 673 l 909 663 q 884 694 900 664 l 884 700 m 828 657 q 822 601 822 614 q 871 564 868 578 l 871 558 q 797 595 822 595 l 797 583 q 871 552 797 569 q 909 521 871 545 q 964 533 956 533 l 958 521 q 983 539 983 524 l 996 539 q 1063 521 1056 521 l 1063 533 q 996 545 1057 533 l 940 545 l 940 558 l 989 558 l 989 564 q 946 632 946 573 l 934 626 l 921 626 q 828 657 886 626 m 667 638 q 717 595 681 607 l 717 601 q 673 638 707 638 l 667 638 m 630 614 l 636 614 q 649 626 649 614 l 649 632 q 630 614 640 632 m 928 595 l 934 595 q 909 558 921 558 q 897 570 897 558 l 897 576 l 909 570 q 928 595 918 595 m 692 558 l 698 527 l 692 496 l 711 484 l 723 484 l 717 514 l 717 539 l 729 539 l 723 583 l 692 558 m 605 576 l 605 545 l 611 545 l 611 576 l 605 576 m 797 552 l 797 545 l 816 545 l 816 539 l 810 527 l 828 527 l 822 539 q 828 545 828 539 q 810 552 822 545 l 797 552 m 847 552 l 847 545 q 871 533 857 545 l 871 539 l 853 552 l 847 552 m 599 527 l 599 521 q 630 496 630 521 l 642 496 q 661 527 644 527 q 655 545 655 539 l 649 545 q 599 527 633 527 m 680 539 l 673 514 l 673 503 l 680 503 l 686 533 l 686 539 l 680 539 m 1002 514 l 996 503 q 1002 496 1002 503 q 996 490 996 496 l 1008 490 q 1039 508 1008 508 l 1039 514 l 1002 514 m 1088 521 l 1082 508 l 1082 465 q 1120 378 1105 378 l 1132 397 q 1120 410 1120 397 l 1132 410 q 1120 421 1132 421 l 1114 421 l 1120 410 l 1114 410 q 1101 421 1101 410 l 1120 446 q 1114 465 1114 458 l 1126 471 l 1138 465 l 1138 471 q 1088 521 1126 521 m 797 503 q 915 378 797 414 l 915 434 q 928 421 928 432 l 928 378 l 977 378 q 1045 446 1045 378 q 1051 503 1051 469 l 1045 503 q 952 446 979 446 l 952 452 l 940 446 l 921 459 q 909 446 921 446 q 890 465 909 456 l 871 452 q 847 477 847 469 l 835 471 l 828 484 q 835 490 835 484 q 816 503 816 490 q 822 508 822 503 l 810 508 l 797 503 m 642 490 l 636 477 l 636 471 l 642 471 q 655 484 655 471 l 642 490 m 605 484 l 605 428 q 636 440 621 440 l 636 459 l 630 471 l 618 465 l 611 465 l 611 484 l 605 484 m 958 484 l 958 477 q 970 465 960 465 l 970 471 q 958 484 970 484 m 655 465 l 649 452 l 667 452 q 655 465 667 465 m 624 428 q 605 410 624 410 q 618 397 607 397 l 636 421 l 624 428 m 704 428 l 704 410 q 723 404 711 410 l 723 428 l 704 428 m 680 404 l 680 397 q 704 385 689 397 l 704 391 q 698 410 698 403 q 680 404 686 404 m 1126 372 l 1126 366 q 1138 378 1138 366 l 1138 385 q 1126 372 1126 382 m 686 378 l 686 372 q 742 335 715 372 l 735 335 q 729 341 729 335 l 717 335 l 686 341 l 667 341 l 667 335 l 772 317 l 772 323 q 723 378 762 355 l 723 372 q 754 341 731 372 l 754 335 q 692 378 707 378 l 686 378 m 661 372 l 661 366 q 704 347 673 366 l 711 347 l 711 353 q 667 372 698 353 l 661 372 m 636 323 l 642 323 q 655 335 655 323 l 649 335 q 636 323 636 333 m 29 131 q 54 56 45 131 l 60 56 q 91 131 73 131 q 122 62 105 131 l 129 62 q 153 131 133 131 l 172 131 q 197 62 182 131 l 203 62 q 228 131 212 131 l 234 131 q 258 62 250 131 l 264 62 q 290 131 277 131 l 308 131 q 332 62 327 131 q 363 131 340 62 l 370 131 q 401 62 387 131 l 408 62 q 432 131 414 131 l 438 131 l 438 118 q 401 19 422 19 q 376 87 385 19 l 363 87 q 339 19 355 19 q 302 112 321 19 l 296 112 q 264 19 281 19 q 234 94 244 19 l 228 94 q 197 19 215 19 q 165 106 178 19 q 129 19 157 106 l 122 19 q 91 87 109 19 l 85 87 q 60 19 76 19 l 54 19 q 17 125 42 19 l 29 131 m 488 131 l 556 131 q 568 118 568 129 q 531 106 568 106 l 531 32 q 518 19 531 19 q 507 32 507 19 l 507 106 q 475 118 475 106 q 488 131 477 131 m 599 131 q 655 25 615 131 l 642 19 q 624 50 625 19 l 581 50 q 562 19 576 19 l 549 25 q 599 131 588 131 m 655 131 l 810 131 q 822 118 822 129 q 791 106 822 106 l 791 32 q 779 19 791 19 q 766 32 766 19 l 766 106 q 735 112 735 106 q 698 106 726 106 l 698 32 q 686 19 698 19 q 673 32 673 19 l 673 106 q 642 118 642 106 q 655 131 644 131 m 878 131 q 934 75 934 122 q 884 13 934 28 q 822 75 822 21 q 878 131 830 131 m 996 131 q 1045 81 1045 131 l 1045 50 q 989 13 1021 13 q 940 68 949 13 l 940 94 q 996 131 962 131 m 1063 131 q 1082 62 1082 106 l 1095 62 q 1120 131 1103 131 l 1126 131 q 1150 56 1139 131 l 1156 56 q 1181 131 1164 131 q 1194 118 1194 129 q 1156 19 1166 19 l 1150 19 q 1126 94 1136 19 l 1120 94 q 1088 19 1103 19 q 1051 125 1069 19 l 1063 131 m 1249 131 q 1305 62 1305 131 q 1249 13 1285 13 q 1194 87 1194 13 q 1249 131 1212 131 m 1367 131 q 1417 81 1417 131 l 1417 50 q 1361 13 1393 13 q 1311 68 1321 13 l 1311 81 q 1367 131 1311 131 m 1522 131 q 1565 94 1565 131 l 1553 87 q 1516 112 1532 112 q 1491 75 1491 106 l 1491 56 q 1510 38 1491 47 l 1528 38 q 1559 62 1556 62 l 1565 50 l 1565 44 q 1516 13 1548 13 q 1466 87 1466 13 q 1522 131 1485 131 m 1627 131 q 1683 75 1683 122 l 1683 68 q 1627 13 1675 13 q 1571 75 1571 27 q 1627 131 1584 131 m 1708 131 l 1714 131 q 1745 50 1728 131 l 1751 50 q 1788 131 1771 131 q 1801 118 1801 129 l 1801 32 q 1788 19 1801 19 q 1782 75 1782 23 l 1775 75 q 1751 19 1763 19 l 1745 19 q 1720 81 1731 19 l 1714 81 q 1702 19 1714 19 l 1695 32 l 1695 118 q 1708 131 1697 131 m 847 87 l 847 56 q 865 38 847 47 l 890 38 q 909 56 899 38 l 909 87 q 884 112 909 97 l 871 112 q 847 87 862 112 m 958 75 q 983 38 971 38 l 1008 38 q 1027 75 1027 44 q 989 112 1021 112 q 958 75 971 111 m 1219 75 l 1219 56 q 1237 38 1219 47 l 1261 38 q 1280 56 1271 38 l 1280 87 q 1255 112 1280 97 q 1219 75 1219 112 m 1330 68 q 1355 38 1342 40 l 1379 38 q 1398 75 1398 44 q 1361 112 1393 112 q 1330 68 1330 102 m 1596 87 l 1596 75 q 1615 38 1600 38 l 1640 38 q 1658 56 1649 38 l 1658 75 q 1627 112 1658 112 q 1596 87 1599 100 m 593 81 l 593 68 l 611 68 l 611 75 q 605 94 605 87 q 593 81 593 92 m 456 38 l 463 25 l 450 19 l 444 32 l 456 38 m 1441 38 q 1454 25 1454 36 l 1441 19 q 1429 32 1429 19 l 1441 38 z "},"\"":{"ha":1843,"x_min":17,"x_max":1801,"o":"m 921 1158 q 1033 1065 977 1158 q 1082 991 1082 1031 l 1082 972 q 1051 917 1082 949 l 1051 873 q 1082 855 1082 869 q 1045 793 1045 849 l 1045 738 l 1033 738 l 1033 781 q 989 762 1010 762 l 977 762 q 958 781 968 762 q 964 787 958 787 q 958 831 958 812 l 946 824 l 946 837 q 1002 892 964 881 l 1039 880 l 1039 899 l 996 905 q 952 886 975 905 l 946 899 q 977 924 977 915 l 964 924 l 934 917 l 903 924 q 884 917 896 924 q 841 924 859 924 q 779 917 833 924 q 772 924 779 924 l 766 911 l 779 905 l 772 892 l 772 880 q 828 892 819 892 q 884 831 884 873 l 871 837 l 871 806 l 878 774 l 859 762 l 841 762 q 785 831 785 762 l 779 831 l 779 806 q 853 663 779 663 q 921 638 853 652 q 1027 725 1027 674 l 1039 725 q 1021 675 1039 713 q 1014 558 1014 577 q 1144 484 1144 532 q 1150 452 1150 473 l 1150 347 q 1156 218 1150 298 q 1132 186 1144 189 l 1126 186 l 1126 193 l 1138 211 l 1138 353 q 1114 359 1124 353 q 946 236 1114 236 l 946 248 q 1039 260 1025 260 l 1039 267 q 667 317 736 317 q 649 279 667 284 l 642 279 l 642 286 l 655 311 q 618 323 631 311 l 618 317 q 636 242 618 307 q 587 527 601 242 q 655 645 601 645 q 649 750 649 718 l 649 806 q 779 1134 649 1064 q 921 1158 818 1152 m 1008 924 l 1008 917 l 1039 911 l 1039 924 l 1008 924 m 859 917 q 890 892 888 905 l 890 886 l 884 886 l 853 905 q 785 899 798 899 l 785 911 q 859 917 795 911 m 748 855 l 748 831 q 760 843 760 831 q 748 855 760 855 m 785 855 l 791 824 l 797 824 l 797 855 l 785 855 m 1039 855 q 1033 818 1033 823 l 1033 812 l 1039 812 q 1045 849 1039 817 l 1045 855 l 1039 855 m 835 849 q 847 837 836 837 l 853 849 l 835 849 m 816 812 l 816 800 q 853 774 822 774 l 859 806 l 847 812 q 822 806 836 806 q 816 812 822 812 m 946 818 q 958 793 946 808 l 958 787 q 934 812 949 787 l 946 818 m 996 812 l 989 800 l 977 806 l 970 806 q 989 774 979 774 l 996 774 q 1014 793 1004 774 l 1014 806 q 996 812 1008 806 m 909 725 l 934 725 q 921 713 934 713 l 909 713 l 909 725 m 884 700 l 890 700 l 903 694 q 928 700 913 700 q 946 682 936 700 q 928 663 946 673 l 909 663 q 884 694 900 664 l 884 700 m 828 657 q 822 601 822 614 q 871 564 868 578 l 871 558 q 797 595 822 595 l 797 583 q 871 552 797 569 q 909 521 871 545 q 964 533 956 533 l 958 521 q 983 539 983 524 l 996 539 q 1063 521 1056 521 l 1063 533 q 996 545 1057 533 l 940 545 l 940 558 l 989 558 l 989 564 q 946 632 946 573 l 934 626 l 921 626 q 828 657 886 626 m 667 638 q 717 595 681 607 l 717 601 q 673 638 707 638 l 667 638 m 630 614 l 636 614 q 649 626 649 614 l 649 632 q 630 614 640 632 m 928 595 l 934 595 q 909 558 921 558 q 897 570 897 558 l 897 576 l 909 570 q 928 595 918 595 m 692 558 l 698 527 l 692 496 l 711 484 l 723 484 l 717 514 l 717 539 l 729 539 l 723 583 l 692 558 m 605 576 l 605 545 l 611 545 l 611 576 l 605 576 m 797 552 l 797 545 l 816 545 l 816 539 l 810 527 l 828 527 l 822 539 q 828 545 828 539 q 810 552 822 545 l 797 552 m 847 552 l 847 545 q 871 533 857 545 l 871 539 l 853 552 l 847 552 m 599 527 l 599 521 q 630 496 630 521 l 642 496 q 661 527 644 527 q 655 545 655 539 l 649 545 q 599 527 633 527 m 680 539 l 673 514 l 673 503 l 680 503 l 686 533 l 686 539 l 680 539 m 1002 514 l 996 503 q 1002 496 1002 503 q 996 490 996 496 l 1008 490 q 1039 508 1008 508 l 1039 514 l 1002 514 m 1088 521 l 1082 508 l 1082 465 q 1120 378 1105 378 l 1132 397 q 1120 410 1120 397 l 1132 410 q 1120 421 1132 421 l 1114 421 l 1120 410 l 1114 410 q 1101 421 1101 410 l 1120 446 q 1114 465 1114 458 l 1126 471 l 1138 465 l 1138 471 q 1088 521 1126 521 m 797 503 q 915 378 797 414 l 915 434 q 928 421 928 432 l 928 378 l 977 378 q 1045 446 1045 378 q 1051 503 1051 469 l 1045 503 q 952 446 979 446 l 952 452 l 940 446 l 921 459 q 909 446 921 446 q 890 465 909 456 l 871 452 q 847 477 847 469 l 835 471 l 828 484 q 835 490 835 484 q 816 503 816 490 q 822 508 822 503 l 810 508 l 797 503 m 642 490 l 636 477 l 636 471 l 642 471 q 655 484 655 471 l 642 490 m 605 484 l 605 428 q 636 440 621 440 l 636 459 l 630 471 l 618 465 l 611 465 l 611 484 l 605 484 m 958 484 l 958 477 q 970 465 960 465 l 970 471 q 958 484 970 484 m 655 465 l 649 452 l 667 452 q 655 465 667 465 m 624 428 q 605 410 624 410 q 618 397 607 397 l 636 421 l 624 428 m 704 428 l 704 410 q 723 404 711 410 l 723 428 l 704 428 m 680 404 l 680 397 q 704 385 689 397 l 704 391 q 698 410 698 403 q 680 404 686 404 m 1126 372 l 1126 366 q 1138 378 1138 366 l 1138 385 q 1126 372 1126 382 m 686 378 l 686 372 q 742 335 715 372 l 735 335 q 729 341 729 335 l 717 335 l 686 341 l 667 341 l 667 335 l 772 317 l 772 323 q 723 378 762 355 l 723 372 q 754 341 731 372 l 754 335 q 692 378 707 378 l 686 378 m 661 372 l 661 366 q 704 347 673 366 l 711 347 l 711 353 q 667 372 698 353 l 661 372 m 636 323 l 642 323 q 655 335 655 323 l 649 335 q 636 323 636 333 m 29 131 q 54 56 45 131 l 60 56 q 91 131 73 131 q 122 62 105 131 l 129 62 q 153 131 133 131 l 172 131 q 197 62 182 131 l 203 62 q 228 131 212 131 l 234 131 q 258 62 250 131 l 264 62 q 290 131 277 131 l 308 131 q 332 62 327 131 q 363 131 340 62 l 370 131 q 401 62 387 131 l 408 62 q 432 131 414 131 l 438 131 l 438 118 q 401 19 422 19 q 376 87 385 19 l 363 87 q 339 19 355 19 q 302 112 321 19 l 296 112 q 264 19 281 19 q 234 94 244 19 l 228 94 q 197 19 215 19 q 165 106 178 19 q 129 19 157 106 l 122 19 q 91 87 109 19 l 85 87 q 60 19 76 19 l 54 19 q 17 125 42 19 l 29 131 m 488 131 l 556 131 q 568 118 568 129 q 531 106 568 106 l 531 32 q 518 19 531 19 q 507 32 507 19 l 507 106 q 475 118 475 106 q 488 131 477 131 m 599 131 q 655 25 615 131 l 642 19 q 624 50 625 19 l 581 50 q 562 19 576 19 l 549 25 q 599 131 588 131 m 655 131 l 810 131 q 822 118 822 129 q 791 106 822 106 l 791 32 q 779 19 791 19 q 766 32 766 19 l 766 106 q 735 112 735 106 q 698 106 726 106 l 698 32 q 686 19 698 19 q 673 32 673 19 l 673 106 q 642 118 642 106 q 655 131 644 131 m 878 131 q 934 75 934 122 q 884 13 934 28 q 822 75 822 21 q 878 131 830 131 m 996 131 q 1045 81 1045 131 l 1045 50 q 989 13 1021 13 q 940 68 949 13 l 940 94 q 996 131 962 131 m 1063 131 q 1082 62 1082 106 l 1095 62 q 1120 131 1103 131 l 1126 131 q 1150 56 1139 131 l 1156 56 q 1181 131 1164 131 q 1194 118 1194 129 q 1156 19 1166 19 l 1150 19 q 1126 94 1136 19 l 1120 94 q 1088 19 1103 19 q 1051 125 1069 19 l 1063 131 m 1249 131 q 1305 62 1305 131 q 1249 13 1285 13 q 1194 87 1194 13 q 1249 131 1212 131 m 1367 131 q 1417 81 1417 131 l 1417 50 q 1361 13 1393 13 q 1311 68 1321 13 l 1311 81 q 1367 131 1311 131 m 1522 131 q 1565 94 1565 131 l 1553 87 q 1516 112 1532 112 q 1491 75 1491 106 l 1491 56 q 1510 38 1491 47 l 1528 38 q 1559 62 1556 62 l 1565 50 l 1565 44 q 1516 13 1548 13 q 1466 87 1466 13 q 1522 131 1485 131 m 1627 131 q 1683 75 1683 122 l 1683 68 q 1627 13 1675 13 q 1571 75 1571 27 q 1627 131 1584 131 m 1708 131 l 1714 131 q 1745 50 1728 131 l 1751 50 q 1788 131 1771 131 q 1801 118 1801 129 l 1801 32 q 1788 19 1801 19 q 1782 75 1782 23 l 1775 75 q 1751 19 1763 19 l 1745 19 q 1720 81 1731 19 l 1714 81 q 1702 19 1714 19 l 1695 32 l 1695 118 q 1708 131 1697 131 m 847 87 l 847 56 q 865 38 847 47 l 890 38 q 909 56 899 38 l 909 87 q 884 112 909 97 l 871 112 q 847 87 862 112 m 958 75 q 983 38 971 38 l 1008 38 q 1027 75 1027 44 q 989 112 1021 112 q 958 75 971 111 m 1219 75 l 1219 56 q 1237 38 1219 47 l 1261 38 q 1280 56 1271 38 l 1280 87 q 1255 112 1280 97 q 1219 75 1219 112 m 1330 68 q 1355 38 1342 40 l 1379 38 q 1398 75 1398 44 q 1361 112 1393 112 q 1330 68 1330 102 m 1596 87 l 1596 75 q 1615 38 1600 38 l 1640 38 q 1658 56 1649 38 l 1658 75 q 1627 112 1658 112 q 1596 87 1599 100 m 593 81 l 593 68 l 611 68 l 611 75 q 605 94 605 87 q 593 81 593 92 m 456 38 l 463 25 l 450 19 l 444 32 l 456 38 m 1441 38 q 1454 25 1454 36 l 1441 19 q 1429 32 1429 19 l 1441 38 z "},"#":{"ha":1843,"x_min":17,"x_max":1801,"o":"m 921 1158 q 1033 1065 977 1158 q 1082 991 1082 1031 l 1082 972 q 1051 917 1082 949 l 1051 873 q 1082 855 1082 869 q 1045 793 1045 849 l 1045 738 l 1033 738 l 1033 781 q 989 762 1010 762 l 977 762 q 958 781 968 762 q 964 787 958 787 q 958 831 958 812 l 946 824 l 946 837 q 1002 892 964 881 l 1039 880 l 1039 899 l 996 905 q 952 886 975 905 l 946 899 q 977 924 977 915 l 964 924 l 934 917 l 903 924 q 884 917 896 924 q 841 924 859 924 q 779 917 833 924 q 772 924 779 924 l 766 911 l 779 905 l 772 892 l 772 880 q 828 892 819 892 q 884 831 884 873 l 871 837 l 871 806 l 878 774 l 859 762 l 841 762 q 785 831 785 762 l 779 831 l 779 806 q 853 663 779 663 q 921 638 853 652 q 1027 725 1027 674 l 1039 725 q 1021 675 1039 713 q 1014 558 1014 577 q 1144 484 1144 532 q 1150 452 1150 473 l 1150 347 q 1156 218 1150 298 q 1132 186 1144 189 l 1126 186 l 1126 193 l 1138 211 l 1138 353 q 1114 359 1124 353 q 946 236 1114 236 l 946 248 q 1039 260 1025 260 l 1039 267 q 667 317 736 317 q 649 279 667 284 l 642 279 l 642 286 l 655 311 q 618 323 631 311 l 618 317 q 636 242 618 307 q 587 527 601 242 q 655 645 601 645 q 649 750 649 718 l 649 806 q 779 1134 649 1064 q 921 1158 818 1152 m 1008 924 l 1008 917 l 1039 911 l 1039 924 l 1008 924 m 859 917 q 890 892 888 905 l 890 886 l 884 886 l 853 905 q 785 899 798 899 l 785 911 q 859 917 795 911 m 748 855 l 748 831 q 760 843 760 831 q 748 855 760 855 m 785 855 l 791 824 l 797 824 l 797 855 l 785 855 m 1039 855 q 1033 818 1033 823 l 1033 812 l 1039 812 q 1045 849 1039 817 l 1045 855 l 1039 855 m 835 849 q 847 837 836 837 l 853 849 l 835 849 m 816 812 l 816 800 q 853 774 822 774 l 859 806 l 847 812 q 822 806 836 806 q 816 812 822 812 m 946 818 q 958 793 946 808 l 958 787 q 934 812 949 787 l 946 818 m 996 812 l 989 800 l 977 806 l 970 806 q 989 774 979 774 l 996 774 q 1014 793 1004 774 l 1014 806 q 996 812 1008 806 m 909 725 l 934 725 q 921 713 934 713 l 909 713 l 909 725 m 884 700 l 890 700 l 903 694 q 928 700 913 700 q 946 682 936 700 q 928 663 946 673 l 909 663 q 884 694 900 664 l 884 700 m 828 657 q 822 601 822 614 q 871 564 868 578 l 871 558 q 797 595 822 595 l 797 583 q 871 552 797 569 q 909 521 871 545 q 964 533 956 533 l 958 521 q 983 539 983 524 l 996 539 q 1063 521 1056 521 l 1063 533 q 996 545 1057 533 l 940 545 l 940 558 l 989 558 l 989 564 q 946 632 946 573 l 934 626 l 921 626 q 828 657 886 626 m 667 638 q 717 595 681 607 l 717 601 q 673 638 707 638 l 667 638 m 630 614 l 636 614 q 649 626 649 614 l 649 632 q 630 614 640 632 m 928 595 l 934 595 q 909 558 921 558 q 897 570 897 558 l 897 576 l 909 570 q 928 595 918 595 m 692 558 l 698 527 l 692 496 l 711 484 l 723 484 l 717 514 l 717 539 l 729 539 l 723 583 l 692 558 m 605 576 l 605 545 l 611 545 l 611 576 l 605 576 m 797 552 l 797 545 l 816 545 l 816 539 l 810 527 l 828 527 l 822 539 q 828 545 828 539 q 810 552 822 545 l 797 552 m 847 552 l 847 545 q 871 533 857 545 l 871 539 l 853 552 l 847 552 m 599 527 l 599 521 q 630 496 630 521 l 642 496 q 661 527 644 527 q 655 545 655 539 l 649 545 q 599 527 633 527 m 680 539 l 673 514 l 673 503 l 680 503 l 686 533 l 686 539 l 680 539 m 1002 514 l 996 503 q 1002 496 1002 503 q 996 490 996 496 l 1008 490 q 1039 508 1008 508 l 1039 514 l 1002 514 m 1088 521 l 1082 508 l 1082 465 q 1120 378 1105 378 l 1132 397 q 1120 410 1120 397 l 1132 410 q 1120 421 1132 421 l 1114 421 l 1120 410 l 1114 410 q 1101 421 1101 410 l 1120 446 q 1114 465 1114 458 l 1126 471 l 1138 465 l 1138 471 q 1088 521 1126 521 m 797 503 q 915 378 797 414 l 915 434 q 928 421 928 432 l 928 378 l 977 378 q 1045 446 1045 378 q 1051 503 1051 469 l 1045 503 q 952 446 979 446 l 952 452 l 940 446 l 921 459 q 909 446 921 446 q 890 465 909 456 l 871 452 q 847 477 847 469 l 835 471 l 828 484 q 835 490 835 484 q 816 503 816 490 q 822 508 822 503 l 810 508 l 797 503 m 642 490 l 636 477 l 636 471 l 642 471 q 655 484 655 471 l 642 490 m 605 484 l 605 428 q 636 440 621 440 l 636 459 l 630 471 l 618 465 l 611 465 l 611 484 l 605 484 m 958 484 l 958 477 q 970 465 960 465 l 970 471 q 958 484 970 484 m 655 465 l 649 452 l 667 452 q 655 465 667 465 m 624 428 q 605 410 624 410 q 618 397 607 397 l 636 421 l 624 428 m 704 428 l 704 410 q 723 404 711 410 l 723 428 l 704 428 m 680 404 l 680 397 q 704 385 689 397 l 704 391 q 698 410 698 403 q 680 404 686 404 m 1126 372 l 1126 366 q 1138 378 1138 366 l 1138 385 q 1126 372 1126 382 m 686 378 l 686 372 q 742 335 715 372 l 735 335 q 729 341 729 335 l 717 335 l 686 341 l 667 341 l 667 335 l 772 317 l 772 323 q 723 378 762 355 l 723 372 q 754 341 731 372 l 754 335 q 692 378 707 378 l 686 378 m 661 372 l 661 366 q 704 347 673 366 l 711 347 l 711 353 q 667 372 698 353 l 661 372 m 636 323 l 642 323 q 655 335 655 323 l 649 335 q 636 323 636 333 m 29 131 q 54 56 45 131 l 60 56 q 91 131 73 131 q 122 62 105 131 l 129 62 q 153 131 133 131 l 172 131 q 197 62 182 131 l 203 62 q 228 131 212 131 l 234 131 q 258 62 250 131 l 264 62 q 290 131 277 131 l 308 131 q 332 62 327 131 q 363 131 340 62 l 370 131 q 401 62 387 131 l 408 62 q 432 131 414 131 l 438 131 l 438 118 q 401 19 422 19 q 376 87 385 19 l 363 87 q 339 19 355 19 q 302 112 321 19 l 296 112 q 264 19 281 19 q 234 94 244 19 l 228 94 q 197 19 215 19 q 165 106 178 19 q 129 19 157 106 l 122 19 q 91 87 109 19 l 85 87 q 60 19 76 19 l 54 19 q 17 125 42 19 l 29 131 m 488 131 l 556 131 q 568 118 568 129 q 531 106 568 106 l 531 32 q 518 19 531 19 q 507 32 507 19 l 507 106 q 475 118 475 106 q 488 131 477 131 m 599 131 q 655 25 615 131 l 642 19 q 624 50 625 19 l 581 50 q 562 19 576 19 l 549 25 q 599 131 588 131 m 655 131 l 810 131 q 822 118 822 129 q 791 106 822 106 l 791 32 q 779 19 791 19 q 766 32 766 19 l 766 106 q 735 112 735 106 q 698 106 726 106 l 698 32 q 686 19 698 19 q 673 32 673 19 l 673 106 q 642 118 642 106 q 655 131 644 131 m 878 131 q 934 75 934 122 q 884 13 934 28 q 822 75 822 21 q 878 131 830 131 m 996 131 q 1045 81 1045 131 l 1045 50 q 989 13 1021 13 q 940 68 949 13 l 940 94 q 996 131 962 131 m 1063 131 q 1082 62 1082 106 l 1095 62 q 1120 131 1103 131 l 1126 131 q 1150 56 1139 131 l 1156 56 q 1181 131 1164 131 q 1194 118 1194 129 q 1156 19 1166 19 l 1150 19 q 1126 94 1136 19 l 1120 94 q 1088 19 1103 19 q 1051 125 1069 19 l 1063 131 m 1249 131 q 1305 62 1305 131 q 1249 13 1285 13 q 1194 87 1194 13 q 1249 131 1212 131 m 1367 131 q 1417 81 1417 131 l 1417 50 q 1361 13 1393 13 q 1311 68 1321 13 l 1311 81 q 1367 131 1311 131 m 1522 131 q 1565 94 1565 131 l 1553 87 q 1516 112 1532 112 q 1491 75 1491 106 l 1491 56 q 1510 38 1491 47 l 1528 38 q 1559 62 1556 62 l 1565 50 l 1565 44 q 1516 13 1548 13 q 1466 87 1466 13 q 1522 131 1485 131 m 1627 131 q 1683 75 1683 122 l 1683 68 q 1627 13 1675 13 q 1571 75 1571 27 q 1627 131 1584 131 m 1708 131 l 1714 131 q 1745 50 1728 131 l 1751 50 q 1788 131 1771 131 q 1801 118 1801 129 l 1801 32 q 1788 19 1801 19 q 1782 75 1782 23 l 1775 75 q 1751 19 1763 19 l 1745 19 q 1720 81 1731 19 l 1714 81 q 1702 19 1714 19 l 1695 32 l 1695 118 q 1708 131 1697 131 m 847 87 l 847 56 q 865 38 847 47 l 890 38 q 909 56 899 38 l 909 87 q 884 112 909 97 l 871 112 q 847 87 862 112 m 958 75 q 983 38 971 38 l 1008 38 q 1027 75 1027 44 q 989 112 1021 112 q 958 75 971 111 m 1219 75 l 1219 56 q 1237 38 1219 47 l 1261 38 q 1280 56 1271 38 l 1280 87 q 1255 112 1280 97 q 1219 75 1219 112 m 1330 68 q 1355 38 1342 40 l 1379 38 q 1398 75 1398 44 q 1361 112 1393 112 q 1330 68 1330 102 m 1596 87 l 1596 75 q 1615 38 1600 38 l 1640 38 q 1658 56 1649 38 l 1658 75 q 1627 112 1658 112 q 1596 87 1599 100 m 593 81 l 593 68 l 611 68 l 611 75 q 605 94 605 87 q 593 81 593 92 m 456 38 l 463 25 l 450 19 l 444 32 l 456 38 m 1441 38 q 1454 25 1454 36 l 1441 19 q 1429 32 1429 19 l 1441 38 z "},"$":{"ha":1843,"x_min":17,"x_max":1801,"o":"m 921 1158 q 1033 1065 977 1158 q 1082 991 1082 1031 l 1082 972 q 1051 917 1082 949 l 1051 873 q 1082 855 1082 869 q 1045 793 1045 849 l 1045 738 l 1033 738 l 1033 781 q 989 762 1010 762 l 977 762 q 958 781 968 762 q 964 787 958 787 q 958 831 958 812 l 946 824 l 946 837 q 1002 892 964 881 l 1039 880 l 1039 899 l 996 905 q 952 886 975 905 l 946 899 q 977 924 977 915 l 964 924 l 934 917 l 903 924 q 884 917 896 924 q 841 924 859 924 q 779 917 833 924 q 772 924 779 924 l 766 911 l 779 905 l 772 892 l 772 880 q 828 892 819 892 q 884 831 884 873 l 871 837 l 871 806 l 878 774 l 859 762 l 841 762 q 785 831 785 762 l 779 831 l 779 806 q 853 663 779 663 q 921 638 853 652 q 1027 725 1027 674 l 1039 725 q 1021 675 1039 713 q 1014 558 1014 577 q 1144 484 1144 532 q 1150 452 1150 473 l 1150 347 q 1156 218 1150 298 q 1132 186 1144 189 l 1126 186 l 1126 193 l 1138 211 l 1138 353 q 1114 359 1124 353 q 946 236 1114 236 l 946 248 q 1039 260 1025 260 l 1039 267 q 667 317 736 317 q 649 279 667 284 l 642 279 l 642 286 l 655 311 q 618 323 631 311 l 618 317 q 636 242 618 307 q 587 527 601 242 q 655 645 601 645 q 649 750 649 718 l 649 806 q 779 1134 649 1064 q 921 1158 818 1152 m 1008 924 l 1008 917 l 1039 911 l 1039 924 l 1008 924 m 859 917 q 890 892 888 905 l 890 886 l 884 886 l 853 905 q 785 899 798 899 l 785 911 q 859 917 795 911 m 748 855 l 748 831 q 760 843 760 831 q 748 855 760 855 m 785 855 l 791 824 l 797 824 l 797 855 l 785 855 m 1039 855 q 1033 818 1033 823 l 1033 812 l 1039 812 q 1045 849 1039 817 l 1045 855 l 1039 855 m 835 849 q 847 837 836 837 l 853 849 l 835 849 m 816 812 l 816 800 q 853 774 822 774 l 859 806 l 847 812 q 822 806 836 806 q 816 812 822 812 m 946 818 q 958 793 946 808 l 958 787 q 934 812 949 787 l 946 818 m 996 812 l 989 800 l 977 806 l 970 806 q 989 774 979 774 l 996 774 q 1014 793 1004 774 l 1014 806 q 996 812 1008 806 m 909 725 l 934 725 q 921 713 934 713 l 909 713 l 909 725 m 884 700 l 890 700 l 903 694 q 928 700 913 700 q 946 682 936 700 q 928 663 946 673 l 909 663 q 884 694 900 664 l 884 700 m 828 657 q 822 601 822 614 q 871 564 868 578 l 871 558 q 797 595 822 595 l 797 583 q 871 552 797 569 q 909 521 871 545 q 964 533 956 533 l 958 521 q 983 539 983 524 l 996 539 q 1063 521 1056 521 l 1063 533 q 996 545 1057 533 l 940 545 l 940 558 l 989 558 l 989 564 q 946 632 946 573 l 934 626 l 921 626 q 828 657 886 626 m 667 638 q 717 595 681 607 l 717 601 q 673 638 707 638 l 667 638 m 630 614 l 636 614 q 649 626 649 614 l 649 632 q 630 614 640 632 m 928 595 l 934 595 q 909 558 921 558 q 897 570 897 558 l 897 576 l 909 570 q 928 595 918 595 m 692 558 l 698 527 l 692 496 l 711 484 l 723 484 l 717 514 l 717 539 l 729 539 l 723 583 l 692 558 m 605 576 l 605 545 l 611 545 l 611 576 l 605 576 m 797 552 l 797 545 l 816 545 l 816 539 l 810 527 l 828 527 l 822 539 q 828 545 828 539 q 810 552 822 545 l 797 552 m 847 552 l 847 545 q 871 533 857 545 l 871 539 l 853 552 l 847 552 m 599 527 l 599 521 q 630 496 630 521 l 642 496 q 661 527 644 527 q 655 545 655 539 l 649 545 q 599 527 633 527 m 680 539 l 673 514 l 673 503 l 680 503 l 686 533 l 686 539 l 680 539 m 1002 514 l 996 503 q 1002 496 1002 503 q 996 490 996 496 l 1008 490 q 1039 508 1008 508 l 1039 514 l 1002 514 m 1088 521 l 1082 508 l 1082 465 q 1120 378 1105 378 l 1132 397 q 1120 410 1120 397 l 1132 410 q 1120 421 1132 421 l 1114 421 l 1120 410 l 1114 410 q 1101 421 1101 410 l 1120 446 q 1114 465 1114 458 l 1126 471 l 1138 465 l 1138 471 q 1088 521 1126 521 m 797 503 q 915 378 797 414 l 915 434 q 928 421 928 432 l 928 378 l 977 378 q 1045 446 1045 378 q 1051 503 1051 469 l 1045 503 q 952 446 979 446 l 952 452 l 940 446 l 921 459 q 909 446 921 446 q 890 465 909 456 l 871 452 q 847 477 847 469 l 835 471 l 828 484 q 835 490 835 484 q 816 503 816 490 q 822 508 822 503 l 810 508 l 797 503 m 642 490 l 636 477 l 636 471 l 642 471 q 655 484 655 471 l 642 490 m 605 484 l 605 428 q 636 440 621 440 l 636 459 l 630 471 l 618 465 l 611 465 l 611 484 l 605 484 m 958 484 l 958 477 q 970 465 960 465 l 970 471 q 958 484 970 484 m 655 465 l 649 452 l 667 452 q 655 465 667 465 m 624 428 q 605 410 624 410 q 618 397 607 397 l 636 421 l 624 428 m 704 428 l 704 410 q 723 404 711 410 l 723 428 l 704 428 m 680 404 l 680 397 q 704 385 689 397 l 704 391 q 698 410 698 403 q 680 404 686 404 m 1126 372 l 1126 366 q 1138 378 1138 366 l 1138 385 q 1126 372 1126 382 m 686 378 l 686 372 q 742 335 715 372 l 735 335 q 729 341 729 335 l 717 335 l 686 341 l 667 341 l 667 335 l 772 317 l 772 323 q 723 378 762 355 l 723 372 q 754 341 731 372 l 754 335 q 692 378 707 378 l 686 378 m 661 372 l 661 366 q 704 347 673 366 l 711 347 l 711 353 q 667 372 698 353 l 661 372 m 636 323 l 642 323 q 655 335 655 323 l 649 335 q 636 323 636 333 m 29 131 q 54 56 45 131 l 60 56 q 91 131 73 131 q 122 62 105 131 l 129 62 q 153 131 133 131 l 172 131 q 197 62 182 131 l 203 62 q 228 131 212 131 l 234 131 q 258 62 250 131 l 264 62 q 290 131 277 131 l 308 131 q 332 62 327 131 q 363 131 340 62 l 370 131 q 401 62 387 131 l 408 62 q 432 131 414 131 l 438 131 l 438 118 q 401 19 422 19 q 376 87 385 19 l 363 87 q 339 19 355 19 q 302 112 321 19 l 296 112 q 264 19 281 19 q 234 94 244 19 l 228 94 q 197 19 215 19 q 165 106 178 19 q 129 19 157 106 l 122 19 q 91 87 109 19 l 85 87 q 60 19 76 19 l 54 19 q 17 125 42 19 l 29 131 m 488 131 l 556 131 q 568 118 568 129 q 531 106 568 106 l 531 32 q 518 19 531 19 q 507 32 507 19 l 507 106 q 475 118 475 106 q 488 131 477 131 m 599 131 q 655 25 615 131 l 642 19 q 624 50 625 19 l 581 50 q 562 19 576 19 l 549 25 q 599 131 588 131 m 655 131 l 810 131 q 822 118 822 129 q 791 106 822 106 l 791 32 q 779 19 791 19 q 766 32 766 19 l 766 106 q 735 112 735 106 q 698 106 726 106 l 698 32 q 686 19 698 19 q 673 32 673 19 l 673 106 q 642 118 642 106 q 655 131 644 131 m 878 131 q 934 75 934 122 q 884 13 934 28 q 822 75 822 21 q 878 131 830 131 m 996 131 q 1045 81 1045 131 l 1045 50 q 989 13 1021 13 q 940 68 949 13 l 940 94 q 996 131 962 131 m 1063 131 q 1082 62 1082 106 l 1095 62 q 1120 131 1103 131 l 1126 131 q 1150 56 1139 131 l 1156 56 q 1181 131 1164 131 q 1194 118 1194 129 q 1156 19 1166 19 l 1150 19 q 1126 94 1136 19 l 1120 94 q 1088 19 1103 19 q 1051 125 1069 19 l 1063 131 m 1249 131 q 1305 62 1305 131 q 1249 13 1285 13 q 1194 87 1194 13 q 1249 131 1212 131 m 1367 131 q 1417 81 1417 131 l 1417 50 q 1361 13 1393 13 q 1311 68 1321 13 l 1311 81 q 1367 131 1311 131 m 1522 131 q 1565 94 1565 131 l 1553 87 q 1516 112 1532 112 q 1491 75 1491 106 l 1491 56 q 1510 38 1491 47 l 1528 38 q 1559 62 1556 62 l 1565 50 l 1565 44 q 1516 13 1548 13 q 1466 87 1466 13 q 1522 131 1485 131 m 1627 131 q 1683 75 1683 122 l 1683 68 q 1627 13 1675 13 q 1571 75 1571 27 q 1627 131 1584 131 m 1708 131 l 1714 131 q 1745 50 1728 131 l 1751 50 q 1788 131 1771 131 q 1801 118 1801 129 l 1801 32 q 1788 19 1801 19 q 1782 75 1782 23 l 1775 75 q 1751 19 1763 19 l 1745 19 q 1720 81 1731 19 l 1714 81 q 1702 19 1714 19 l 1695 32 l 1695 118 q 1708 131 1697 131 m 847 87 l 847 56 q 865 38 847 47 l 890 38 q 909 56 899 38 l 909 87 q 884 112 909 97 l 871 112 q 847 87 862 112 m 958 75 q 983 38 971 38 l 1008 38 q 1027 75 1027 44 q 989 112 1021 112 q 958 75 971 111 m 1219 75 l 1219 56 q 1237 38 1219 47 l 1261 38 q 1280 56 1271 38 l 1280 87 q 1255 112 1280 97 q 1219 75 1219 112 m 1330 68 q 1355 38 1342 40 l 1379 38 q 1398 75 1398 44 q 1361 112 1393 112 q 1330 68 1330 102 m 1596 87 l 1596 75 q 1615 38 1600 38 l 1640 38 q 1658 56 1649 38 l 1658 75 q 1627 112 1658 112 q 1596 87 1599 100 m 593 81 l 593 68 l 611 68 l 611 75 q 605 94 605 87 q 593 81 593 92 m 456 38 l 463 25 l 450 19 l 444 32 l 456 38 m 1441 38 q 1454 25 1454 36 l 1441 19 q 1429 32 1429 19 l 1441 38 z "},"%":{"ha":1843,"x_min":17,"x_max":1801,"o":"m 921 1158 q 1033 1065 977 1158 q 1082 991 1082 1031 l 1082 972 q 1051 917 1082 949 l 1051 873 q 1082 855 1082 869 q 1045 793 1045 849 l 1045 738 l 1033 738 l 1033 781 q 989 762 1010 762 l 977 762 q 958 781 968 762 q 964 787 958 787 q 958 831 958 812 l 946 824 l 946 837 q 1002 892 964 881 l 1039 880 l 1039 899 l 996 905 q 952 886 975 905 l 946 899 q 977 924 977 915 l 964 924 l 934 917 l 903 924 q 884 917 896 924 q 841 924 859 924 q 779 917 833 924 q 772 924 779 924 l 766 911 l 779 905 l 772 892 l 772 880 q 828 892 819 892 q 884 831 884 873 l 871 837 l 871 806 l 878 774 l 859 762 l 841 762 q 785 831 785 762 l 779 831 l 779 806 q 853 663 779 663 q 921 638 853 652 q 1027 725 1027 674 l 1039 725 q 1021 675 1039 713 q 1014 558 1014 577 q 1144 484 1144 532 q 1150 452 1150 473 l 1150 347 q 1156 218 1150 298 q 1132 186 1144 189 l 1126 186 l 1126 193 l 1138 211 l 1138 353 q 1114 359 1124 353 q 946 236 1114 236 l 946 248 q 1039 260 1025 260 l 1039 267 q 667 317 736 317 q 649 279 667 284 l 642 279 l 642 286 l 655 311 q 618 323 631 311 l 618 317 q 636 242 618 307 q 587 527 601 242 q 655 645 601 645 q 649 750 649 718 l 649 806 q 779 1134 649 1064 q 921 1158 818 1152 m 1008 924 l 1008 917 l 1039 911 l 1039 924 l 1008 924 m 859 917 q 890 892 888 905 l 890 886 l 884 886 l 853 905 q 785 899 798 899 l 785 911 q 859 917 795 911 m 748 855 l 748 831 q 760 843 760 831 q 748 855 760 855 m 785 855 l 791 824 l 797 824 l 797 855 l 785 855 m 1039 855 q 1033 818 1033 823 l 1033 812 l 1039 812 q 1045 849 1039 817 l 1045 855 l 1039 855 m 835 849 q 847 837 836 837 l 853 849 l 835 849 m 816 812 l 816 800 q 853 774 822 774 l 859 806 l 847 812 q 822 806 836 806 q 816 812 822 812 m 946 818 q 958 793 946 808 l 958 787 q 934 812 949 787 l 946 818 m 996 812 l 989 800 l 977 806 l 970 806 q 989 774 979 774 l 996 774 q 1014 793 1004 774 l 1014 806 q 996 812 1008 806 m 909 725 l 934 725 q 921 713 934 713 l 909 713 l 909 725 m 884 700 l 890 700 l 903 694 q 928 700 913 700 q 946 682 936 700 q 928 663 946 673 l 909 663 q 884 694 900 664 l 884 700 m 828 657 q 822 601 822 614 q 871 564 868 578 l 871 558 q 797 595 822 595 l 797 583 q 871 552 797 569 q 909 521 871 545 q 964 533 956 533 l 958 521 q 983 539 983 524 l 996 539 q 1063 521 1056 521 l 1063 533 q 996 545 1057 533 l 940 545 l 940 558 l 989 558 l 989 564 q 946 632 946 573 l 934 626 l 921 626 q 828 657 886 626 m 667 638 q 717 595 681 607 l 717 601 q 673 638 707 638 l 667 638 m 630 614 l 636 614 q 649 626 649 614 l 649 632 q 630 614 640 632 m 928 595 l 934 595 q 909 558 921 558 q 897 570 897 558 l 897 576 l 909 570 q 928 595 918 595 m 692 558 l 698 527 l 692 496 l 711 484 l 723 484 l 717 514 l 717 539 l 729 539 l 723 583 l 692 558 m 605 576 l 605 545 l 611 545 l 611 576 l 605 576 m 797 552 l 797 545 l 816 545 l 816 539 l 810 527 l 828 527 l 822 539 q 828 545 828 539 q 810 552 822 545 l 797 552 m 847 552 l 847 545 q 871 533 857 545 l 871 539 l 853 552 l 847 552 m 599 527 l 599 521 q 630 496 630 521 l 642 496 q 661 527 644 527 q 655 545 655 539 l 649 545 q 599 527 633 527 m 680 539 l 673 514 l 673 503 l 680 503 l 686 533 l 686 539 l 680 539 m 1002 514 l 996 503 q 1002 496 1002 503 q 996 490 996 496 l 1008 490 q 1039 508 1008 508 l 1039 514 l 1002 514 m 1088 521 l 1082 508 l 1082 465 q 1120 378 1105 378 l 1132 397 q 1120 410 1120 397 l 1132 410 q 1120 421 1132 421 l 1114 421 l 1120 410 l 1114 410 q 1101 421 1101 410 l 1120 446 q 1114 465 1114 458 l 1126 471 l 1138 465 l 1138 471 q 1088 521 1126 521 m 797 503 q 915 378 797 414 l 915 434 q 928 421 928 432 l 928 378 l 977 378 q 1045 446 1045 378 q 1051 503 1051 469 l 1045 503 q 952 446 979 446 l 952 452 l 940 446 l 921 459 q 909 446 921 446 q 890 465 909 456 l 871 452 q 847 477 847 469 l 835 471 l 828 484 q 835 490 835 484 q 816 503 816 490 q 822 508 822 503 l 810 508 l 797 503 m 642 490 l 636 477 l 636 471 l 642 471 q 655 484 655 471 l 642 490 m 605 484 l 605 428 q 636 440 621 440 l 636 459 l 630 471 l 618 465 l 611 465 l 611 484 l 605 484 m 958 484 l 958 477 q 970 465 960 465 l 970 471 q 958 484 970 484 m 655 465 l 649 452 l 667 452 q 655 465 667 465 m 624 428 q 605 410 624 410 q 618 397 607 397 l 636 421 l 624 428 m 704 428 l 704 410 q 723 404 711 410 l 723 428 l 704 428 m 680 404 l 680 397 q 704 385 689 397 l 704 391 q 698 410 698 403 q 680 404 686 404 m 1126 372 l 1126 366 q 1138 378 1138 366 l 1138 385 q 1126 372 1126 382 m 686 378 l 686 372 q 742 335 715 372 l 735 335 q 729 341 729 335 l 717 335 l 686 341 l 667 341 l 667 335 l 772 317 l 772 323 q 723 378 762 355 l 723 372 q 754 341 731 372 l 754 335 q 692 378 707 378 l 686 378 m 661 372 l 661 366 q 704 347 673 366 l 711 347 l 711 353 q 667 372 698 353 l 661 372 m 636 323 l 642 323 q 655 335 655 323 l 649 335 q 636 323 636 333 m 29 131 q 54 56 45 131 l 60 56 q 91 131 73 131 q 122 62 105 131 l 129 62 q 153 131 133 131 l 172 131 q 197 62 182 131 l 203 62 q 228 131 212 131 l 234 131 q 258 62 250 131 l 264 62 q 290 131 277 131 l 308 131 q 332 62 327 131 q 363 131 340 62 l 370 131 q 401 62 387 131 l 408 62 q 432 131 414 131 l 438 131 l 438 118 q 401 19 422 19 q 376 87 385 19 l 363 87 q 339 19 355 19 q 302 112 321 19 l 296 112 q 264 19 281 19 q 234 94 244 19 l 228 94 q 197 19 215 19 q 165 106 178 19 q 129 19 157 106 l 122 19 q 91 87 109 19 l 85 87 q 60 19 76 19 l 54 19 q 17 125 42 19 l 29 131 m 488 131 l 556 131 q 568 118 568 129 q 531 106 568 106 l 531 32 q 518 19 531 19 q 507 32 507 19 l 507 106 q 475 118 475 106 q 488 131 477 131 m 599 131 q 655 25 615 131 l 642 19 q 624 50 625 19 l 581 50 q 562 19 576 19 l 549 25 q 599 131 588 131 m 655 131 l 810 131 q 822 118 822 129 q 791 106 822 106 l 791 32 q 779 19 791 19 q 766 32 766 19 l 766 106 q 735 112 735 106 q 698 106 726 106 l 698 32 q 686 19 698 19 q 673 32 673 19 l 673 106 q 642 118 642 106 q 655 131 644 131 m 878 131 q 934 75 934 122 q 884 13 934 28 q 822 75 822 21 q 878 131 830 131 m 996 131 q 1045 81 1045 131 l 1045 50 q 989 13 1021 13 q 940 68 949 13 l 940 94 q 996 131 962 131 m 1063 131 q 1082 62 1082 106 l 1095 62 q 1120 131 1103 131 l 1126 131 q 1150 56 1139 131 l 1156 56 q 1181 131 1164 131 q 1194 118 1194 129 q 1156 19 1166 19 l 1150 19 q 1126 94 1136 19 l 1120 94 q 1088 19 1103 19 q 1051 125 1069 19 l 1063 131 m 1249 131 q 1305 62 1305 131 q 1249 13 1285 13 q 1194 87 1194 13 q 1249 131 1212 131 m 1367 131 q 1417 81 1417 131 l 1417 50 q 1361 13 1393 13 q 1311 68 1321 13 l 1311 81 q 1367 131 1311 131 m 1522 131 q 1565 94 1565 131 l 1553 87 q 1516 112 1532 112 q 1491 75 1491 106 l 1491 56 q 1510 38 1491 47 l 1528 38 q 1559 62 1556 62 l 1565 50 l 1565 44 q 1516 13 1548 13 q 1466 87 1466 13 q 1522 131 1485 131 m 1627 131 q 1683 75 1683 122 l 1683 68 q 1627 13 1675 13 q 1571 75 1571 27 q 1627 131 1584 131 m 1708 131 l 1714 131 q 1745 50 1728 131 l 1751 50 q 1788 131 1771 131 q 1801 118 1801 129 l 1801 32 q 1788 19 1801 19 q 1782 75 1782 23 l 1775 75 q 1751 19 1763 19 l 1745 19 q 1720 81 1731 19 l 1714 81 q 1702 19 1714 19 l 1695 32 l 1695 118 q 1708 131 1697 131 m 847 87 l 847 56 q 865 38 847 47 l 890 38 q 909 56 899 38 l 909 87 q 884 112 909 97 l 871 112 q 847 87 862 112 m 958 75 q 983 38 971 38 l 1008 38 q 1027 75 1027 44 q 989 112 1021 112 q 958 75 971 111 m 1219 75 l 1219 56 q 1237 38 1219 47 l 1261 38 q 1280 56 1271 38 l 1280 87 q 1255 112 1280 97 q 1219 75 1219 112 m 1330 68 q 1355 38 1342 40 l 1379 38 q 1398 75 1398 44 q 1361 112 1393 112 q 1330 68 1330 102 m 1596 87 l 1596 75 q 1615 38 1600 38 l 1640 38 q 1658 56 1649 38 l 1658 75 q 1627 112 1658 112 q 1596 87 1599 100 m 593 81 l 593 68 l 611 68 l 611 75 q 605 94 605 87 q 593 81 593 92 m 456 38 l 463 25 l 450 19 l 444 32 l 456 38 m 1441 38 q 1454 25 1454 36 l 1441 19 q 1429 32 1429 19 l 1441 38 z "},"&":{"ha":1843,"x_min":17,"x_max":1801,"o":"m 921 1158 q 1033 1065 977 1158 q 1082 991 1082 1031 l 1082 972 q 1051 917 1082 949 l 1051 873 q 1082 855 1082 869 q 1045 793 1045 849 l 1045 738 l 1033 738 l 1033 781 q 989 762 1010 762 l 977 762 q 958 781 968 762 q 964 787 958 787 q 958 831 958 812 l 946 824 l 946 837 q 1002 892 964 881 l 1039 880 l 1039 899 l 996 905 q 952 886 975 905 l 946 899 q 977 924 977 915 l 964 924 l 934 917 l 903 924 q 884 917 896 924 q 841 924 859 924 q 779 917 833 924 q 772 924 779 924 l 766 911 l 779 905 l 772 892 l 772 880 q 828 892 819 892 q 884 831 884 873 l 871 837 l 871 806 l 878 774 l 859 762 l 841 762 q 785 831 785 762 l 779 831 l 779 806 q 853 663 779 663 q 921 638 853 652 q 1027 725 1027 674 l 1039 725 q 1021 675 1039 713 q 1014 558 1014 577 q 1144 484 1144 532 q 1150 452 1150 473 l 1150 347 q 1156 218 1150 298 q 1132 186 1144 189 l 1126 186 l 1126 193 l 1138 211 l 1138 353 q 1114 359 1124 353 q 946 236 1114 236 l 946 248 q 1039 260 1025 260 l 1039 267 q 667 317 736 317 q 649 279 667 284 l 642 279 l 642 286 l 655 311 q 618 323 631 311 l 618 317 q 636 242 618 307 q 587 527 601 242 q 655 645 601 645 q 649 750 649 718 l 649 806 q 779 1134 649 1064 q 921 1158 818 1152 m 1008 924 l 1008 917 l 1039 911 l 1039 924 l 1008 924 m 859 917 q 890 892 888 905 l 890 886 l 884 886 l 853 905 q 785 899 798 899 l 785 911 q 859 917 795 911 m 748 855 l 748 831 q 760 843 760 831 q 748 855 760 855 m 785 855 l 791 824 l 797 824 l 797 855 l 785 855 m 1039 855 q 1033 818 1033 823 l 1033 812 l 1039 812 q 1045 849 1039 817 l 1045 855 l 1039 855 m 835 849 q 847 837 836 837 l 853 849 l 835 849 m 816 812 l 816 800 q 853 774 822 774 l 859 806 l 847 812 q 822 806 836 806 q 816 812 822 812 m 946 818 q 958 793 946 808 l 958 787 q 934 812 949 787 l 946 818 m 996 812 l 989 800 l 977 806 l 970 806 q 989 774 979 774 l 996 774 q 1014 793 1004 774 l 1014 806 q 996 812 1008 806 m 909 725 l 934 725 q 921 713 934 713 l 909 713 l 909 725 m 884 700 l 890 700 l 903 694 q 928 700 913 700 q 946 682 936 700 q 928 663 946 673 l 909 663 q 884 694 900 664 l 884 700 m 828 657 q 822 601 822 614 q 871 564 868 578 l 871 558 q 797 595 822 595 l 797 583 q 871 552 797 569 q 909 521 871 545 q 964 533 956 533 l 958 521 q 983 539 983 524 l 996 539 q 1063 521 1056 521 l 1063 533 q 996 545 1057 533 l 940 545 l 940 558 l 989 558 l 989 564 q 946 632 946 573 l 934 626 l 921 626 q 828 657 886 626 m 667 638 q 717 595 681 607 l 717 601 q 673 638 707 638 l 667 638 m 630 614 l 636 614 q 649 626 649 614 l 649 632 q 630 614 640 632 m 928 595 l 934 595 q 909 558 921 558 q 897 570 897 558 l 897 576 l 909 570 q 928 595 918 595 m 692 558 l 698 527 l 692 496 l 711 484 l 723 484 l 717 514 l 717 539 l 729 539 l 723 583 l 692 558 m 605 576 l 605 545 l 611 545 l 611 576 l 605 576 m 797 552 l 797 545 l 816 545 l 816 539 l 810 527 l 828 527 l 822 539 q 828 545 828 539 q 810 552 822 545 l 797 552 m 847 552 l 847 545 q 871 533 857 545 l 871 539 l 853 552 l 847 552 m 599 527 l 599 521 q 630 496 630 521 l 642 496 q 661 527 644 527 q 655 545 655 539 l 649 545 q 599 527 633 527 m 680 539 l 673 514 l 673 503 l 680 503 l 686 533 l 686 539 l 680 539 m 1002 514 l 996 503 q 1002 496 1002 503 q 996 490 996 496 l 1008 490 q 1039 508 1008 508 l 1039 514 l 1002 514 m 1088 521 l 1082 508 l 1082 465 q 1120 378 1105 378 l 1132 397 q 1120 410 1120 397 l 1132 410 q 1120 421 1132 421 l 1114 421 l 1120 410 l 1114 410 q 1101 421 1101 410 l 1120 446 q 1114 465 1114 458 l 1126 471 l 1138 465 l 1138 471 q 1088 521 1126 521 m 797 503 q 915 378 797 414 l 915 434 q 928 421 928 432 l 928 378 l 977 378 q 1045 446 1045 378 q 1051 503 1051 469 l 1045 503 q 952 446 979 446 l 952 452 l 940 446 l 921 459 q 909 446 921 446 q 890 465 909 456 l 871 452 q 847 477 847 469 l 835 471 l 828 484 q 835 490 835 484 q 816 503 816 490 q 822 508 822 503 l 810 508 l 797 503 m 642 490 l 636 477 l 636 471 l 642 471 q 655 484 655 471 l 642 490 m 605 484 l 605 428 q 636 440 621 440 l 636 459 l 630 471 l 618 465 l 611 465 l 611 484 l 605 484 m 958 484 l 958 477 q 970 465 960 465 l 970 471 q 958 484 970 484 m 655 465 l 649 452 l 667 452 q 655 465 667 465 m 624 428 q 605 410 624 410 q 618 397 607 397 l 636 421 l 624 428 m 704 428 l 704 410 q 723 404 711 410 l 723 428 l 704 428 m 680 404 l 680 397 q 704 385 689 397 l 704 391 q 698 410 698 403 q 680 404 686 404 m 1126 372 l 1126 366 q 1138 378 1138 366 l 1138 385 q 1126 372 1126 382 m 686 378 l 686 372 q 742 335 715 372 l 735 335 q 729 341 729 335 l 717 335 l 686 341 l 667 341 l 667 335 l 772 317 l 772 323 q 723 378 762 355 l 723 372 q 754 341 731 372 l 754 335 q 692 378 707 378 l 686 378 m 661 372 l 661 366 q 704 347 673 366 l 711 347 l 711 353 q 667 372 698 353 l 661 372 m 636 323 l 642 323 q 655 335 655 323 l 649 335 q 636 323 636 333 m 29 131 q 54 56 45 131 l 60 56 q 91 131 73 131 q 122 62 105 131 l 129 62 q 153 131 133 131 l 172 131 q 197 62 182 131 l 203 62 q 228 131 212 131 l 234 131 q 258 62 250 131 l 264 62 q 290 131 277 131 l 308 131 q 332 62 327 131 q 363 131 340 62 l 370 131 q 401 62 387 131 l 408 62 q 432 131 414 131 l 438 131 l 438 118 q 401 19 422 19 q 376 87 385 19 l 363 87 q 339 19 355 19 q 302 112 321 19 l 296 112 q 264 19 281 19 q 234 94 244 19 l 228 94 q 197 19 215 19 q 165 106 178 19 q 129 19 157 106 l 122 19 q 91 87 109 19 l 85 87 q 60 19 76 19 l 54 19 q 17 125 42 19 l 29 131 m 488 131 l 556 131 q 568 118 568 129 q 531 106 568 106 l 531 32 q 518 19 531 19 q 507 32 507 19 l 507 106 q 475 118 475 106 q 488 131 477 131 m 599 131 q 655 25 615 131 l 642 19 q 624 50 625 19 l 581 50 q 562 19 576 19 l 549 25 q 599 131 588 131 m 655 131 l 810 131 q 822 118 822 129 q 791 106 822 106 l 791 32 q 779 19 791 19 q 766 32 766 19 l 766 106 q 735 112 735 106 q 698 106 726 106 l 698 32 q 686 19 698 19 q 673 32 673 19 l 673 106 q 642 118 642 106 q 655 131 644 131 m 878 131 q 934 75 934 122 q 884 13 934 28 q 822 75 822 21 q 878 131 830 131 m 996 131 q 1045 81 1045 131 l 1045 50 q 989 13 1021 13 q 940 68 949 13 l 940 94 q 996 131 962 131 m 1063 131 q 1082 62 1082 106 l 1095 62 q 1120 131 1103 131 l 1126 131 q 1150 56 1139 131 l 1156 56 q 1181 131 1164 131 q 1194 118 1194 129 q 1156 19 1166 19 l 1150 19 q 1126 94 1136 19 l 1120 94 q 1088 19 1103 19 q 1051 125 1069 19 l 1063 131 m 1249 131 q 1305 62 1305 131 q 1249 13 1285 13 q 1194 87 1194 13 q 1249 131 1212 131 m 1367 131 q 1417 81 1417 131 l 1417 50 q 1361 13 1393 13 q 1311 68 1321 13 l 1311 81 q 1367 131 1311 131 m 1522 131 q 1565 94 1565 131 l 1553 87 q 1516 112 1532 112 q 1491 75 1491 106 l 1491 56 q 1510 38 1491 47 l 1528 38 q 1559 62 1556 62 l 1565 50 l 1565 44 q 1516 13 1548 13 q 1466 87 1466 13 q 1522 131 1485 131 m 1627 131 q 1683 75 1683 122 l 1683 68 q 1627 13 1675 13 q 1571 75 1571 27 q 1627 131 1584 131 m 1708 131 l 1714 131 q 1745 50 1728 131 l 1751 50 q 1788 131 1771 131 q 1801 118 1801 129 l 1801 32 q 1788 19 1801 19 q 1782 75 1782 23 l 1775 75 q 1751 19 1763 19 l 1745 19 q 1720 81 1731 19 l 1714 81 q 1702 19 1714 19 l 1695 32 l 1695 118 q 1708 131 1697 131 m 847 87 l 847 56 q 865 38 847 47 l 890 38 q 909 56 899 38 l 909 87 q 884 112 909 97 l 871 112 q 847 87 862 112 m 958 75 q 983 38 971 38 l 1008 38 q 1027 75 1027 44 q 989 112 1021 112 q 958 75 971 111 m 1219 75 l 1219 56 q 1237 38 1219 47 l 1261 38 q 1280 56 1271 38 l 1280 87 q 1255 112 1280 97 q 1219 75 1219 112 m 1330 68 q 1355 38 1342 40 l 1379 38 q 1398 75 1398 44 q 1361 112 1393 112 q 1330 68 1330 102 m 1596 87 l 1596 75 q 1615 38 1600 38 l 1640 38 q 1658 56 1649 38 l 1658 75 q 1627 112 1658 112 q 1596 87 1599 100 m 593 81 l 593 68 l 611 68 l 611 75 q 605 94 605 87 q 593 81 593 92 m 456 38 l 463 25 l 450 19 l 444 32 l 456 38 m 1441 38 q 1454 25 1454 36 l 1441 19 q 1429 32 1429 19 l 1441 38 z "},"'":{"ha":1843,"x_min":17,"x_max":1801,"o":"m 921 1158 q 1033 1065 977 1158 q 1082 991 1082 1031 l 1082 972 q 1051 917 1082 949 l 1051 873 q 1082 855 1082 869 q 1045 793 1045 849 l 1045 738 l 1033 738 l 1033 781 q 989 762 1010 762 l 977 762 q 958 781 968 762 q 964 787 958 787 q 958 831 958 812 l 946 824 l 946 837 q 1002 892 964 881 l 1039 880 l 1039 899 l 996 905 q 952 886 975 905 l 946 899 q 977 924 977 915 l 964 924 l 934 917 l 903 924 q 884 917 896 924 q 841 924 859 924 q 779 917 833 924 q 772 924 779 924 l 766 911 l 779 905 l 772 892 l 772 880 q 828 892 819 892 q 884 831 884 873 l 871 837 l 871 806 l 878 774 l 859 762 l 841 762 q 785 831 785 762 l 779 831 l 779 806 q 853 663 779 663 q 921 638 853 652 q 1027 725 1027 674 l 1039 725 q 1021 675 1039 713 q 1014 558 1014 577 q 1144 484 1144 532 q 1150 452 1150 473 l 1150 347 q 1156 218 1150 298 q 1132 186 1144 189 l 1126 186 l 1126 193 l 1138 211 l 1138 353 q 1114 359 1124 353 q 946 236 1114 236 l 946 248 q 1039 260 1025 260 l 1039 267 q 667 317 736 317 q 649 279 667 284 l 642 279 l 642 286 l 655 311 q 618 323 631 311 l 618 317 q 636 242 618 307 q 587 527 601 242 q 655 645 601 645 q 649 750 649 718 l 649 806 q 779 1134 649 1064 q 921 1158 818 1152 m 1008 924 l 1008 917 l 1039 911 l 1039 924 l 1008 924 m 859 917 q 890 892 888 905 l 890 886 l 884 886 l 853 905 q 785 899 798 899 l 785 911 q 859 917 795 911 m 748 855 l 748 831 q 760 843 760 831 q 748 855 760 855 m 785 855 l 791 824 l 797 824 l 797 855 l 785 855 m 1039 855 q 1033 818 1033 823 l 1033 812 l 1039 812 q 1045 849 1039 817 l 1045 855 l 1039 855 m 835 849 q 847 837 836 837 l 853 849 l 835 849 m 816 812 l 816 800 q 853 774 822 774 l 859 806 l 847 812 q 822 806 836 806 q 816 812 822 812 m 946 818 q 958 793 946 808 l 958 787 q 934 812 949 787 l 946 818 m 996 812 l 989 800 l 977 806 l 970 806 q 989 774 979 774 l 996 774 q 1014 793 1004 774 l 1014 806 q 996 812 1008 806 m 909 725 l 934 725 q 921 713 934 713 l 909 713 l 909 725 m 884 700 l 890 700 l 903 694 q 928 700 913 700 q 946 682 936 700 q 928 663 946 673 l 909 663 q 884 694 900 664 l 884 700 m 828 657 q 822 601 822 614 q 871 564 868 578 l 871 558 q 797 595 822 595 l 797 583 q 871 552 797 569 q 909 521 871 545 q 964 533 956 533 l 958 521 q 983 539 983 524 l 996 539 q 1063 521 1056 521 l 1063 533 q 996 545 1057 533 l 940 545 l 940 558 l 989 558 l 989 564 q 946 632 946 573 l 934 626 l 921 626 q 828 657 886 626 m 667 638 q 717 595 681 607 l 717 601 q 673 638 707 638 l 667 638 m 630 614 l 636 614 q 649 626 649 614 l 649 632 q 630 614 640 632 m 928 595 l 934 595 q 909 558 921 558 q 897 570 897 558 l 897 576 l 909 570 q 928 595 918 595 m 692 558 l 698 527 l 692 496 l 711 484 l 723 484 l 717 514 l 717 539 l 729 539 l 723 583 l 692 558 m 605 576 l 605 545 l 611 545 l 611 576 l 605 576 m 797 552 l 797 545 l 816 545 l 816 539 l 810 527 l 828 527 l 822 539 q 828 545 828 539 q 810 552 822 545 l 797 552 m 847 552 l 847 545 q 871 533 857 545 l 871 539 l 853 552 l 847 552 m 599 527 l 599 521 q 630 496 630 521 l 642 496 q 661 527 644 527 q 655 545 655 539 l 649 545 q 599 527 633 527 m 680 539 l 673 514 l 673 503 l 680 503 l 686 533 l 686 539 l 680 539 m 1002 514 l 996 503 q 1002 496 1002 503 q 996 490 996 496 l 1008 490 q 1039 508 1008 508 l 1039 514 l 1002 514 m 1088 521 l 1082 508 l 1082 465 q 1120 378 1105 378 l 1132 397 q 1120 410 1120 397 l 1132 410 q 1120 421 1132 421 l 1114 421 l 1120 410 l 1114 410 q 1101 421 1101 410 l 1120 446 q 1114 465 1114 458 l 1126 471 l 1138 465 l 1138 471 q 1088 521 1126 521 m 797 503 q 915 378 797 414 l 915 434 q 928 421 928 432 l 928 378 l 977 378 q 1045 446 1045 378 q 1051 503 1051 469 l 1045 503 q 952 446 979 446 l 952 452 l 940 446 l 921 459 q 909 446 921 446 q 890 465 909 456 l 871 452 q 847 477 847 469 l 835 471 l 828 484 q 835 490 835 484 q 816 503 816 490 q 822 508 822 503 l 810 508 l 797 503 m 642 490 l 636 477 l 636 471 l 642 471 q 655 484 655 471 l 642 490 m 605 484 l 605 428 q 636 440 621 440 l 636 459 l 630 471 l 618 465 l 611 465 l 611 484 l 605 484 m 958 484 l 958 477 q 970 465 960 465 l 970 471 q 958 484 970 484 m 655 465 l 649 452 l 667 452 q 655 465 667 465 m 624 428 q 605 410 624 410 q 618 397 607 397 l 636 421 l 624 428 m 704 428 l 704 410 q 723 404 711 410 l 723 428 l 704 428 m 680 404 l 680 397 q 704 385 689 397 l 704 391 q 698 410 698 403 q 680 404 686 404 m 1126 372 l 1126 366 q 1138 378 1138 366 l 1138 385 q 1126 372 1126 382 m 686 378 l 686 372 q 742 335 715 372 l 735 335 q 729 341 729 335 l 717 335 l 686 341 l 667 341 l 667 335 l 772 317 l 772 323 q 723 378 762 355 l 723 372 q 754 341 731 372 l 754 335 q 692 378 707 378 l 686 378 m 661 372 l 661 366 q 704 347 673 366 l 711 347 l 711 353 q 667 372 698 353 l 661 372 m 636 323 l 642 323 q 655 335 655 323 l 649 335 q 636 323 636 333 m 29 131 q 54 56 45 131 l 60 56 q 91 131 73 131 q 122 62 105 131 l 129 62 q 153 131 133 131 l 172 131 q 197 62 182 131 l 203 62 q 228 131 212 131 l 234 131 q 258 62 250 131 l 264 62 q 290 131 277 131 l 308 131 q 332 62 327 131 q 363 131 340 62 l 370 131 q 401 62 387 131 l 408 62 q 432 131 414 131 l 438 131 l 438 118 q 401 19 422 19 q 376 87 385 19 l 363 87 q 339 19 355 19 q 302 112 321 19 l 296 112 q 264 19 281 19 q 234 94 244 19 l 228 94 q 197 19 215 19 q 165 106 178 19 q 129 19 157 106 l 122 19 q 91 87 109 19 l 85 87 q 60 19 76 19 l 54 19 q 17 125 42 19 l 29 131 m 488 131 l 556 131 q 568 118 568 129 q 531 106 568 106 l 531 32 q 518 19 531 19 q 507 32 507 19 l 507 106 q 475 118 475 106 q 488 131 477 131 m 599 131 q 655 25 615 131 l 642 19 q 624 50 625 19 l 581 50 q 562 19 576 19 l 549 25 q 599 131 588 131 m 655 131 l 810 131 q 822 118 822 129 q 791 106 822 106 l 791 32 q 779 19 791 19 q 766 32 766 19 l 766 106 q 735 112 735 106 q 698 106 726 106 l 698 32 q 686 19 698 19 q 673 32 673 19 l 673 106 q 642 118 642 106 q 655 131 644 131 m 878 131 q 934 75 934 122 q 884 13 934 28 q 822 75 822 21 q 878 131 830 131 m 996 131 q 1045 81 1045 131 l 1045 50 q 989 13 1021 13 q 940 68 949 13 l 940 94 q 996 131 962 131 m 1063 131 q 1082 62 1082 106 l 1095 62 q 1120 131 1103 131 l 1126 131 q 1150 56 1139 131 l 1156 56 q 1181 131 1164 131 q 1194 118 1194 129 q 1156 19 1166 19 l 1150 19 q 1126 94 1136 19 l 1120 94 q 1088 19 1103 19 q 1051 125 1069 19 l 1063 131 m 1249 131 q 1305 62 1305 131 q 1249 13 1285 13 q 1194 87 1194 13 q 1249 131 1212 131 m 1367 131 q 1417 81 1417 131 l 1417 50 q 1361 13 1393 13 q 1311 68 1321 13 l 1311 81 q 1367 131 1311 131 m 1522 131 q 1565 94 1565 131 l 1553 87 q 1516 112 1532 112 q 1491 75 1491 106 l 1491 56 q 1510 38 1491 47 l 1528 38 q 1559 62 1556 62 l 1565 50 l 1565 44 q 1516 13 1548 13 q 1466 87 1466 13 q 1522 131 1485 131 m 1627 131 q 1683 75 1683 122 l 1683 68 q 1627 13 1675 13 q 1571 75 1571 27 q 1627 131 1584 131 m 1708 131 l 1714 131 q 1745 50 1728 131 l 1751 50 q 1788 131 1771 131 q 1801 118 1801 129 l 1801 32 q 1788 19 1801 19 q 1782 75 1782 23 l 1775 75 q 1751 19 1763 19 l 1745 19 q 1720 81 1731 19 l 1714 81 q 1702 19 1714 19 l 1695 32 l 1695 118 q 1708 131 1697 131 m 847 87 l 847 56 q 865 38 847 47 l 890 38 q 909 56 899 38 l 909 87 q 884 112 909 97 l 871 112 q 847 87 862 112 m 958 75 q 983 38 971 38 l 1008 38 q 1027 75 1027 44 q 989 112 1021 112 q 958 75 971 111 m 1219 75 l 1219 56 q 1237 38 1219 47 l 1261 38 q 1280 56 1271 38 l 1280 87 q 1255 112 1280 97 q 1219 75 1219 112 m 1330 68 q 1355 38 1342 40 l 1379 38 q 1398 75 1398 44 q 1361 112 1393 112 q 1330 68 1330 102 m 1596 87 l 1596 75 q 1615 38 1600 38 l 1640 38 q 1658 56 1649 38 l 1658 75 q 1627 112 1658 112 q 1596 87 1599 100 m 593 81 l 593 68 l 611 68 l 611 75 q 605 94 605 87 q 593 81 593 92 m 456 38 l 463 25 l 450 19 l 444 32 l 456 38 m 1441 38 q 1454 25 1454 36 l 1441 19 q 1429 32 1429 19 l 1441 38 z "},"(":{"ha":1843,"x_min":17,"x_max":1801,"o":"m 921 1158 q 1033 1065 977 1158 q 1082 991 1082 1031 l 1082 972 q 1051 917 1082 949 l 1051 873 q 1082 855 1082 869 q 1045 793 1045 849 l 1045 738 l 1033 738 l 1033 781 q 989 762 1010 762 l 977 762 q 958 781 968 762 q 964 787 958 787 q 958 831 958 812 l 946 824 l 946 837 q 1002 892 964 881 l 1039 880 l 1039 899 l 996 905 q 952 886 975 905 l 946 899 q 977 924 977 915 l 964 924 l 934 917 l 903 924 q 884 917 896 924 q 841 924 859 924 q 779 917 833 924 q 772 924 779 924 l 766 911 l 779 905 l 772 892 l 772 880 q 828 892 819 892 q 884 831 884 873 l 871 837 l 871 806 l 878 774 l 859 762 l 841 762 q 785 831 785 762 l 779 831 l 779 806 q 853 663 779 663 q 921 638 853 652 q 1027 725 1027 674 l 1039 725 q 1021 675 1039 713 q 1014 558 1014 577 q 1144 484 1144 532 q 1150 452 1150 473 l 1150 347 q 1156 218 1150 298 q 1132 186 1144 189 l 1126 186 l 1126 193 l 1138 211 l 1138 353 q 1114 359 1124 353 q 946 236 1114 236 l 946 248 q 1039 260 1025 260 l 1039 267 q 667 317 736 317 q 649 279 667 284 l 642 279 l 642 286 l 655 311 q 618 323 631 311 l 618 317 q 636 242 618 307 q 587 527 601 242 q 655 645 601 645 q 649 750 649 718 l 649 806 q 779 1134 649 1064 q 921 1158 818 1152 m 1008 924 l 1008 917 l 1039 911 l 1039 924 l 1008 924 m 859 917 q 890 892 888 905 l 890 886 l 884 886 l 853 905 q 785 899 798 899 l 785 911 q 859 917 795 911 m 748 855 l 748 831 q 760 843 760 831 q 748 855 760 855 m 785 855 l 791 824 l 797 824 l 797 855 l 785 855 m 1039 855 q 1033 818 1033 823 l 1033 812 l 1039 812 q 1045 849 1039 817 l 1045 855 l 1039 855 m 835 849 q 847 837 836 837 l 853 849 l 835 849 m 816 812 l 816 800 q 853 774 822 774 l 859 806 l 847 812 q 822 806 836 806 q 816 812 822 812 m 946 818 q 958 793 946 808 l 958 787 q 934 812 949 787 l 946 818 m 996 812 l 989 800 l 977 806 l 970 806 q 989 774 979 774 l 996 774 q 1014 793 1004 774 l 1014 806 q 996 812 1008 806 m 909 725 l 934 725 q 921 713 934 713 l 909 713 l 909 725 m 884 700 l 890 700 l 903 694 q 928 700 913 700 q 946 682 936 700 q 928 663 946 673 l 909 663 q 884 694 900 664 l 884 700 m 828 657 q 822 601 822 614 q 871 564 868 578 l 871 558 q 797 595 822 595 l 797 583 q 871 552 797 569 q 909 521 871 545 q 964 533 956 533 l 958 521 q 983 539 983 524 l 996 539 q 1063 521 1056 521 l 1063 533 q 996 545 1057 533 l 940 545 l 940 558 l 989 558 l 989 564 q 946 632 946 573 l 934 626 l 921 626 q 828 657 886 626 m 667 638 q 717 595 681 607 l 717 601 q 673 638 707 638 l 667 638 m 630 614 l 636 614 q 649 626 649 614 l 649 632 q 630 614 640 632 m 928 595 l 934 595 q 909 558 921 558 q 897 570 897 558 l 897 576 l 909 570 q 928 595 918 595 m 692 558 l 698 527 l 692 496 l 711 484 l 723 484 l 717 514 l 717 539 l 729 539 l 723 583 l 692 558 m 605 576 l 605 545 l 611 545 l 611 576 l 605 576 m 797 552 l 797 545 l 816 545 l 816 539 l 810 527 l 828 527 l 822 539 q 828 545 828 539 q 810 552 822 545 l 797 552 m 847 552 l 847 545 q 871 533 857 545 l 871 539 l 853 552 l 847 552 m 599 527 l 599 521 q 630 496 630 521 l 642 496 q 661 527 644 527 q 655 545 655 539 l 649 545 q 599 527 633 527 m 680 539 l 673 514 l 673 503 l 680 503 l 686 533 l 686 539 l 680 539 m 1002 514 l 996 503 q 1002 496 1002 503 q 996 490 996 496 l 1008 490 q 1039 508 1008 508 l 1039 514 l 1002 514 m 1088 521 l 1082 508 l 1082 465 q 1120 378 1105 378 l 1132 397 q 1120 410 1120 397 l 1132 410 q 1120 421 1132 421 l 1114 421 l 1120 410 l 1114 410 q 1101 421 1101 410 l 1120 446 q 1114 465 1114 458 l 1126 471 l 1138 465 l 1138 471 q 1088 521 1126 521 m 797 503 q 915 378 797 414 l 915 434 q 928 421 928 432 l 928 378 l 977 378 q 1045 446 1045 378 q 1051 503 1051 469 l 1045 503 q 952 446 979 446 l 952 452 l 940 446 l 921 459 q 909 446 921 446 q 890 465 909 456 l 871 452 q 847 477 847 469 l 835 471 l 828 484 q 835 490 835 484 q 816 503 816 490 q 822 508 822 503 l 810 508 l 797 503 m 642 490 l 636 477 l 636 471 l 642 471 q 655 484 655 471 l 642 490 m 605 484 l 605 428 q 636 440 621 440 l 636 459 l 630 471 l 618 465 l 611 465 l 611 484 l 605 484 m 958 484 l 958 477 q 970 465 960 465 l 970 471 q 958 484 970 484 m 655 465 l 649 452 l 667 452 q 655 465 667 465 m 624 428 q 605 410 624 410 q 618 397 607 397 l 636 421 l 624 428 m 704 428 l 704 410 q 723 404 711 410 l 723 428 l 704 428 m 680 404 l 680 397 q 704 385 689 397 l 704 391 q 698 410 698 403 q 680 404 686 404 m 1126 372 l 1126 366 q 1138 378 1138 366 l 1138 385 q 1126 372 1126 382 m 686 378 l 686 372 q 742 335 715 372 l 735 335 q 729 341 729 335 l 717 335 l 686 341 l 667 341 l 667 335 l 772 317 l 772 323 q 723 378 762 355 l 723 372 q 754 341 731 372 l 754 335 q 692 378 707 378 l 686 378 m 661 372 l 661 366 q 704 347 673 366 l 711 347 l 711 353 q 667 372 698 353 l 661 372 m 636 323 l 642 323 q 655 335 655 323 l 649 335 q 636 323 636 333 m 29 131 q 54 56 45 131 l 60 56 q 91 131 73 131 q 122 62 105 131 l 129 62 q 153 131 133 131 l 172 131 q 197 62 182 131 l 203 62 q 228 131 212 131 l 234 131 q 258 62 250 131 l 264 62 q 290 131 277 131 l 308 131 q 332 62 327 131 q 363 131 340 62 l 370 131 q 401 62 387 131 l 408 62 q 432 131 414 131 l 438 131 l 438 118 q 401 19 422 19 q 376 87 385 19 l 363 87 q 339 19 355 19 q 302 112 321 19 l 296 112 q 264 19 281 19 q 234 94 244 19 l 228 94 q 197 19 215 19 q 165 106 178 19 q 129 19 157 106 l 122 19 q 91 87 109 19 l 85 87 q 60 19 76 19 l 54 19 q 17 125 42 19 l 29 131 m 488 131 l 556 131 q 568 118 568 129 q 531 106 568 106 l 531 32 q 518 19 531 19 q 507 32 507 19 l 507 106 q 475 118 475 106 q 488 131 477 131 m 599 131 q 655 25 615 131 l 642 19 q 624 50 625 19 l 581 50 q 562 19 576 19 l 549 25 q 599 131 588 131 m 655 131 l 810 131 q 822 118 822 129 q 791 106 822 106 l 791 32 q 779 19 791 19 q 766 32 766 19 l 766 106 q 735 112 735 106 q 698 106 726 106 l 698 32 q 686 19 698 19 q 673 32 673 19 l 673 106 q 642 118 642 106 q 655 131 644 131 m 878 131 q 934 75 934 122 q 884 13 934 28 q 822 75 822 21 q 878 131 830 131 m 996 131 q 1045 81 1045 131 l 1045 50 q 989 13 1021 13 q 940 68 949 13 l 940 94 q 996 131 962 131 m 1063 131 q 1082 62 1082 106 l 1095 62 q 1120 131 1103 131 l 1126 131 q 1150 56 1139 131 l 1156 56 q 1181 131 1164 131 q 1194 118 1194 129 q 1156 19 1166 19 l 1150 19 q 1126 94 1136 19 l 1120 94 q 1088 19 1103 19 q 1051 125 1069 19 l 1063 131 m 1249 131 q 1305 62 1305 131 q 1249 13 1285 13 q 1194 87 1194 13 q 1249 131 1212 131 m 1367 131 q 1417 81 1417 131 l 1417 50 q 1361 13 1393 13 q 1311 68 1321 13 l 1311 81 q 1367 131 1311 131 m 1522 131 q 1565 94 1565 131 l 1553 87 q 1516 112 1532 112 q 1491 75 1491 106 l 1491 56 q 1510 38 1491 47 l 1528 38 q 1559 62 1556 62 l 1565 50 l 1565 44 q 1516 13 1548 13 q 1466 87 1466 13 q 1522 131 1485 131 m 1627 131 q 1683 75 1683 122 l 1683 68 q 1627 13 1675 13 q 1571 75 1571 27 q 1627 131 1584 131 m 1708 131 l 1714 131 q 1745 50 1728 131 l 1751 50 q 1788 131 1771 131 q 1801 118 1801 129 l 1801 32 q 1788 19 1801 19 q 1782 75 1782 23 l 1775 75 q 1751 19 1763 19 l 1745 19 q 1720 81 1731 19 l 1714 81 q 1702 19 1714 19 l 1695 32 l 1695 118 q 1708 131 1697 131 m 847 87 l 847 56 q 865 38 847 47 l 890 38 q 909 56 899 38 l 909 87 q 884 112 909 97 l 871 112 q 847 87 862 112 m 958 75 q 983 38 971 38 l 1008 38 q 1027 75 1027 44 q 989 112 1021 112 q 958 75 971 111 m 1219 75 l 1219 56 q 1237 38 1219 47 l 1261 38 q 1280 56 1271 38 l 1280 87 q 1255 112 1280 97 q 1219 75 1219 112 m 1330 68 q 1355 38 1342 40 l 1379 38 q 1398 75 1398 44 q 1361 112 1393 112 q 1330 68 1330 102 m 1596 87 l 1596 75 q 1615 38 1600 38 l 1640 38 q 1658 56 1649 38 l 1658 75 q 1627 112 1658 112 q 1596 87 1599 100 m 593 81 l 593 68 l 611 68 l 611 75 q 605 94 605 87 q 593 81 593 92 m 456 38 l 463 25 l 450 19 l 444 32 l 456 38 m 1441 38 q 1454 25 1454 36 l 1441 19 q 1429 32 1429 19 l 1441 38 z "},")":{"ha":1843,"x_min":17,"x_max":1801,"o":"m 921 1158 q 1033 1065 977 1158 q 1082 991 1082 1031 l 1082 972 q 1051 917 1082 949 l 1051 873 q 1082 855 1082 869 q 1045 793 1045 849 l 1045 738 l 1033 738 l 1033 781 q 989 762 1010 762 l 977 762 q 958 781 968 762 q 964 787 958 787 q 958 831 958 812 l 946 824 l 946 837 q 1002 892 964 881 l 1039 880 l 1039 899 l 996 905 q 952 886 975 905 l 946 899 q 977 924 977 915 l 964 924 l 934 917 l 903 924 q 884 917 896 924 q 841 924 859 924 q 779 917 833 924 q 772 924 779 924 l 766 911 l 779 905 l 772 892 l 772 880 q 828 892 819 892 q 884 831 884 873 l 871 837 l 871 806 l 878 774 l 859 762 l 841 762 q 785 831 785 762 l 779 831 l 779 806 q 853 663 779 663 q 921 638 853 652 q 1027 725 1027 674 l 1039 725 q 1021 675 1039 713 q 1014 558 1014 577 q 1144 484 1144 532 q 1150 452 1150 473 l 1150 347 q 1156 218 1150 298 q 1132 186 1144 189 l 1126 186 l 1126 193 l 1138 211 l 1138 353 q 1114 359 1124 353 q 946 236 1114 236 l 946 248 q 1039 260 1025 260 l 1039 267 q 667 317 736 317 q 649 279 667 284 l 642 279 l 642 286 l 655 311 q 618 323 631 311 l 618 317 q 636 242 618 307 q 587 527 601 242 q 655 645 601 645 q 649 750 649 718 l 649 806 q 779 1134 649 1064 q 921 1158 818 1152 m 1008 924 l 1008 917 l 1039 911 l 1039 924 l 1008 924 m 859 917 q 890 892 888 905 l 890 886 l 884 886 l 853 905 q 785 899 798 899 l 785 911 q 859 917 795 911 m 748 855 l 748 831 q 760 843 760 831 q 748 855 760 855 m 785 855 l 791 824 l 797 824 l 797 855 l 785 855 m 1039 855 q 1033 818 1033 823 l 1033 812 l 1039 812 q 1045 849 1039 817 l 1045 855 l 1039 855 m 835 849 q 847 837 836 837 l 853 849 l 835 849 m 816 812 l 816 800 q 853 774 822 774 l 859 806 l 847 812 q 822 806 836 806 q 816 812 822 812 m 946 818 q 958 793 946 808 l 958 787 q 934 812 949 787 l 946 818 m 996 812 l 989 800 l 977 806 l 970 806 q 989 774 979 774 l 996 774 q 1014 793 1004 774 l 1014 806 q 996 812 1008 806 m 909 725 l 934 725 q 921 713 934 713 l 909 713 l 909 725 m 884 700 l 890 700 l 903 694 q 928 700 913 700 q 946 682 936 700 q 928 663 946 673 l 909 663 q 884 694 900 664 l 884 700 m 828 657 q 822 601 822 614 q 871 564 868 578 l 871 558 q 797 595 822 595 l 797 583 q 871 552 797 569 q 909 521 871 545 q 964 533 956 533 l 958 521 q 983 539 983 524 l 996 539 q 1063 521 1056 521 l 1063 533 q 996 545 1057 533 l 940 545 l 940 558 l 989 558 l 989 564 q 946 632 946 573 l 934 626 l 921 626 q 828 657 886 626 m 667 638 q 717 595 681 607 l 717 601 q 673 638 707 638 l 667 638 m 630 614 l 636 614 q 649 626 649 614 l 649 632 q 630 614 640 632 m 928 595 l 934 595 q 909 558 921 558 q 897 570 897 558 l 897 576 l 909 570 q 928 595 918 595 m 692 558 l 698 527 l 692 496 l 711 484 l 723 484 l 717 514 l 717 539 l 729 539 l 723 583 l 692 558 m 605 576 l 605 545 l 611 545 l 611 576 l 605 576 m 797 552 l 797 545 l 816 545 l 816 539 l 810 527 l 828 527 l 822 539 q 828 545 828 539 q 810 552 822 545 l 797 552 m 847 552 l 847 545 q 871 533 857 545 l 871 539 l 853 552 l 847 552 m 599 527 l 599 521 q 630 496 630 521 l 642 496 q 661 527 644 527 q 655 545 655 539 l 649 545 q 599 527 633 527 m 680 539 l 673 514 l 673 503 l 680 503 l 686 533 l 686 539 l 680 539 m 1002 514 l 996 503 q 1002 496 1002 503 q 996 490 996 496 l 1008 490 q 1039 508 1008 508 l 1039 514 l 1002 514 m 1088 521 l 1082 508 l 1082 465 q 1120 378 1105 378 l 1132 397 q 1120 410 1120 397 l 1132 410 q 1120 421 1132 421 l 1114 421 l 1120 410 l 1114 410 q 1101 421 1101 410 l 1120 446 q 1114 465 1114 458 l 1126 471 l 1138 465 l 1138 471 q 1088 521 1126 521 m 797 503 q 915 378 797 414 l 915 434 q 928 421 928 432 l 928 378 l 977 378 q 1045 446 1045 378 q 1051 503 1051 469 l 1045 503 q 952 446 979 446 l 952 452 l 940 446 l 921 459 q 909 446 921 446 q 890 465 909 456 l 871 452 q 847 477 847 469 l 835 471 l 828 484 q 835 490 835 484 q 816 503 816 490 q 822 508 822 503 l 810 508 l 797 503 m 642 490 l 636 477 l 636 471 l 642 471 q 655 484 655 471 l 642 490 m 605 484 l 605 428 q 636 440 621 440 l 636 459 l 630 471 l 618 465 l 611 465 l 611 484 l 605 484 m 958 484 l 958 477 q 970 465 960 465 l 970 471 q 958 484 970 484 m 655 465 l 649 452 l 667 452 q 655 465 667 465 m 624 428 q 605 410 624 410 q 618 397 607 397 l 636 421 l 624 428 m 704 428 l 704 410 q 723 404 711 410 l 723 428 l 704 428 m 680 404 l 680 397 q 704 385 689 397 l 704 391 q 698 410 698 403 q 680 404 686 404 m 1126 372 l 1126 366 q 1138 378 1138 366 l 1138 385 q 1126 372 1126 382 m 686 378 l 686 372 q 742 335 715 372 l 735 335 q 729 341 729 335 l 717 335 l 686 341 l 667 341 l 667 335 l 772 317 l 772 323 q 723 378 762 355 l 723 372 q 754 341 731 372 l 754 335 q 692 378 707 378 l 686 378 m 661 372 l 661 366 q 704 347 673 366 l 711 347 l 711 353 q 667 372 698 353 l 661 372 m 636 323 l 642 323 q 655 335 655 323 l 649 335 q 636 323 636 333 m 29 131 q 54 56 45 131 l 60 56 q 91 131 73 131 q 122 62 105 131 l 129 62 q 153 131 133 131 l 172 131 q 197 62 182 131 l 203 62 q 228 131 212 131 l 234 131 q 258 62 250 131 l 264 62 q 290 131 277 131 l 308 131 q 332 62 327 131 q 363 131 340 62 l 370 131 q 401 62 387 131 l 408 62 q 432 131 414 131 l 438 131 l 438 118 q 401 19 422 19 q 376 87 385 19 l 363 87 q 339 19 355 19 q 302 112 321 19 l 296 112 q 264 19 281 19 q 234 94 244 19 l 228 94 q 197 19 215 19 q 165 106 178 19 q 129 19 157 106 l 122 19 q 91 87 109 19 l 85 87 q 60 19 76 19 l 54 19 q 17 125 42 19 l 29 131 m 488 131 l 556 131 q 568 118 568 129 q 531 106 568 106 l 531 32 q 518 19 531 19 q 507 32 507 19 l 507 106 q 475 118 475 106 q 488 131 477 131 m 599 131 q 655 25 615 131 l 642 19 q 624 50 625 19 l 581 50 q 562 19 576 19 l 549 25 q 599 131 588 131 m 655 131 l 810 131 q 822 118 822 129 q 791 106 822 106 l 791 32 q 779 19 791 19 q 766 32 766 19 l 766 106 q 735 112 735 106 q 698 106 726 106 l 698 32 q 686 19 698 19 q 673 32 673 19 l 673 106 q 642 118 642 106 q 655 131 644 131 m 878 131 q 934 75 934 122 q 884 13 934 28 q 822 75 822 21 q 878 131 830 131 m 996 131 q 1045 81 1045 131 l 1045 50 q 989 13 1021 13 q 940 68 949 13 l 940 94 q 996 131 962 131 m 1063 131 q 1082 62 1082 106 l 1095 62 q 1120 131 1103 131 l 1126 131 q 1150 56 1139 131 l 1156 56 q 1181 131 1164 131 q 1194 118 1194 129 q 1156 19 1166 19 l 1150 19 q 1126 94 1136 19 l 1120 94 q 1088 19 1103 19 q 1051 125 1069 19 l 1063 131 m 1249 131 q 1305 62 1305 131 q 1249 13 1285 13 q 1194 87 1194 13 q 1249 131 1212 131 m 1367 131 q 1417 81 1417 131 l 1417 50 q 1361 13 1393 13 q 1311 68 1321 13 l 1311 81 q 1367 131 1311 131 m 1522 131 q 1565 94 1565 131 l 1553 87 q 1516 112 1532 112 q 1491 75 1491 106 l 1491 56 q 1510 38 1491 47 l 1528 38 q 1559 62 1556 62 l 1565 50 l 1565 44 q 1516 13 1548 13 q 1466 87 1466 13 q 1522 131 1485 131 m 1627 131 q 1683 75 1683 122 l 1683 68 q 1627 13 1675 13 q 1571 75 1571 27 q 1627 131 1584 131 m 1708 131 l 1714 131 q 1745 50 1728 131 l 1751 50 q 1788 131 1771 131 q 1801 118 1801 129 l 1801 32 q 1788 19 1801 19 q 1782 75 1782 23 l 1775 75 q 1751 19 1763 19 l 1745 19 q 1720 81 1731 19 l 1714 81 q 1702 19 1714 19 l 1695 32 l 1695 118 q 1708 131 1697 131 m 847 87 l 847 56 q 865 38 847 47 l 890 38 q 909 56 899 38 l 909 87 q 884 112 909 97 l 871 112 q 847 87 862 112 m 958 75 q 983 38 971 38 l 1008 38 q 1027 75 1027 44 q 989 112 1021 112 q 958 75 971 111 m 1219 75 l 1219 56 q 1237 38 1219 47 l 1261 38 q 1280 56 1271 38 l 1280 87 q 1255 112 1280 97 q 1219 75 1219 112 m 1330 68 q 1355 38 1342 40 l 1379 38 q 1398 75 1398 44 q 1361 112 1393 112 q 1330 68 1330 102 m 1596 87 l 1596 75 q 1615 38 1600 38 l 1640 38 q 1658 56 1649 38 l 1658 75 q 1627 112 1658 112 q 1596 87 1599 100 m 593 81 l 593 68 l 611 68 l 611 75 q 605 94 605 87 q 593 81 593 92 m 456 38 l 463 25 l 450 19 l 444 32 l 456 38 m 1441 38 q 1454 25 1454 36 l 1441 19 q 1429 32 1429 19 l 1441 38 z "},"*":{"ha":1843,"x_min":17,"x_max":1801,"o":"m 921 1158 q 1033 1065 977 1158 q 1082 991 1082 1031 l 1082 972 q 1051 917 1082 949 l 1051 873 q 1082 855 1082 869 q 1045 793 1045 849 l 1045 738 l 1033 738 l 1033 781 q 989 762 1010 762 l 977 762 q 958 781 968 762 q 964 787 958 787 q 958 831 958 812 l 946 824 l 946 837 q 1002 892 964 881 l 1039 880 l 1039 899 l 996 905 q 952 886 975 905 l 946 899 q 977 924 977 915 l 964 924 l 934 917 l 903 924 q 884 917 896 924 q 841 924 859 924 q 779 917 833 924 q 772 924 779 924 l 766 911 l 779 905 l 772 892 l 772 880 q 828 892 819 892 q 884 831 884 873 l 871 837 l 871 806 l 878 774 l 859 762 l 841 762 q 785 831 785 762 l 779 831 l 779 806 q 853 663 779 663 q 921 638 853 652 q 1027 725 1027 674 l 1039 725 q 1021 675 1039 713 q 1014 558 1014 577 q 1144 484 1144 532 q 1150 452 1150 473 l 1150 347 q 1156 218 1150 298 q 1132 186 1144 189 l 1126 186 l 1126 193 l 1138 211 l 1138 353 q 1114 359 1124 353 q 946 236 1114 236 l 946 248 q 1039 260 1025 260 l 1039 267 q 667 317 736 317 q 649 279 667 284 l 642 279 l 642 286 l 655 311 q 618 323 631 311 l 618 317 q 636 242 618 307 q 587 527 601 242 q 655 645 601 645 q 649 750 649 718 l 649 806 q 779 1134 649 1064 q 921 1158 818 1152 m 1008 924 l 1008 917 l 1039 911 l 1039 924 l 1008 924 m 859 917 q 890 892 888 905 l 890 886 l 884 886 l 853 905 q 785 899 798 899 l 785 911 q 859 917 795 911 m 748 855 l 748 831 q 760 843 760 831 q 748 855 760 855 m 785 855 l 791 824 l 797 824 l 797 855 l 785 855 m 1039 855 q 1033 818 1033 823 l 1033 812 l 1039 812 q 1045 849 1039 817 l 1045 855 l 1039 855 m 835 849 q 847 837 836 837 l 853 849 l 835 849 m 816 812 l 816 800 q 853 774 822 774 l 859 806 l 847 812 q 822 806 836 806 q 816 812 822 812 m 946 818 q 958 793 946 808 l 958 787 q 934 812 949 787 l 946 818 m 996 812 l 989 800 l 977 806 l 970 806 q 989 774 979 774 l 996 774 q 1014 793 1004 774 l 1014 806 q 996 812 1008 806 m 909 725 l 934 725 q 921 713 934 713 l 909 713 l 909 725 m 884 700 l 890 700 l 903 694 q 928 700 913 700 q 946 682 936 700 q 928 663 946 673 l 909 663 q 884 694 900 664 l 884 700 m 828 657 q 822 601 822 614 q 871 564 868 578 l 871 558 q 797 595 822 595 l 797 583 q 871 552 797 569 q 909 521 871 545 q 964 533 956 533 l 958 521 q 983 539 983 524 l 996 539 q 1063 521 1056 521 l 1063 533 q 996 545 1057 533 l 940 545 l 940 558 l 989 558 l 989 564 q 946 632 946 573 l 934 626 l 921 626 q 828 657 886 626 m 667 638 q 717 595 681 607 l 717 601 q 673 638 707 638 l 667 638 m 630 614 l 636 614 q 649 626 649 614 l 649 632 q 630 614 640 632 m 928 595 l 934 595 q 909 558 921 558 q 897 570 897 558 l 897 576 l 909 570 q 928 595 918 595 m 692 558 l 698 527 l 692 496 l 711 484 l 723 484 l 717 514 l 717 539 l 729 539 l 723 583 l 692 558 m 605 576 l 605 545 l 611 545 l 611 576 l 605 576 m 797 552 l 797 545 l 816 545 l 816 539 l 810 527 l 828 527 l 822 539 q 828 545 828 539 q 810 552 822 545 l 797 552 m 847 552 l 847 545 q 871 533 857 545 l 871 539 l 853 552 l 847 552 m 599 527 l 599 521 q 630 496 630 521 l 642 496 q 661 527 644 527 q 655 545 655 539 l 649 545 q 599 527 633 527 m 680 539 l 673 514 l 673 503 l 680 503 l 686 533 l 686 539 l 680 539 m 1002 514 l 996 503 q 1002 496 1002 503 q 996 490 996 496 l 1008 490 q 1039 508 1008 508 l 1039 514 l 1002 514 m 1088 521 l 1082 508 l 1082 465 q 1120 378 1105 378 l 1132 397 q 1120 410 1120 397 l 1132 410 q 1120 421 1132 421 l 1114 421 l 1120 410 l 1114 410 q 1101 421 1101 410 l 1120 446 q 1114 465 1114 458 l 1126 471 l 1138 465 l 1138 471 q 1088 521 1126 521 m 797 503 q 915 378 797 414 l 915 434 q 928 421 928 432 l 928 378 l 977 378 q 1045 446 1045 378 q 1051 503 1051 469 l 1045 503 q 952 446 979 446 l 952 452 l 940 446 l 921 459 q 909 446 921 446 q 890 465 909 456 l 871 452 q 847 477 847 469 l 835 471 l 828 484 q 835 490 835 484 q 816 503 816 490 q 822 508 822 503 l 810 508 l 797 503 m 642 490 l 636 477 l 636 471 l 642 471 q 655 484 655 471 l 642 490 m 605 484 l 605 428 q 636 440 621 440 l 636 459 l 630 471 l 618 465 l 611 465 l 611 484 l 605 484 m 958 484 l 958 477 q 970 465 960 465 l 970 471 q 958 484 970 484 m 655 465 l 649 452 l 667 452 q 655 465 667 465 m 624 428 q 605 410 624 410 q 618 397 607 397 l 636 421 l 624 428 m 704 428 l 704 410 q 723 404 711 410 l 723 428 l 704 428 m 680 404 l 680 397 q 704 385 689 397 l 704 391 q 698 410 698 403 q 680 404 686 404 m 1126 372 l 1126 366 q 1138 378 1138 366 l 1138 385 q 1126 372 1126 382 m 686 378 l 686 372 q 742 335 715 372 l 735 335 q 729 341 729 335 l 717 335 l 686 341 l 667 341 l 667 335 l 772 317 l 772 323 q 723 378 762 355 l 723 372 q 754 341 731 372 l 754 335 q 692 378 707 378 l 686 378 m 661 372 l 661 366 q 704 347 673 366 l 711 347 l 711 353 q 667 372 698 353 l 661 372 m 636 323 l 642 323 q 655 335 655 323 l 649 335 q 636 323 636 333 m 29 131 q 54 56 45 131 l 60 56 q 91 131 73 131 q 122 62 105 131 l 129 62 q 153 131 133 131 l 172 131 q 197 62 182 131 l 203 62 q 228 131 212 131 l 234 131 q 258 62 250 131 l 264 62 q 290 131 277 131 l 308 131 q 332 62 327 131 q 363 131 340 62 l 370 131 q 401 62 387 131 l 408 62 q 432 131 414 131 l 438 131 l 438 118 q 401 19 422 19 q 376 87 385 19 l 363 87 q 339 19 355 19 q 302 112 321 19 l 296 112 q 264 19 281 19 q 234 94 244 19 l 228 94 q 197 19 215 19 q 165 106 178 19 q 129 19 157 106 l 122 19 q 91 87 109 19 l 85 87 q 60 19 76 19 l 54 19 q 17 125 42 19 l 29 131 m 488 131 l 556 131 q 568 118 568 129 q 531 106 568 106 l 531 32 q 518 19 531 19 q 507 32 507 19 l 507 106 q 475 118 475 106 q 488 131 477 131 m 599 131 q 655 25 615 131 l 642 19 q 624 50 625 19 l 581 50 q 562 19 576 19 l 549 25 q 599 131 588 131 m 655 131 l 810 131 q 822 118 822 129 q 791 106 822 106 l 791 32 q 779 19 791 19 q 766 32 766 19 l 766 106 q 735 112 735 106 q 698 106 726 106 l 698 32 q 686 19 698 19 q 673 32 673 19 l 673 106 q 642 118 642 106 q 655 131 644 131 m 878 131 q 934 75 934 122 q 884 13 934 28 q 822 75 822 21 q 878 131 830 131 m 996 131 q 1045 81 1045 131 l 1045 50 q 989 13 1021 13 q 940 68 949 13 l 940 94 q 996 131 962 131 m 1063 131 q 1082 62 1082 106 l 1095 62 q 1120 131 1103 131 l 1126 131 q 1150 56 1139 131 l 1156 56 q 1181 131 1164 131 q 1194 118 1194 129 q 1156 19 1166 19 l 1150 19 q 1126 94 1136 19 l 1120 94 q 1088 19 1103 19 q 1051 125 1069 19 l 1063 131 m 1249 131 q 1305 62 1305 131 q 1249 13 1285 13 q 1194 87 1194 13 q 1249 131 1212 131 m 1367 131 q 1417 81 1417 131 l 1417 50 q 1361 13 1393 13 q 1311 68 1321 13 l 1311 81 q 1367 131 1311 131 m 1522 131 q 1565 94 1565 131 l 1553 87 q 1516 112 1532 112 q 1491 75 1491 106 l 1491 56 q 1510 38 1491 47 l 1528 38 q 1559 62 1556 62 l 1565 50 l 1565 44 q 1516 13 1548 13 q 1466 87 1466 13 q 1522 131 1485 131 m 1627 131 q 1683 75 1683 122 l 1683 68 q 1627 13 1675 13 q 1571 75 1571 27 q 1627 131 1584 131 m 1708 131 l 1714 131 q 1745 50 1728 131 l 1751 50 q 1788 131 1771 131 q 1801 118 1801 129 l 1801 32 q 1788 19 1801 19 q 1782 75 1782 23 l 1775 75 q 1751 19 1763 19 l 1745 19 q 1720 81 1731 19 l 1714 81 q 1702 19 1714 19 l 1695 32 l 1695 118 q 1708 131 1697 131 m 847 87 l 847 56 q 865 38 847 47 l 890 38 q 909 56 899 38 l 909 87 q 884 112 909 97 l 871 112 q 847 87 862 112 m 958 75 q 983 38 971 38 l 1008 38 q 1027 75 1027 44 q 989 112 1021 112 q 958 75 971 111 m 1219 75 l 1219 56 q 1237 38 1219 47 l 1261 38 q 1280 56 1271 38 l 1280 87 q 1255 112 1280 97 q 1219 75 1219 112 m 1330 68 q 1355 38 1342 40 l 1379 38 q 1398 75 1398 44 q 1361 112 1393 112 q 1330 68 1330 102 m 1596 87 l 1596 75 q 1615 38 1600 38 l 1640 38 q 1658 56 1649 38 l 1658 75 q 1627 112 1658 112 q 1596 87 1599 100 m 593 81 l 593 68 l 611 68 l 611 75 q 605 94 605 87 q 593 81 593 92 m 456 38 l 463 25 l 450 19 l 444 32 l 456 38 m 1441 38 q 1454 25 1454 36 l 1441 19 q 1429 32 1429 19 l 1441 38 z "},"+":{"ha":1843,"x_min":17,"x_max":1801,"o":"m 921 1158 q 1033 1065 977 1158 q 1082 991 1082 1031 l 1082 972 q 1051 917 1082 949 l 1051 873 q 1082 855 1082 869 q 1045 793 1045 849 l 1045 738 l 1033 738 l 1033 781 q 989 762 1010 762 l 977 762 q 958 781 968 762 q 964 787 958 787 q 958 831 958 812 l 946 824 l 946 837 q 1002 892 964 881 l 1039 880 l 1039 899 l 996 905 q 952 886 975 905 l 946 899 q 977 924 977 915 l 964 924 l 934 917 l 903 924 q 884 917 896 924 q 841 924 859 924 q 779 917 833 924 q 772 924 779 924 l 766 911 l 779 905 l 772 892 l 772 880 q 828 892 819 892 q 884 831 884 873 l 871 837 l 871 806 l 878 774 l 859 762 l 841 762 q 785 831 785 762 l 779 831 l 779 806 q 853 663 779 663 q 921 638 853 652 q 1027 725 1027 674 l 1039 725 q 1021 675 1039 713 q 1014 558 1014 577 q 1144 484 1144 532 q 1150 452 1150 473 l 1150 347 q 1156 218 1150 298 q 1132 186 1144 189 l 1126 186 l 1126 193 l 1138 211 l 1138 353 q 1114 359 1124 353 q 946 236 1114 236 l 946 248 q 1039 260 1025 260 l 1039 267 q 667 317 736 317 q 649 279 667 284 l 642 279 l 642 286 l 655 311 q 618 323 631 311 l 618 317 q 636 242 618 307 q 587 527 601 242 q 655 645 601 645 q 649 750 649 718 l 649 806 q 779 1134 649 1064 q 921 1158 818 1152 m 1008 924 l 1008 917 l 1039 911 l 1039 924 l 1008 924 m 859 917 q 890 892 888 905 l 890 886 l 884 886 l 853 905 q 785 899 798 899 l 785 911 q 859 917 795 911 m 748 855 l 748 831 q 760 843 760 831 q 748 855 760 855 m 785 855 l 791 824 l 797 824 l 797 855 l 785 855 m 1039 855 q 1033 818 1033 823 l 1033 812 l 1039 812 q 1045 849 1039 817 l 1045 855 l 1039 855 m 835 849 q 847 837 836 837 l 853 849 l 835 849 m 816 812 l 816 800 q 853 774 822 774 l 859 806 l 847 812 q 822 806 836 806 q 816 812 822 812 m 946 818 q 958 793 946 808 l 958 787 q 934 812 949 787 l 946 818 m 996 812 l 989 800 l 977 806 l 970 806 q 989 774 979 774 l 996 774 q 1014 793 1004 774 l 1014 806 q 996 812 1008 806 m 909 725 l 934 725 q 921 713 934 713 l 909 713 l 909 725 m 884 700 l 890 700 l 903 694 q 928 700 913 700 q 946 682 936 700 q 928 663 946 673 l 909 663 q 884 694 900 664 l 884 700 m 828 657 q 822 601 822 614 q 871 564 868 578 l 871 558 q 797 595 822 595 l 797 583 q 871 552 797 569 q 909 521 871 545 q 964 533 956 533 l 958 521 q 983 539 983 524 l 996 539 q 1063 521 1056 521 l 1063 533 q 996 545 1057 533 l 940 545 l 940 558 l 989 558 l 989 564 q 946 632 946 573 l 934 626 l 921 626 q 828 657 886 626 m 667 638 q 717 595 681 607 l 717 601 q 673 638 707 638 l 667 638 m 630 614 l 636 614 q 649 626 649 614 l 649 632 q 630 614 640 632 m 928 595 l 934 595 q 909 558 921 558 q 897 570 897 558 l 897 576 l 909 570 q 928 595 918 595 m 692 558 l 698 527 l 692 496 l 711 484 l 723 484 l 717 514 l 717 539 l 729 539 l 723 583 l 692 558 m 605 576 l 605 545 l 611 545 l 611 576 l 605 576 m 797 552 l 797 545 l 816 545 l 816 539 l 810 527 l 828 527 l 822 539 q 828 545 828 539 q 810 552 822 545 l 797 552 m 847 552 l 847 545 q 871 533 857 545 l 871 539 l 853 552 l 847 552 m 599 527 l 599 521 q 630 496 630 521 l 642 496 q 661 527 644 527 q 655 545 655 539 l 649 545 q 599 527 633 527 m 680 539 l 673 514 l 673 503 l 680 503 l 686 533 l 686 539 l 680 539 m 1002 514 l 996 503 q 1002 496 1002 503 q 996 490 996 496 l 1008 490 q 1039 508 1008 508 l 1039 514 l 1002 514 m 1088 521 l 1082 508 l 1082 465 q 1120 378 1105 378 l 1132 397 q 1120 410 1120 397 l 1132 410 q 1120 421 1132 421 l 1114 421 l 1120 410 l 1114 410 q 1101 421 1101 410 l 1120 446 q 1114 465 1114 458 l 1126 471 l 1138 465 l 1138 471 q 1088 521 1126 521 m 797 503 q 915 378 797 414 l 915 434 q 928 421 928 432 l 928 378 l 977 378 q 1045 446 1045 378 q 1051 503 1051 469 l 1045 503 q 952 446 979 446 l 952 452 l 940 446 l 921 459 q 909 446 921 446 q 890 465 909 456 l 871 452 q 847 477 847 469 l 835 471 l 828 484 q 835 490 835 484 q 816 503 816 490 q 822 508 822 503 l 810 508 l 797 503 m 642 490 l 636 477 l 636 471 l 642 471 q 655 484 655 471 l 642 490 m 605 484 l 605 428 q 636 440 621 440 l 636 459 l 630 471 l 618 465 l 611 465 l 611 484 l 605 484 m 958 484 l 958 477 q 970 465 960 465 l 970 471 q 958 484 970 484 m 655 465 l 649 452 l 667 452 q 655 465 667 465 m 624 428 q 605 410 624 410 q 618 397 607 397 l 636 421 l 624 428 m 704 428 l 704 410 q 723 404 711 410 l 723 428 l 704 428 m 680 404 l 680 397 q 704 385 689 397 l 704 391 q 698 410 698 403 q 680 404 686 404 m 1126 372 l 1126 366 q 1138 378 1138 366 l 1138 385 q 1126 372 1126 382 m 686 378 l 686 372 q 742 335 715 372 l 735 335 q 729 341 729 335 l 717 335 l 686 341 l 667 341 l 667 335 l 772 317 l 772 323 q 723 378 762 355 l 723 372 q 754 341 731 372 l 754 335 q 692 378 707 378 l 686 378 m 661 372 l 661 366 q 704 347 673 366 l 711 347 l 711 353 q 667 372 698 353 l 661 372 m 636 323 l 642 323 q 655 335 655 323 l 649 335 q 636 323 636 333 m 29 131 q 54 56 45 131 l 60 56 q 91 131 73 131 q 122 62 105 131 l 129 62 q 153 131 133 131 l 172 131 q 197 62 182 131 l 203 62 q 228 131 212 131 l 234 131 q 258 62 250 131 l 264 62 q 290 131 277 131 l 308 131 q 332 62 327 131 q 363 131 340 62 l 370 131 q 401 62 387 131 l 408 62 q 432 131 414 131 l 438 131 l 438 118 q 401 19 422 19 q 376 87 385 19 l 363 87 q 339 19 355 19 q 302 112 321 19 l 296 112 q 264 19 281 19 q 234 94 244 19 l 228 94 q 197 19 215 19 q 165 106 178 19 q 129 19 157 106 l 122 19 q 91 87 109 19 l 85 87 q 60 19 76 19 l 54 19 q 17 125 42 19 l 29 131 m 488 131 l 556 131 q 568 118 568 129 q 531 106 568 106 l 531 32 q 518 19 531 19 q 507 32 507 19 l 507 106 q 475 118 475 106 q 488 131 477 131 m 599 131 q 655 25 615 131 l 642 19 q 624 50 625 19 l 581 50 q 562 19 576 19 l 549 25 q 599 131 588 131 m 655 131 l 810 131 q 822 118 822 129 q 791 106 822 106 l 791 32 q 779 19 791 19 q 766 32 766 19 l 766 106 q 735 112 735 106 q 698 106 726 106 l 698 32 q 686 19 698 19 q 673 32 673 19 l 673 106 q 642 118 642 106 q 655 131 644 131 m 878 131 q 934 75 934 122 q 884 13 934 28 q 822 75 822 21 q 878 131 830 131 m 996 131 q 1045 81 1045 131 l 1045 50 q 989 13 1021 13 q 940 68 949 13 l 940 94 q 996 131 962 131 m 1063 131 q 1082 62 1082 106 l 1095 62 q 1120 131 1103 131 l 1126 131 q 1150 56 1139 131 l 1156 56 q 1181 131 1164 131 q 1194 118 1194 129 q 1156 19 1166 19 l 1150 19 q 1126 94 1136 19 l 1120 94 q 1088 19 1103 19 q 1051 125 1069 19 l 1063 131 m 1249 131 q 1305 62 1305 131 q 1249 13 1285 13 q 1194 87 1194 13 q 1249 131 1212 131 m 1367 131 q 1417 81 1417 131 l 1417 50 q 1361 13 1393 13 q 1311 68 1321 13 l 1311 81 q 1367 131 1311 131 m 1522 131 q 1565 94 1565 131 l 1553 87 q 1516 112 1532 112 q 1491 75 1491 106 l 1491 56 q 1510 38 1491 47 l 1528 38 q 1559 62 1556 62 l 1565 50 l 1565 44 q 1516 13 1548 13 q 1466 87 1466 13 q 1522 131 1485 131 m 1627 131 q 1683 75 1683 122 l 1683 68 q 1627 13 1675 13 q 1571 75 1571 27 q 1627 131 1584 131 m 1708 131 l 1714 131 q 1745 50 1728 131 l 1751 50 q 1788 131 1771 131 q 1801 118 1801 129 l 1801 32 q 1788 19 1801 19 q 1782 75 1782 23 l 1775 75 q 1751 19 1763 19 l 1745 19 q 1720 81 1731 19 l 1714 81 q 1702 19 1714 19 l 1695 32 l 1695 118 q 1708 131 1697 131 m 847 87 l 847 56 q 865 38 847 47 l 890 38 q 909 56 899 38 l 909 87 q 884 112 909 97 l 871 112 q 847 87 862 112 m 958 75 q 983 38 971 38 l 1008 38 q 1027 75 1027 44 q 989 112 1021 112 q 958 75 971 111 m 1219 75 l 1219 56 q 1237 38 1219 47 l 1261 38 q 1280 56 1271 38 l 1280 87 q 1255 112 1280 97 q 1219 75 1219 112 m 1330 68 q 1355 38 1342 40 l 1379 38 q 1398 75 1398 44 q 1361 112 1393 112 q 1330 68 1330 102 m 1596 87 l 1596 75 q 1615 38 1600 38 l 1640 38 q 1658 56 1649 38 l 1658 75 q 1627 112 1658 112 q 1596 87 1599 100 m 593 81 l 593 68 l 611 68 l 611 75 q 605 94 605 87 q 593 81 593 92 m 456 38 l 463 25 l 450 19 l 444 32 l 456 38 m 1441 38 q 1454 25 1454 36 l 1441 19 q 1429 32 1429 19 l 1441 38 z "},",":{"ha":1843,"x_min":17,"x_max":1801,"o":"m 921 1158 q 1033 1065 977 1158 q 1082 991 1082 1031 l 1082 972 q 1051 917 1082 949 l 1051 873 q 1082 855 1082 869 q 1045 793 1045 849 l 1045 738 l 1033 738 l 1033 781 q 989 762 1010 762 l 977 762 q 958 781 968 762 q 964 787 958 787 q 958 831 958 812 l 946 824 l 946 837 q 1002 892 964 881 l 1039 880 l 1039 899 l 996 905 q 952 886 975 905 l 946 899 q 977 924 977 915 l 964 924 l 934 917 l 903 924 q 884 917 896 924 q 841 924 859 924 q 779 917 833 924 q 772 924 779 924 l 766 911 l 779 905 l 772 892 l 772 880 q 828 892 819 892 q 884 831 884 873 l 871 837 l 871 806 l 878 774 l 859 762 l 841 762 q 785 831 785 762 l 779 831 l 779 806 q 853 663 779 663 q 921 638 853 652 q 1027 725 1027 674 l 1039 725 q 1021 675 1039 713 q 1014 558 1014 577 q 1144 484 1144 532 q 1150 452 1150 473 l 1150 347 q 1156 218 1150 298 q 1132 186 1144 189 l 1126 186 l 1126 193 l 1138 211 l 1138 353 q 1114 359 1124 353 q 946 236 1114 236 l 946 248 q 1039 260 1025 260 l 1039 267 q 667 317 736 317 q 649 279 667 284 l 642 279 l 642 286 l 655 311 q 618 323 631 311 l 618 317 q 636 242 618 307 q 587 527 601 242 q 655 645 601 645 q 649 750 649 718 l 649 806 q 779 1134 649 1064 q 921 1158 818 1152 m 1008 924 l 1008 917 l 1039 911 l 1039 924 l 1008 924 m 859 917 q 890 892 888 905 l 890 886 l 884 886 l 853 905 q 785 899 798 899 l 785 911 q 859 917 795 911 m 748 855 l 748 831 q 760 843 760 831 q 748 855 760 855 m 785 855 l 791 824 l 797 824 l 797 855 l 785 855 m 1039 855 q 1033 818 1033 823 l 1033 812 l 1039 812 q 1045 849 1039 817 l 1045 855 l 1039 855 m 835 849 q 847 837 836 837 l 853 849 l 835 849 m 816 812 l 816 800 q 853 774 822 774 l 859 806 l 847 812 q 822 806 836 806 q 816 812 822 812 m 946 818 q 958 793 946 808 l 958 787 q 934 812 949 787 l 946 818 m 996 812 l 989 800 l 977 806 l 970 806 q 989 774 979 774 l 996 774 q 1014 793 1004 774 l 1014 806 q 996 812 1008 806 m 909 725 l 934 725 q 921 713 934 713 l 909 713 l 909 725 m 884 700 l 890 700 l 903 694 q 928 700 913 700 q 946 682 936 700 q 928 663 946 673 l 909 663 q 884 694 900 664 l 884 700 m 828 657 q 822 601 822 614 q 871 564 868 578 l 871 558 q 797 595 822 595 l 797 583 q 871 552 797 569 q 909 521 871 545 q 964 533 956 533 l 958 521 q 983 539 983 524 l 996 539 q 1063 521 1056 521 l 1063 533 q 996 545 1057 533 l 940 545 l 940 558 l 989 558 l 989 564 q 946 632 946 573 l 934 626 l 921 626 q 828 657 886 626 m 667 638 q 717 595 681 607 l 717 601 q 673 638 707 638 l 667 638 m 630 614 l 636 614 q 649 626 649 614 l 649 632 q 630 614 640 632 m 928 595 l 934 595 q 909 558 921 558 q 897 570 897 558 l 897 576 l 909 570 q 928 595 918 595 m 692 558 l 698 527 l 692 496 l 711 484 l 723 484 l 717 514 l 717 539 l 729 539 l 723 583 l 692 558 m 605 576 l 605 545 l 611 545 l 611 576 l 605 576 m 797 552 l 797 545 l 816 545 l 816 539 l 810 527 l 828 527 l 822 539 q 828 545 828 539 q 810 552 822 545 l 797 552 m 847 552 l 847 545 q 871 533 857 545 l 871 539 l 853 552 l 847 552 m 599 527 l 599 521 q 630 496 630 521 l 642 496 q 661 527 644 527 q 655 545 655 539 l 649 545 q 599 527 633 527 m 680 539 l 673 514 l 673 503 l 680 503 l 686 533 l 686 539 l 680 539 m 1002 514 l 996 503 q 1002 496 1002 503 q 996 490 996 496 l 1008 490 q 1039 508 1008 508 l 1039 514 l 1002 514 m 1088 521 l 1082 508 l 1082 465 q 1120 378 1105 378 l 1132 397 q 1120 410 1120 397 l 1132 410 q 1120 421 1132 421 l 1114 421 l 1120 410 l 1114 410 q 1101 421 1101 410 l 1120 446 q 1114 465 1114 458 l 1126 471 l 1138 465 l 1138 471 q 1088 521 1126 521 m 797 503 q 915 378 797 414 l 915 434 q 928 421 928 432 l 928 378 l 977 378 q 1045 446 1045 378 q 1051 503 1051 469 l 1045 503 q 952 446 979 446 l 952 452 l 940 446 l 921 459 q 909 446 921 446 q 890 465 909 456 l 871 452 q 847 477 847 469 l 835 471 l 828 484 q 835 490 835 484 q 816 503 816 490 q 822 508 822 503 l 810 508 l 797 503 m 642 490 l 636 477 l 636 471 l 642 471 q 655 484 655 471 l 642 490 m 605 484 l 605 428 q 636 440 621 440 l 636 459 l 630 471 l 618 465 l 611 465 l 611 484 l 605 484 m 958 484 l 958 477 q 970 465 960 465 l 970 471 q 958 484 970 484 m 655 465 l 649 452 l 667 452 q 655 465 667 465 m 624 428 q 605 410 624 410 q 618 397 607 397 l 636 421 l 624 428 m 704 428 l 704 410 q 723 404 711 410 l 723 428 l 704 428 m 680 404 l 680 397 q 704 385 689 397 l 704 391 q 698 410 698 403 q 680 404 686 404 m 1126 372 l 1126 366 q 1138 378 1138 366 l 1138 385 q 1126 372 1126 382 m 686 378 l 686 372 q 742 335 715 372 l 735 335 q 729 341 729 335 l 717 335 l 686 341 l 667 341 l 667 335 l 772 317 l 772 323 q 723 378 762 355 l 723 372 q 754 341 731 372 l 754 335 q 692 378 707 378 l 686 378 m 661 372 l 661 366 q 704 347 673 366 l 711 347 l 711 353 q 667 372 698 353 l 661 372 m 636 323 l 642 323 q 655 335 655 323 l 649 335 q 636 323 636 333 m 29 131 q 54 56 45 131 l 60 56 q 91 131 73 131 q 122 62 105 131 l 129 62 q 153 131 133 131 l 172 131 q 197 62 182 131 l 203 62 q 228 131 212 131 l 234 131 q 258 62 250 131 l 264 62 q 290 131 277 131 l 308 131 q 332 62 327 131 q 363 131 340 62 l 370 131 q 401 62 387 131 l 408 62 q 432 131 414 131 l 438 131 l 438 118 q 401 19 422 19 q 376 87 385 19 l 363 87 q 339 19 355 19 q 302 112 321 19 l 296 112 q 264 19 281 19 q 234 94 244 19 l 228 94 q 197 19 215 19 q 165 106 178 19 q 129 19 157 106 l 122 19 q 91 87 109 19 l 85 87 q 60 19 76 19 l 54 19 q 17 125 42 19 l 29 131 m 488 131 l 556 131 q 568 118 568 129 q 531 106 568 106 l 531 32 q 518 19 531 19 q 507 32 507 19 l 507 106 q 475 118 475 106 q 488 131 477 131 m 599 131 q 655 25 615 131 l 642 19 q 624 50 625 19 l 581 50 q 562 19 576 19 l 549 25 q 599 131 588 131 m 655 131 l 810 131 q 822 118 822 129 q 791 106 822 106 l 791 32 q 779 19 791 19 q 766 32 766 19 l 766 106 q 735 112 735 106 q 698 106 726 106 l 698 32 q 686 19 698 19 q 673 32 673 19 l 673 106 q 642 118 642 106 q 655 131 644 131 m 878 131 q 934 75 934 122 q 884 13 934 28 q 822 75 822 21 q 878 131 830 131 m 996 131 q 1045 81 1045 131 l 1045 50 q 989 13 1021 13 q 940 68 949 13 l 940 94 q 996 131 962 131 m 1063 131 q 1082 62 1082 106 l 1095 62 q 1120 131 1103 131 l 1126 131 q 1150 56 1139 131 l 1156 56 q 1181 131 1164 131 q 1194 118 1194 129 q 1156 19 1166 19 l 1150 19 q 1126 94 1136 19 l 1120 94 q 1088 19 1103 19 q 1051 125 1069 19 l 1063 131 m 1249 131 q 1305 62 1305 131 q 1249 13 1285 13 q 1194 87 1194 13 q 1249 131 1212 131 m 1367 131 q 1417 81 1417 131 l 1417 50 q 1361 13 1393 13 q 1311 68 1321 13 l 1311 81 q 1367 131 1311 131 m 1522 131 q 1565 94 1565 131 l 1553 87 q 1516 112 1532 112 q 1491 75 1491 106 l 1491 56 q 1510 38 1491 47 l 1528 38 q 1559 62 1556 62 l 1565 50 l 1565 44 q 1516 13 1548 13 q 1466 87 1466 13 q 1522 131 1485 131 m 1627 131 q 1683 75 1683 122 l 1683 68 q 1627 13 1675 13 q 1571 75 1571 27 q 1627 131 1584 131 m 1708 131 l 1714 131 q 1745 50 1728 131 l 1751 50 q 1788 131 1771 131 q 1801 118 1801 129 l 1801 32 q 1788 19 1801 19 q 1782 75 1782 23 l 1775 75 q 1751 19 1763 19 l 1745 19 q 1720 81 1731 19 l 1714 81 q 1702 19 1714 19 l 1695 32 l 1695 118 q 1708 131 1697 131 m 847 87 l 847 56 q 865 38 847 47 l 890 38 q 909 56 899 38 l 909 87 q 884 112 909 97 l 871 112 q 847 87 862 112 m 958 75 q 983 38 971 38 l 1008 38 q 1027 75 1027 44 q 989 112 1021 112 q 958 75 971 111 m 1219 75 l 1219 56 q 1237 38 1219 47 l 1261 38 q 1280 56 1271 38 l 1280 87 q 1255 112 1280 97 q 1219 75 1219 112 m 1330 68 q 1355 38 1342 40 l 1379 38 q 1398 75 1398 44 q 1361 112 1393 112 q 1330 68 1330 102 m 1596 87 l 1596 75 q 1615 38 1600 38 l 1640 38 q 1658 56 1649 38 l 1658 75 q 1627 112 1658 112 q 1596 87 1599 100 m 593 81 l 593 68 l 611 68 l 611 75 q 605 94 605 87 q 593 81 593 92 m 456 38 l 463 25 l 450 19 l 444 32 l 456 38 m 1441 38 q 1454 25 1454 36 l 1441 19 q 1429 32 1429 19 l 1441 38 z "},"-":{"ha":1843,"x_min":17,"x_max":1801,"o":"m 921 1158 q 1033 1065 977 1158 q 1082 991 1082 1031 l 1082 972 q 1051 917 1082 949 l 1051 873 q 1082 855 1082 869 q 1045 793 1045 849 l 1045 738 l 1033 738 l 1033 781 q 989 762 1010 762 l 977 762 q 958 781 968 762 q 964 787 958 787 q 958 831 958 812 l 946 824 l 946 837 q 1002 892 964 881 l 1039 880 l 1039 899 l 996 905 q 952 886 975 905 l 946 899 q 977 924 977 915 l 964 924 l 934 917 l 903 924 q 884 917 896 924 q 841 924 859 924 q 779 917 833 924 q 772 924 779 924 l 766 911 l 779 905 l 772 892 l 772 880 q 828 892 819 892 q 884 831 884 873 l 871 837 l 871 806 l 878 774 l 859 762 l 841 762 q 785 831 785 762 l 779 831 l 779 806 q 853 663 779 663 q 921 638 853 652 q 1027 725 1027 674 l 1039 725 q 1021 675 1039 713 q 1014 558 1014 577 q 1144 484 1144 532 q 1150 452 1150 473 l 1150 347 q 1156 218 1150 298 q 1132 186 1144 189 l 1126 186 l 1126 193 l 1138 211 l 1138 353 q 1114 359 1124 353 q 946 236 1114 236 l 946 248 q 1039 260 1025 260 l 1039 267 q 667 317 736 317 q 649 279 667 284 l 642 279 l 642 286 l 655 311 q 618 323 631 311 l 618 317 q 636 242 618 307 q 587 527 601 242 q 655 645 601 645 q 649 750 649 718 l 649 806 q 779 1134 649 1064 q 921 1158 818 1152 m 1008 924 l 1008 917 l 1039 911 l 1039 924 l 1008 924 m 859 917 q 890 892 888 905 l 890 886 l 884 886 l 853 905 q 785 899 798 899 l 785 911 q 859 917 795 911 m 748 855 l 748 831 q 760 843 760 831 q 748 855 760 855 m 785 855 l 791 824 l 797 824 l 797 855 l 785 855 m 1039 855 q 1033 818 1033 823 l 1033 812 l 1039 812 q 1045 849 1039 817 l 1045 855 l 1039 855 m 835 849 q 847 837 836 837 l 853 849 l 835 849 m 816 812 l 816 800 q 853 774 822 774 l 859 806 l 847 812 q 822 806 836 806 q 816 812 822 812 m 946 818 q 958 793 946 808 l 958 787 q 934 812 949 787 l 946 818 m 996 812 l 989 800 l 977 806 l 970 806 q 989 774 979 774 l 996 774 q 1014 793 1004 774 l 1014 806 q 996 812 1008 806 m 909 725 l 934 725 q 921 713 934 713 l 909 713 l 909 725 m 884 700 l 890 700 l 903 694 q 928 700 913 700 q 946 682 936 700 q 928 663 946 673 l 909 663 q 884 694 900 664 l 884 700 m 828 657 q 822 601 822 614 q 871 564 868 578 l 871 558 q 797 595 822 595 l 797 583 q 871 552 797 569 q 909 521 871 545 q 964 533 956 533 l 958 521 q 983 539 983 524 l 996 539 q 1063 521 1056 521 l 1063 533 q 996 545 1057 533 l 940 545 l 940 558 l 989 558 l 989 564 q 946 632 946 573 l 934 626 l 921 626 q 828 657 886 626 m 667 638 q 717 595 681 607 l 717 601 q 673 638 707 638 l 667 638 m 630 614 l 636 614 q 649 626 649 614 l 649 632 q 630 614 640 632 m 928 595 l 934 595 q 909 558 921 558 q 897 570 897 558 l 897 576 l 909 570 q 928 595 918 595 m 692 558 l 698 527 l 692 496 l 711 484 l 723 484 l 717 514 l 717 539 l 729 539 l 723 583 l 692 558 m 605 576 l 605 545 l 611 545 l 611 576 l 605 576 m 797 552 l 797 545 l 816 545 l 816 539 l 810 527 l 828 527 l 822 539 q 828 545 828 539 q 810 552 822 545 l 797 552 m 847 552 l 847 545 q 871 533 857 545 l 871 539 l 853 552 l 847 552 m 599 527 l 599 521 q 630 496 630 521 l 642 496 q 661 527 644 527 q 655 545 655 539 l 649 545 q 599 527 633 527 m 680 539 l 673 514 l 673 503 l 680 503 l 686 533 l 686 539 l 680 539 m 1002 514 l 996 503 q 1002 496 1002 503 q 996 490 996 496 l 1008 490 q 1039 508 1008 508 l 1039 514 l 1002 514 m 1088 521 l 1082 508 l 1082 465 q 1120 378 1105 378 l 1132 397 q 1120 410 1120 397 l 1132 410 q 1120 421 1132 421 l 1114 421 l 1120 410 l 1114 410 q 1101 421 1101 410 l 1120 446 q 1114 465 1114 458 l 1126 471 l 1138 465 l 1138 471 q 1088 521 1126 521 m 797 503 q 915 378 797 414 l 915 434 q 928 421 928 432 l 928 378 l 977 378 q 1045 446 1045 378 q 1051 503 1051 469 l 1045 503 q 952 446 979 446 l 952 452 l 940 446 l 921 459 q 909 446 921 446 q 890 465 909 456 l 871 452 q 847 477 847 469 l 835 471 l 828 484 q 835 490 835 484 q 816 503 816 490 q 822 508 822 503 l 810 508 l 797 503 m 642 490 l 636 477 l 636 471 l 642 471 q 655 484 655 471 l 642 490 m 605 484 l 605 428 q 636 440 621 440 l 636 459 l 630 471 l 618 465 l 611 465 l 611 484 l 605 484 m 958 484 l 958 477 q 970 465 960 465 l 970 471 q 958 484 970 484 m 655 465 l 649 452 l 667 452 q 655 465 667 465 m 624 428 q 605 410 624 410 q 618 397 607 397 l 636 421 l 624 428 m 704 428 l 704 410 q 723 404 711 410 l 723 428 l 704 428 m 680 404 l 680 397 q 704 385 689 397 l 704 391 q 698 410 698 403 q 680 404 686 404 m 1126 372 l 1126 366 q 1138 378 1138 366 l 1138 385 q 1126 372 1126 382 m 686 378 l 686 372 q 742 335 715 372 l 735 335 q 729 341 729 335 l 717 335 l 686 341 l 667 341 l 667 335 l 772 317 l 772 323 q 723 378 762 355 l 723 372 q 754 341 731 372 l 754 335 q 692 378 707 378 l 686 378 m 661 372 l 661 366 q 704 347 673 366 l 711 347 l 711 353 q 667 372 698 353 l 661 372 m 636 323 l 642 323 q 655 335 655 323 l 649 335 q 636 323 636 333 m 29 131 q 54 56 45 131 l 60 56 q 91 131 73 131 q 122 62 105 131 l 129 62 q 153 131 133 131 l 172 131 q 197 62 182 131 l 203 62 q 228 131 212 131 l 234 131 q 258 62 250 131 l 264 62 q 290 131 277 131 l 308 131 q 332 62 327 131 q 363 131 340 62 l 370 131 q 401 62 387 131 l 408 62 q 432 131 414 131 l 438 131 l 438 118 q 401 19 422 19 q 376 87 385 19 l 363 87 q 339 19 355 19 q 302 112 321 19 l 296 112 q 264 19 281 19 q 234 94 244 19 l 228 94 q 197 19 215 19 q 165 106 178 19 q 129 19 157 106 l 122 19 q 91 87 109 19 l 85 87 q 60 19 76 19 l 54 19 q 17 125 42 19 l 29 131 m 488 131 l 556 131 q 568 118 568 129 q 531 106 568 106 l 531 32 q 518 19 531 19 q 507 32 507 19 l 507 106 q 475 118 475 106 q 488 131 477 131 m 599 131 q 655 25 615 131 l 642 19 q 624 50 625 19 l 581 50 q 562 19 576 19 l 549 25 q 599 131 588 131 m 655 131 l 810 131 q 822 118 822 129 q 791 106 822 106 l 791 32 q 779 19 791 19 q 766 32 766 19 l 766 106 q 735 112 735 106 q 698 106 726 106 l 698 32 q 686 19 698 19 q 673 32 673 19 l 673 106 q 642 118 642 106 q 655 131 644 131 m 878 131 q 934 75 934 122 q 884 13 934 28 q 822 75 822 21 q 878 131 830 131 m 996 131 q 1045 81 1045 131 l 1045 50 q 989 13 1021 13 q 940 68 949 13 l 940 94 q 996 131 962 131 m 1063 131 q 1082 62 1082 106 l 1095 62 q 1120 131 1103 131 l 1126 131 q 1150 56 1139 131 l 1156 56 q 1181 131 1164 131 q 1194 118 1194 129 q 1156 19 1166 19 l 1150 19 q 1126 94 1136 19 l 1120 94 q 1088 19 1103 19 q 1051 125 1069 19 l 1063 131 m 1249 131 q 1305 62 1305 131 q 1249 13 1285 13 q 1194 87 1194 13 q 1249 131 1212 131 m 1367 131 q 1417 81 1417 131 l 1417 50 q 1361 13 1393 13 q 1311 68 1321 13 l 1311 81 q 1367 131 1311 131 m 1522 131 q 1565 94 1565 131 l 1553 87 q 1516 112 1532 112 q 1491 75 1491 106 l 1491 56 q 1510 38 1491 47 l 1528 38 q 1559 62 1556 62 l 1565 50 l 1565 44 q 1516 13 1548 13 q 1466 87 1466 13 q 1522 131 1485 131 m 1627 131 q 1683 75 1683 122 l 1683 68 q 1627 13 1675 13 q 1571 75 1571 27 q 1627 131 1584 131 m 1708 131 l 1714 131 q 1745 50 1728 131 l 1751 50 q 1788 131 1771 131 q 1801 118 1801 129 l 1801 32 q 1788 19 1801 19 q 1782 75 1782 23 l 1775 75 q 1751 19 1763 19 l 1745 19 q 1720 81 1731 19 l 1714 81 q 1702 19 1714 19 l 1695 32 l 1695 118 q 1708 131 1697 131 m 847 87 l 847 56 q 865 38 847 47 l 890 38 q 909 56 899 38 l 909 87 q 884 112 909 97 l 871 112 q 847 87 862 112 m 958 75 q 983 38 971 38 l 1008 38 q 1027 75 1027 44 q 989 112 1021 112 q 958 75 971 111 m 1219 75 l 1219 56 q 1237 38 1219 47 l 1261 38 q 1280 56 1271 38 l 1280 87 q 1255 112 1280 97 q 1219 75 1219 112 m 1330 68 q 1355 38 1342 40 l 1379 38 q 1398 75 1398 44 q 1361 112 1393 112 q 1330 68 1330 102 m 1596 87 l 1596 75 q 1615 38 1600 38 l 1640 38 q 1658 56 1649 38 l 1658 75 q 1627 112 1658 112 q 1596 87 1599 100 m 593 81 l 593 68 l 611 68 l 611 75 q 605 94 605 87 q 593 81 593 92 m 456 38 l 463 25 l 450 19 l 444 32 l 456 38 m 1441 38 q 1454 25 1454 36 l 1441 19 q 1429 32 1429 19 l 1441 38 z "},".":{"ha":378,"x_min":100,"x_max":279,"o":"m 224 184 q 277 156 268 173 l 279 134 q 140 -1 209 5 q 109 24 111 5 q 224 184 100 129 z "},"/":{"ha":1843,"x_min":17,"x_max":1801,"o":"m 921 1158 q 1033 1065 977 1158 q 1082 991 1082 1031 l 1082 972 q 1051 917 1082 949 l 1051 873 q 1082 855 1082 869 q 1045 793 1045 849 l 1045 738 l 1033 738 l 1033 781 q 989 762 1010 762 l 977 762 q 958 781 968 762 q 964 787 958 787 q 958 831 958 812 l 946 824 l 946 837 q 1002 892 964 881 l 1039 880 l 1039 899 l 996 905 q 952 886 975 905 l 946 899 q 977 924 977 915 l 964 924 l 934 917 l 903 924 q 884 917 896 924 q 841 924 859 924 q 779 917 833 924 q 772 924 779 924 l 766 911 l 779 905 l 772 892 l 772 880 q 828 892 819 892 q 884 831 884 873 l 871 837 l 871 806 l 878 774 l 859 762 l 841 762 q 785 831 785 762 l 779 831 l 779 806 q 853 663 779 663 q 921 638 853 652 q 1027 725 1027 674 l 1039 725 q 1021 675 1039 713 q 1014 558 1014 577 q 1144 484 1144 532 q 1150 452 1150 473 l 1150 347 q 1156 218 1150 298 q 1132 186 1144 189 l 1126 186 l 1126 193 l 1138 211 l 1138 353 q 1114 359 1124 353 q 946 236 1114 236 l 946 248 q 1039 260 1025 260 l 1039 267 q 667 317 736 317 q 649 279 667 284 l 642 279 l 642 286 l 655 311 q 618 323 631 311 l 618 317 q 636 242 618 307 q 587 527 601 242 q 655 645 601 645 q 649 750 649 718 l 649 806 q 779 1134 649 1064 q 921 1158 818 1152 m 1008 924 l 1008 917 l 1039 911 l 1039 924 l 1008 924 m 859 917 q 890 892 888 905 l 890 886 l 884 886 l 853 905 q 785 899 798 899 l 785 911 q 859 917 795 911 m 748 855 l 748 831 q 760 843 760 831 q 748 855 760 855 m 785 855 l 791 824 l 797 824 l 797 855 l 785 855 m 1039 855 q 1033 818 1033 823 l 1033 812 l 1039 812 q 1045 849 1039 817 l 1045 855 l 1039 855 m 835 849 q 847 837 836 837 l 853 849 l 835 849 m 816 812 l 816 800 q 853 774 822 774 l 859 806 l 847 812 q 822 806 836 806 q 816 812 822 812 m 946 818 q 958 793 946 808 l 958 787 q 934 812 949 787 l 946 818 m 996 812 l 989 800 l 977 806 l 970 806 q 989 774 979 774 l 996 774 q 1014 793 1004 774 l 1014 806 q 996 812 1008 806 m 909 725 l 934 725 q 921 713 934 713 l 909 713 l 909 725 m 884 700 l 890 700 l 903 694 q 928 700 913 700 q 946 682 936 700 q 928 663 946 673 l 909 663 q 884 694 900 664 l 884 700 m 828 657 q 822 601 822 614 q 871 564 868 578 l 871 558 q 797 595 822 595 l 797 583 q 871 552 797 569 q 909 521 871 545 q 964 533 956 533 l 958 521 q 983 539 983 524 l 996 539 q 1063 521 1056 521 l 1063 533 q 996 545 1057 533 l 940 545 l 940 558 l 989 558 l 989 564 q 946 632 946 573 l 934 626 l 921 626 q 828 657 886 626 m 667 638 q 717 595 681 607 l 717 601 q 673 638 707 638 l 667 638 m 630 614 l 636 614 q 649 626 649 614 l 649 632 q 630 614 640 632 m 928 595 l 934 595 q 909 558 921 558 q 897 570 897 558 l 897 576 l 909 570 q 928 595 918 595 m 692 558 l 698 527 l 692 496 l 711 484 l 723 484 l 717 514 l 717 539 l 729 539 l 723 583 l 692 558 m 605 576 l 605 545 l 611 545 l 611 576 l 605 576 m 797 552 l 797 545 l 816 545 l 816 539 l 810 527 l 828 527 l 822 539 q 828 545 828 539 q 810 552 822 545 l 797 552 m 847 552 l 847 545 q 871 533 857 545 l 871 539 l 853 552 l 847 552 m 599 527 l 599 521 q 630 496 630 521 l 642 496 q 661 527 644 527 q 655 545 655 539 l 649 545 q 599 527 633 527 m 680 539 l 673 514 l 673 503 l 680 503 l 686 533 l 686 539 l 680 539 m 1002 514 l 996 503 q 1002 496 1002 503 q 996 490 996 496 l 1008 490 q 1039 508 1008 508 l 1039 514 l 1002 514 m 1088 521 l 1082 508 l 1082 465 q 1120 378 1105 378 l 1132 397 q 1120 410 1120 397 l 1132 410 q 1120 421 1132 421 l 1114 421 l 1120 410 l 1114 410 q 1101 421 1101 410 l 1120 446 q 1114 465 1114 458 l 1126 471 l 1138 465 l 1138 471 q 1088 521 1126 521 m 797 503 q 915 378 797 414 l 915 434 q 928 421 928 432 l 928 378 l 977 378 q 1045 446 1045 378 q 1051 503 1051 469 l 1045 503 q 952 446 979 446 l 952 452 l 940 446 l 921 459 q 909 446 921 446 q 890 465 909 456 l 871 452 q 847 477 847 469 l 835 471 l 828 484 q 835 490 835 484 q 816 503 816 490 q 822 508 822 503 l 810 508 l 797 503 m 642 490 l 636 477 l 636 471 l 642 471 q 655 484 655 471 l 642 490 m 605 484 l 605 428 q 636 440 621 440 l 636 459 l 630 471 l 618 465 l 611 465 l 611 484 l 605 484 m 958 484 l 958 477 q 970 465 960 465 l 970 471 q 958 484 970 484 m 655 465 l 649 452 l 667 452 q 655 465 667 465 m 624 428 q 605 410 624 410 q 618 397 607 397 l 636 421 l 624 428 m 704 428 l 704 410 q 723 404 711 410 l 723 428 l 704 428 m 680 404 l 680 397 q 704 385 689 397 l 704 391 q 698 410 698 403 q 680 404 686 404 m 1126 372 l 1126 366 q 1138 378 1138 366 l 1138 385 q 1126 372 1126 382 m 686 378 l 686 372 q 742 335 715 372 l 735 335 q 729 341 729 335 l 717 335 l 686 341 l 667 341 l 667 335 l 772 317 l 772 323 q 723 378 762 355 l 723 372 q 754 341 731 372 l 754 335 q 692 378 707 378 l 686 378 m 661 372 l 661 366 q 704 347 673 366 l 711 347 l 711 353 q 667 372 698 353 l 661 372 m 636 323 l 642 323 q 655 335 655 323 l 649 335 q 636 323 636 333 m 29 131 q 54 56 45 131 l 60 56 q 91 131 73 131 q 122 62 105 131 l 129 62 q 153 131 133 131 l 172 131 q 197 62 182 131 l 203 62 q 228 131 212 131 l 234 131 q 258 62 250 131 l 264 62 q 290 131 277 131 l 308 131 q 332 62 327 131 q 363 131 340 62 l 370 131 q 401 62 387 131 l 408 62 q 432 131 414 131 l 438 131 l 438 118 q 401 19 422 19 q 376 87 385 19 l 363 87 q 339 19 355 19 q 302 112 321 19 l 296 112 q 264 19 281 19 q 234 94 244 19 l 228 94 q 197 19 215 19 q 165 106 178 19 q 129 19 157 106 l 122 19 q 91 87 109 19 l 85 87 q 60 19 76 19 l 54 19 q 17 125 42 19 l 29 131 m 488 131 l 556 131 q 568 118 568 129 q 531 106 568 106 l 531 32 q 518 19 531 19 q 507 32 507 19 l 507 106 q 475 118 475 106 q 488 131 477 131 m 599 131 q 655 25 615 131 l 642 19 q 624 50 625 19 l 581 50 q 562 19 576 19 l 549 25 q 599 131 588 131 m 655 131 l 810 131 q 822 118 822 129 q 791 106 822 106 l 791 32 q 779 19 791 19 q 766 32 766 19 l 766 106 q 735 112 735 106 q 698 106 726 106 l 698 32 q 686 19 698 19 q 673 32 673 19 l 673 106 q 642 118 642 106 q 655 131 644 131 m 878 131 q 934 75 934 122 q 884 13 934 28 q 822 75 822 21 q 878 131 830 131 m 996 131 q 1045 81 1045 131 l 1045 50 q 989 13 1021 13 q 940 68 949 13 l 940 94 q 996 131 962 131 m 1063 131 q 1082 62 1082 106 l 1095 62 q 1120 131 1103 131 l 1126 131 q 1150 56 1139 131 l 1156 56 q 1181 131 1164 131 q 1194 118 1194 129 q 1156 19 1166 19 l 1150 19 q 1126 94 1136 19 l 1120 94 q 1088 19 1103 19 q 1051 125 1069 19 l 1063 131 m 1249 131 q 1305 62 1305 131 q 1249 13 1285 13 q 1194 87 1194 13 q 1249 131 1212 131 m 1367 131 q 1417 81 1417 131 l 1417 50 q 1361 13 1393 13 q 1311 68 1321 13 l 1311 81 q 1367 131 1311 131 m 1522 131 q 1565 94 1565 131 l 1553 87 q 1516 112 1532 112 q 1491 75 1491 106 l 1491 56 q 1510 38 1491 47 l 1528 38 q 1559 62 1556 62 l 1565 50 l 1565 44 q 1516 13 1548 13 q 1466 87 1466 13 q 1522 131 1485 131 m 1627 131 q 1683 75 1683 122 l 1683 68 q 1627 13 1675 13 q 1571 75 1571 27 q 1627 131 1584 131 m 1708 131 l 1714 131 q 1745 50 1728 131 l 1751 50 q 1788 131 1771 131 q 1801 118 1801 129 l 1801 32 q 1788 19 1801 19 q 1782 75 1782 23 l 1775 75 q 1751 19 1763 19 l 1745 19 q 1720 81 1731 19 l 1714 81 q 1702 19 1714 19 l 1695 32 l 1695 118 q 1708 131 1697 131 m 847 87 l 847 56 q 865 38 847 47 l 890 38 q 909 56 899 38 l 909 87 q 884 112 909 97 l 871 112 q 847 87 862 112 m 958 75 q 983 38 971 38 l 1008 38 q 1027 75 1027 44 q 989 112 1021 112 q 958 75 971 111 m 1219 75 l 1219 56 q 1237 38 1219 47 l 1261 38 q 1280 56 1271 38 l 1280 87 q 1255 112 1280 97 q 1219 75 1219 112 m 1330 68 q 1355 38 1342 40 l 1379 38 q 1398 75 1398 44 q 1361 112 1393 112 q 1330 68 1330 102 m 1596 87 l 1596 75 q 1615 38 1600 38 l 1640 38 q 1658 56 1649 38 l 1658 75 q 1627 112 1658 112 q 1596 87 1599 100 m 593 81 l 593 68 l 611 68 l 611 75 q 605 94 605 87 q 593 81 593 92 m 456 38 l 463 25 l 450 19 l 444 32 l 456 38 m 1441 38 q 1454 25 1454 36 l 1441 19 q 1429 32 1429 19 l 1441 38 z "},":":{"ha":1843,"x_min":17,"x_max":1801,"o":"m 921 1158 q 1033 1065 977 1158 q 1082 991 1082 1031 l 1082 972 q 1051 917 1082 949 l 1051 873 q 1082 855 1082 869 q 1045 793 1045 849 l 1045 738 l 1033 738 l 1033 781 q 989 762 1010 762 l 977 762 q 958 781 968 762 q 964 787 958 787 q 958 831 958 812 l 946 824 l 946 837 q 1002 892 964 881 l 1039 880 l 1039 899 l 996 905 q 952 886 975 905 l 946 899 q 977 924 977 915 l 964 924 l 934 917 l 903 924 q 884 917 896 924 q 841 924 859 924 q 779 917 833 924 q 772 924 779 924 l 766 911 l 779 905 l 772 892 l 772 880 q 828 892 819 892 q 884 831 884 873 l 871 837 l 871 806 l 878 774 l 859 762 l 841 762 q 785 831 785 762 l 779 831 l 779 806 q 853 663 779 663 q 921 638 853 652 q 1027 725 1027 674 l 1039 725 q 1021 675 1039 713 q 1014 558 1014 577 q 1144 484 1144 532 q 1150 452 1150 473 l 1150 347 q 1156 218 1150 298 q 1132 186 1144 189 l 1126 186 l 1126 193 l 1138 211 l 1138 353 q 1114 359 1124 353 q 946 236 1114 236 l 946 248 q 1039 260 1025 260 l 1039 267 q 667 317 736 317 q 649 279 667 284 l 642 279 l 642 286 l 655 311 q 618 323 631 311 l 618 317 q 636 242 618 307 q 587 527 601 242 q 655 645 601 645 q 649 750 649 718 l 649 806 q 779 1134 649 1064 q 921 1158 818 1152 m 1008 924 l 1008 917 l 1039 911 l 1039 924 l 1008 924 m 859 917 q 890 892 888 905 l 890 886 l 884 886 l 853 905 q 785 899 798 899 l 785 911 q 859 917 795 911 m 748 855 l 748 831 q 760 843 760 831 q 748 855 760 855 m 785 855 l 791 824 l 797 824 l 797 855 l 785 855 m 1039 855 q 1033 818 1033 823 l 1033 812 l 1039 812 q 1045 849 1039 817 l 1045 855 l 1039 855 m 835 849 q 847 837 836 837 l 853 849 l 835 849 m 816 812 l 816 800 q 853 774 822 774 l 859 806 l 847 812 q 822 806 836 806 q 816 812 822 812 m 946 818 q 958 793 946 808 l 958 787 q 934 812 949 787 l 946 818 m 996 812 l 989 800 l 977 806 l 970 806 q 989 774 979 774 l 996 774 q 1014 793 1004 774 l 1014 806 q 996 812 1008 806 m 909 725 l 934 725 q 921 713 934 713 l 909 713 l 909 725 m 884 700 l 890 700 l 903 694 q 928 700 913 700 q 946 682 936 700 q 928 663 946 673 l 909 663 q 884 694 900 664 l 884 700 m 828 657 q 822 601 822 614 q 871 564 868 578 l 871 558 q 797 595 822 595 l 797 583 q 871 552 797 569 q 909 521 871 545 q 964 533 956 533 l 958 521 q 983 539 983 524 l 996 539 q 1063 521 1056 521 l 1063 533 q 996 545 1057 533 l 940 545 l 940 558 l 989 558 l 989 564 q 946 632 946 573 l 934 626 l 921 626 q 828 657 886 626 m 667 638 q 717 595 681 607 l 717 601 q 673 638 707 638 l 667 638 m 630 614 l 636 614 q 649 626 649 614 l 649 632 q 630 614 640 632 m 928 595 l 934 595 q 909 558 921 558 q 897 570 897 558 l 897 576 l 909 570 q 928 595 918 595 m 692 558 l 698 527 l 692 496 l 711 484 l 723 484 l 717 514 l 717 539 l 729 539 l 723 583 l 692 558 m 605 576 l 605 545 l 611 545 l 611 576 l 605 576 m 797 552 l 797 545 l 816 545 l 816 539 l 810 527 l 828 527 l 822 539 q 828 545 828 539 q 810 552 822 545 l 797 552 m 847 552 l 847 545 q 871 533 857 545 l 871 539 l 853 552 l 847 552 m 599 527 l 599 521 q 630 496 630 521 l 642 496 q 661 527 644 527 q 655 545 655 539 l 649 545 q 599 527 633 527 m 680 539 l 673 514 l 673 503 l 680 503 l 686 533 l 686 539 l 680 539 m 1002 514 l 996 503 q 1002 496 1002 503 q 996 490 996 496 l 1008 490 q 1039 508 1008 508 l 1039 514 l 1002 514 m 1088 521 l 1082 508 l 1082 465 q 1120 378 1105 378 l 1132 397 q 1120 410 1120 397 l 1132 410 q 1120 421 1132 421 l 1114 421 l 1120 410 l 1114 410 q 1101 421 1101 410 l 1120 446 q 1114 465 1114 458 l 1126 471 l 1138 465 l 1138 471 q 1088 521 1126 521 m 797 503 q 915 378 797 414 l 915 434 q 928 421 928 432 l 928 378 l 977 378 q 1045 446 1045 378 q 1051 503 1051 469 l 1045 503 q 952 446 979 446 l 952 452 l 940 446 l 921 459 q 909 446 921 446 q 890 465 909 456 l 871 452 q 847 477 847 469 l 835 471 l 828 484 q 835 490 835 484 q 816 503 816 490 q 822 508 822 503 l 810 508 l 797 503 m 642 490 l 636 477 l 636 471 l 642 471 q 655 484 655 471 l 642 490 m 605 484 l 605 428 q 636 440 621 440 l 636 459 l 630 471 l 618 465 l 611 465 l 611 484 l 605 484 m 958 484 l 958 477 q 970 465 960 465 l 970 471 q 958 484 970 484 m 655 465 l 649 452 l 667 452 q 655 465 667 465 m 624 428 q 605 410 624 410 q 618 397 607 397 l 636 421 l 624 428 m 704 428 l 704 410 q 723 404 711 410 l 723 428 l 704 428 m 680 404 l 680 397 q 704 385 689 397 l 704 391 q 698 410 698 403 q 680 404 686 404 m 1126 372 l 1126 366 q 1138 378 1138 366 l 1138 385 q 1126 372 1126 382 m 686 378 l 686 372 q 742 335 715 372 l 735 335 q 729 341 729 335 l 717 335 l 686 341 l 667 341 l 667 335 l 772 317 l 772 323 q 723 378 762 355 l 723 372 q 754 341 731 372 l 754 335 q 692 378 707 378 l 686 378 m 661 372 l 661 366 q 704 347 673 366 l 711 347 l 711 353 q 667 372 698 353 l 661 372 m 636 323 l 642 323 q 655 335 655 323 l 649 335 q 636 323 636 333 m 29 131 q 54 56 45 131 l 60 56 q 91 131 73 131 q 122 62 105 131 l 129 62 q 153 131 133 131 l 172 131 q 197 62 182 131 l 203 62 q 228 131 212 131 l 234 131 q 258 62 250 131 l 264 62 q 290 131 277 131 l 308 131 q 332 62 327 131 q 363 131 340 62 l 370 131 q 401 62 387 131 l 408 62 q 432 131 414 131 l 438 131 l 438 118 q 401 19 422 19 q 376 87 385 19 l 363 87 q 339 19 355 19 q 302 112 321 19 l 296 112 q 264 19 281 19 q 234 94 244 19 l 228 94 q 197 19 215 19 q 165 106 178 19 q 129 19 157 106 l 122 19 q 91 87 109 19 l 85 87 q 60 19 76 19 l 54 19 q 17 125 42 19 l 29 131 m 488 131 l 556 131 q 568 118 568 129 q 531 106 568 106 l 531 32 q 518 19 531 19 q 507 32 507 19 l 507 106 q 475 118 475 106 q 488 131 477 131 m 599 131 q 655 25 615 131 l 642 19 q 624 50 625 19 l 581 50 q 562 19 576 19 l 549 25 q 599 131 588 131 m 655 131 l 810 131 q 822 118 822 129 q 791 106 822 106 l 791 32 q 779 19 791 19 q 766 32 766 19 l 766 106 q 735 112 735 106 q 698 106 726 106 l 698 32 q 686 19 698 19 q 673 32 673 19 l 673 106 q 642 118 642 106 q 655 131 644 131 m 878 131 q 934 75 934 122 q 884 13 934 28 q 822 75 822 21 q 878 131 830 131 m 996 131 q 1045 81 1045 131 l 1045 50 q 989 13 1021 13 q 940 68 949 13 l 940 94 q 996 131 962 131 m 1063 131 q 1082 62 1082 106 l 1095 62 q 1120 131 1103 131 l 1126 131 q 1150 56 1139 131 l 1156 56 q 1181 131 1164 131 q 1194 118 1194 129 q 1156 19 1166 19 l 1150 19 q 1126 94 1136 19 l 1120 94 q 1088 19 1103 19 q 1051 125 1069 19 l 1063 131 m 1249 131 q 1305 62 1305 131 q 1249 13 1285 13 q 1194 87 1194 13 q 1249 131 1212 131 m 1367 131 q 1417 81 1417 131 l 1417 50 q 1361 13 1393 13 q 1311 68 1321 13 l 1311 81 q 1367 131 1311 131 m 1522 131 q 1565 94 1565 131 l 1553 87 q 1516 112 1532 112 q 1491 75 1491 106 l 1491 56 q 1510 38 1491 47 l 1528 38 q 1559 62 1556 62 l 1565 50 l 1565 44 q 1516 13 1548 13 q 1466 87 1466 13 q 1522 131 1485 131 m 1627 131 q 1683 75 1683 122 l 1683 68 q 1627 13 1675 13 q 1571 75 1571 27 q 1627 131 1584 131 m 1708 131 l 1714 131 q 1745 50 1728 131 l 1751 50 q 1788 131 1771 131 q 1801 118 1801 129 l 1801 32 q 1788 19 1801 19 q 1782 75 1782 23 l 1775 75 q 1751 19 1763 19 l 1745 19 q 1720 81 1731 19 l 1714 81 q 1702 19 1714 19 l 1695 32 l 1695 118 q 1708 131 1697 131 m 847 87 l 847 56 q 865 38 847 47 l 890 38 q 909 56 899 38 l 909 87 q 884 112 909 97 l 871 112 q 847 87 862 112 m 958 75 q 983 38 971 38 l 1008 38 q 1027 75 1027 44 q 989 112 1021 112 q 958 75 971 111 m 1219 75 l 1219 56 q 1237 38 1219 47 l 1261 38 q 1280 56 1271 38 l 1280 87 q 1255 112 1280 97 q 1219 75 1219 112 m 1330 68 q 1355 38 1342 40 l 1379 38 q 1398 75 1398 44 q 1361 112 1393 112 q 1330 68 1330 102 m 1596 87 l 1596 75 q 1615 38 1600 38 l 1640 38 q 1658 56 1649 38 l 1658 75 q 1627 112 1658 112 q 1596 87 1599 100 m 593 81 l 593 68 l 611 68 l 611 75 q 605 94 605 87 q 593 81 593 92 m 456 38 l 463 25 l 450 19 l 444 32 l 456 38 m 1441 38 q 1454 25 1454 36 l 1441 19 q 1429 32 1429 19 l 1441 38 z "},";":{"ha":1843,"x_min":17,"x_max":1801,"o":"m 921 1158 q 1033 1065 977 1158 q 1082 991 1082 1031 l 1082 972 q 1051 917 1082 949 l 1051 873 q 1082 855 1082 869 q 1045 793 1045 849 l 1045 738 l 1033 738 l 1033 781 q 989 762 1010 762 l 977 762 q 958 781 968 762 q 964 787 958 787 q 958 831 958 812 l 946 824 l 946 837 q 1002 892 964 881 l 1039 880 l 1039 899 l 996 905 q 952 886 975 905 l 946 899 q 977 924 977 915 l 964 924 l 934 917 l 903 924 q 884 917 896 924 q 841 924 859 924 q 779 917 833 924 q 772 924 779 924 l 766 911 l 779 905 l 772 892 l 772 880 q 828 892 819 892 q 884 831 884 873 l 871 837 l 871 806 l 878 774 l 859 762 l 841 762 q 785 831 785 762 l 779 831 l 779 806 q 853 663 779 663 q 921 638 853 652 q 1027 725 1027 674 l 1039 725 q 1021 675 1039 713 q 1014 558 1014 577 q 1144 484 1144 532 q 1150 452 1150 473 l 1150 347 q 1156 218 1150 298 q 1132 186 1144 189 l 1126 186 l 1126 193 l 1138 211 l 1138 353 q 1114 359 1124 353 q 946 236 1114 236 l 946 248 q 1039 260 1025 260 l 1039 267 q 667 317 736 317 q 649 279 667 284 l 642 279 l 642 286 l 655 311 q 618 323 631 311 l 618 317 q 636 242 618 307 q 587 527 601 242 q 655 645 601 645 q 649 750 649 718 l 649 806 q 779 1134 649 1064 q 921 1158 818 1152 m 1008 924 l 1008 917 l 1039 911 l 1039 924 l 1008 924 m 859 917 q 890 892 888 905 l 890 886 l 884 886 l 853 905 q 785 899 798 899 l 785 911 q 859 917 795 911 m 748 855 l 748 831 q 760 843 760 831 q 748 855 760 855 m 785 855 l 791 824 l 797 824 l 797 855 l 785 855 m 1039 855 q 1033 818 1033 823 l 1033 812 l 1039 812 q 1045 849 1039 817 l 1045 855 l 1039 855 m 835 849 q 847 837 836 837 l 853 849 l 835 849 m 816 812 l 816 800 q 853 774 822 774 l 859 806 l 847 812 q 822 806 836 806 q 816 812 822 812 m 946 818 q 958 793 946 808 l 958 787 q 934 812 949 787 l 946 818 m 996 812 l 989 800 l 977 806 l 970 806 q 989 774 979 774 l 996 774 q 1014 793 1004 774 l 1014 806 q 996 812 1008 806 m 909 725 l 934 725 q 921 713 934 713 l 909 713 l 909 725 m 884 700 l 890 700 l 903 694 q 928 700 913 700 q 946 682 936 700 q 928 663 946 673 l 909 663 q 884 694 900 664 l 884 700 m 828 657 q 822 601 822 614 q 871 564 868 578 l 871 558 q 797 595 822 595 l 797 583 q 871 552 797 569 q 909 521 871 545 q 964 533 956 533 l 958 521 q 983 539 983 524 l 996 539 q 1063 521 1056 521 l 1063 533 q 996 545 1057 533 l 940 545 l 940 558 l 989 558 l 989 564 q 946 632 946 573 l 934 626 l 921 626 q 828 657 886 626 m 667 638 q 717 595 681 607 l 717 601 q 673 638 707 638 l 667 638 m 630 614 l 636 614 q 649 626 649 614 l 649 632 q 630 614 640 632 m 928 595 l 934 595 q 909 558 921 558 q 897 570 897 558 l 897 576 l 909 570 q 928 595 918 595 m 692 558 l 698 527 l 692 496 l 711 484 l 723 484 l 717 514 l 717 539 l 729 539 l 723 583 l 692 558 m 605 576 l 605 545 l 611 545 l 611 576 l 605 576 m 797 552 l 797 545 l 816 545 l 816 539 l 810 527 l 828 527 l 822 539 q 828 545 828 539 q 810 552 822 545 l 797 552 m 847 552 l 847 545 q 871 533 857 545 l 871 539 l 853 552 l 847 552 m 599 527 l 599 521 q 630 496 630 521 l 642 496 q 661 527 644 527 q 655 545 655 539 l 649 545 q 599 527 633 527 m 680 539 l 673 514 l 673 503 l 680 503 l 686 533 l 686 539 l 680 539 m 1002 514 l 996 503 q 1002 496 1002 503 q 996 490 996 496 l 1008 490 q 1039 508 1008 508 l 1039 514 l 1002 514 m 1088 521 l 1082 508 l 1082 465 q 1120 378 1105 378 l 1132 397 q 1120 410 1120 397 l 1132 410 q 1120 421 1132 421 l 1114 421 l 1120 410 l 1114 410 q 1101 421 1101 410 l 1120 446 q 1114 465 1114 458 l 1126 471 l 1138 465 l 1138 471 q 1088 521 1126 521 m 797 503 q 915 378 797 414 l 915 434 q 928 421 928 432 l 928 378 l 977 378 q 1045 446 1045 378 q 1051 503 1051 469 l 1045 503 q 952 446 979 446 l 952 452 l 940 446 l 921 459 q 909 446 921 446 q 890 465 909 456 l 871 452 q 847 477 847 469 l 835 471 l 828 484 q 835 490 835 484 q 816 503 816 490 q 822 508 822 503 l 810 508 l 797 503 m 642 490 l 636 477 l 636 471 l 642 471 q 655 484 655 471 l 642 490 m 605 484 l 605 428 q 636 440 621 440 l 636 459 l 630 471 l 618 465 l 611 465 l 611 484 l 605 484 m 958 484 l 958 477 q 970 465 960 465 l 970 471 q 958 484 970 484 m 655 465 l 649 452 l 667 452 q 655 465 667 465 m 624 428 q 605 410 624 410 q 618 397 607 397 l 636 421 l 624 428 m 704 428 l 704 410 q 723 404 711 410 l 723 428 l 704 428 m 680 404 l 680 397 q 704 385 689 397 l 704 391 q 698 410 698 403 q 680 404 686 404 m 1126 372 l 1126 366 q 1138 378 1138 366 l 1138 385 q 1126 372 1126 382 m 686 378 l 686 372 q 742 335 715 372 l 735 335 q 729 341 729 335 l 717 335 l 686 341 l 667 341 l 667 335 l 772 317 l 772 323 q 723 378 762 355 l 723 372 q 754 341 731 372 l 754 335 q 692 378 707 378 l 686 378 m 661 372 l 661 366 q 704 347 673 366 l 711 347 l 711 353 q 667 372 698 353 l 661 372 m 636 323 l 642 323 q 655 335 655 323 l 649 335 q 636 323 636 333 m 29 131 q 54 56 45 131 l 60 56 q 91 131 73 131 q 122 62 105 131 l 129 62 q 153 131 133 131 l 172 131 q 197 62 182 131 l 203 62 q 228 131 212 131 l 234 131 q 258 62 250 131 l 264 62 q 290 131 277 131 l 308 131 q 332 62 327 131 q 363 131 340 62 l 370 131 q 401 62 387 131 l 408 62 q 432 131 414 131 l 438 131 l 438 118 q 401 19 422 19 q 376 87 385 19 l 363 87 q 339 19 355 19 q 302 112 321 19 l 296 112 q 264 19 281 19 q 234 94 244 19 l 228 94 q 197 19 215 19 q 165 106 178 19 q 129 19 157 106 l 122 19 q 91 87 109 19 l 85 87 q 60 19 76 19 l 54 19 q 17 125 42 19 l 29 131 m 488 131 l 556 131 q 568 118 568 129 q 531 106 568 106 l 531 32 q 518 19 531 19 q 507 32 507 19 l 507 106 q 475 118 475 106 q 488 131 477 131 m 599 131 q 655 25 615 131 l 642 19 q 624 50 625 19 l 581 50 q 562 19 576 19 l 549 25 q 599 131 588 131 m 655 131 l 810 131 q 822 118 822 129 q 791 106 822 106 l 791 32 q 779 19 791 19 q 766 32 766 19 l 766 106 q 735 112 735 106 q 698 106 726 106 l 698 32 q 686 19 698 19 q 673 32 673 19 l 673 106 q 642 118 642 106 q 655 131 644 131 m 878 131 q 934 75 934 122 q 884 13 934 28 q 822 75 822 21 q 878 131 830 131 m 996 131 q 1045 81 1045 131 l 1045 50 q 989 13 1021 13 q 940 68 949 13 l 940 94 q 996 131 962 131 m 1063 131 q 1082 62 1082 106 l 1095 62 q 1120 131 1103 131 l 1126 131 q 1150 56 1139 131 l 1156 56 q 1181 131 1164 131 q 1194 118 1194 129 q 1156 19 1166 19 l 1150 19 q 1126 94 1136 19 l 1120 94 q 1088 19 1103 19 q 1051 125 1069 19 l 1063 131 m 1249 131 q 1305 62 1305 131 q 1249 13 1285 13 q 1194 87 1194 13 q 1249 131 1212 131 m 1367 131 q 1417 81 1417 131 l 1417 50 q 1361 13 1393 13 q 1311 68 1321 13 l 1311 81 q 1367 131 1311 131 m 1522 131 q 1565 94 1565 131 l 1553 87 q 1516 112 1532 112 q 1491 75 1491 106 l 1491 56 q 1510 38 1491 47 l 1528 38 q 1559 62 1556 62 l 1565 50 l 1565 44 q 1516 13 1548 13 q 1466 87 1466 13 q 1522 131 1485 131 m 1627 131 q 1683 75 1683 122 l 1683 68 q 1627 13 1675 13 q 1571 75 1571 27 q 1627 131 1584 131 m 1708 131 l 1714 131 q 1745 50 1728 131 l 1751 50 q 1788 131 1771 131 q 1801 118 1801 129 l 1801 32 q 1788 19 1801 19 q 1782 75 1782 23 l 1775 75 q 1751 19 1763 19 l 1745 19 q 1720 81 1731 19 l 1714 81 q 1702 19 1714 19 l 1695 32 l 1695 118 q 1708 131 1697 131 m 847 87 l 847 56 q 865 38 847 47 l 890 38 q 909 56 899 38 l 909 87 q 884 112 909 97 l 871 112 q 847 87 862 112 m 958 75 q 983 38 971 38 l 1008 38 q 1027 75 1027 44 q 989 112 1021 112 q 958 75 971 111 m 1219 75 l 1219 56 q 1237 38 1219 47 l 1261 38 q 1280 56 1271 38 l 1280 87 q 1255 112 1280 97 q 1219 75 1219 112 m 1330 68 q 1355 38 1342 40 l 1379 38 q 1398 75 1398 44 q 1361 112 1393 112 q 1330 68 1330 102 m 1596 87 l 1596 75 q 1615 38 1600 38 l 1640 38 q 1658 56 1649 38 l 1658 75 q 1627 112 1658 112 q 1596 87 1599 100 m 593 81 l 593 68 l 611 68 l 611 75 q 605 94 605 87 q 593 81 593 92 m 456 38 l 463 25 l 450 19 l 444 32 l 456 38 m 1441 38 q 1454 25 1454 36 l 1441 19 q 1429 32 1429 19 l 1441 38 z "},"<":{"ha":1843,"x_min":17,"x_max":1801,"o":"m 921 1158 q 1033 1065 977 1158 q 1082 991 1082 1031 l 1082 972 q 1051 917 1082 949 l 1051 873 q 1082 855 1082 869 q 1045 793 1045 849 l 1045 738 l 1033 738 l 1033 781 q 989 762 1010 762 l 977 762 q 958 781 968 762 q 964 787 958 787 q 958 831 958 812 l 946 824 l 946 837 q 1002 892 964 881 l 1039 880 l 1039 899 l 996 905 q 952 886 975 905 l 946 899 q 977 924 977 915 l 964 924 l 934 917 l 903 924 q 884 917 896 924 q 841 924 859 924 q 779 917 833 924 q 772 924 779 924 l 766 911 l 779 905 l 772 892 l 772 880 q 828 892 819 892 q 884 831 884 873 l 871 837 l 871 806 l 878 774 l 859 762 l 841 762 q 785 831 785 762 l 779 831 l 779 806 q 853 663 779 663 q 921 638 853 652 q 1027 725 1027 674 l 1039 725 q 1021 675 1039 713 q 1014 558 1014 577 q 1144 484 1144 532 q 1150 452 1150 473 l 1150 347 q 1156 218 1150 298 q 1132 186 1144 189 l 1126 186 l 1126 193 l 1138 211 l 1138 353 q 1114 359 1124 353 q 946 236 1114 236 l 946 248 q 1039 260 1025 260 l 1039 267 q 667 317 736 317 q 649 279 667 284 l 642 279 l 642 286 l 655 311 q 618 323 631 311 l 618 317 q 636 242 618 307 q 587 527 601 242 q 655 645 601 645 q 649 750 649 718 l 649 806 q 779 1134 649 1064 q 921 1158 818 1152 m 1008 924 l 1008 917 l 1039 911 l 1039 924 l 1008 924 m 859 917 q 890 892 888 905 l 890 886 l 884 886 l 853 905 q 785 899 798 899 l 785 911 q 859 917 795 911 m 748 855 l 748 831 q 760 843 760 831 q 748 855 760 855 m 785 855 l 791 824 l 797 824 l 797 855 l 785 855 m 1039 855 q 1033 818 1033 823 l 1033 812 l 1039 812 q 1045 849 1039 817 l 1045 855 l 1039 855 m 835 849 q 847 837 836 837 l 853 849 l 835 849 m 816 812 l 816 800 q 853 774 822 774 l 859 806 l 847 812 q 822 806 836 806 q 816 812 822 812 m 946 818 q 958 793 946 808 l 958 787 q 934 812 949 787 l 946 818 m 996 812 l 989 800 l 977 806 l 970 806 q 989 774 979 774 l 996 774 q 1014 793 1004 774 l 1014 806 q 996 812 1008 806 m 909 725 l 934 725 q 921 713 934 713 l 909 713 l 909 725 m 884 700 l 890 700 l 903 694 q 928 700 913 700 q 946 682 936 700 q 928 663 946 673 l 909 663 q 884 694 900 664 l 884 700 m 828 657 q 822 601 822 614 q 871 564 868 578 l 871 558 q 797 595 822 595 l 797 583 q 871 552 797 569 q 909 521 871 545 q 964 533 956 533 l 958 521 q 983 539 983 524 l 996 539 q 1063 521 1056 521 l 1063 533 q 996 545 1057 533 l 940 545 l 940 558 l 989 558 l 989 564 q 946 632 946 573 l 934 626 l 921 626 q 828 657 886 626 m 667 638 q 717 595 681 607 l 717 601 q 673 638 707 638 l 667 638 m 630 614 l 636 614 q 649 626 649 614 l 649 632 q 630 614 640 632 m 928 595 l 934 595 q 909 558 921 558 q 897 570 897 558 l 897 576 l 909 570 q 928 595 918 595 m 692 558 l 698 527 l 692 496 l 711 484 l 723 484 l 717 514 l 717 539 l 729 539 l 723 583 l 692 558 m 605 576 l 605 545 l 611 545 l 611 576 l 605 576 m 797 552 l 797 545 l 816 545 l 816 539 l 810 527 l 828 527 l 822 539 q 828 545 828 539 q 810 552 822 545 l 797 552 m 847 552 l 847 545 q 871 533 857 545 l 871 539 l 853 552 l 847 552 m 599 527 l 599 521 q 630 496 630 521 l 642 496 q 661 527 644 527 q 655 545 655 539 l 649 545 q 599 527 633 527 m 680 539 l 673 514 l 673 503 l 680 503 l 686 533 l 686 539 l 680 539 m 1002 514 l 996 503 q 1002 496 1002 503 q 996 490 996 496 l 1008 490 q 1039 508 1008 508 l 1039 514 l 1002 514 m 1088 521 l 1082 508 l 1082 465 q 1120 378 1105 378 l 1132 397 q 1120 410 1120 397 l 1132 410 q 1120 421 1132 421 l 1114 421 l 1120 410 l 1114 410 q 1101 421 1101 410 l 1120 446 q 1114 465 1114 458 l 1126 471 l 1138 465 l 1138 471 q 1088 521 1126 521 m 797 503 q 915 378 797 414 l 915 434 q 928 421 928 432 l 928 378 l 977 378 q 1045 446 1045 378 q 1051 503 1051 469 l 1045 503 q 952 446 979 446 l 952 452 l 940 446 l 921 459 q 909 446 921 446 q 890 465 909 456 l 871 452 q 847 477 847 469 l 835 471 l 828 484 q 835 490 835 484 q 816 503 816 490 q 822 508 822 503 l 810 508 l 797 503 m 642 490 l 636 477 l 636 471 l 642 471 q 655 484 655 471 l 642 490 m 605 484 l 605 428 q 636 440 621 440 l 636 459 l 630 471 l 618 465 l 611 465 l 611 484 l 605 484 m 958 484 l 958 477 q 970 465 960 465 l 970 471 q 958 484 970 484 m 655 465 l 649 452 l 667 452 q 655 465 667 465 m 624 428 q 605 410 624 410 q 618 397 607 397 l 636 421 l 624 428 m 704 428 l 704 410 q 723 404 711 410 l 723 428 l 704 428 m 680 404 l 680 397 q 704 385 689 397 l 704 391 q 698 410 698 403 q 680 404 686 404 m 1126 372 l 1126 366 q 1138 378 1138 366 l 1138 385 q 1126 372 1126 382 m 686 378 l 686 372 q 742 335 715 372 l 735 335 q 729 341 729 335 l 717 335 l 686 341 l 667 341 l 667 335 l 772 317 l 772 323 q 723 378 762 355 l 723 372 q 754 341 731 372 l 754 335 q 692 378 707 378 l 686 378 m 661 372 l 661 366 q 704 347 673 366 l 711 347 l 711 353 q 667 372 698 353 l 661 372 m 636 323 l 642 323 q 655 335 655 323 l 649 335 q 636 323 636 333 m 29 131 q 54 56 45 131 l 60 56 q 91 131 73 131 q 122 62 105 131 l 129 62 q 153 131 133 131 l 172 131 q 197 62 182 131 l 203 62 q 228 131 212 131 l 234 131 q 258 62 250 131 l 264 62 q 290 131 277 131 l 308 131 q 332 62 327 131 q 363 131 340 62 l 370 131 q 401 62 387 131 l 408 62 q 432 131 414 131 l 438 131 l 438 118 q 401 19 422 19 q 376 87 385 19 l 363 87 q 339 19 355 19 q 302 112 321 19 l 296 112 q 264 19 281 19 q 234 94 244 19 l 228 94 q 197 19 215 19 q 165 106 178 19 q 129 19 157 106 l 122 19 q 91 87 109 19 l 85 87 q 60 19 76 19 l 54 19 q 17 125 42 19 l 29 131 m 488 131 l 556 131 q 568 118 568 129 q 531 106 568 106 l 531 32 q 518 19 531 19 q 507 32 507 19 l 507 106 q 475 118 475 106 q 488 131 477 131 m 599 131 q 655 25 615 131 l 642 19 q 624 50 625 19 l 581 50 q 562 19 576 19 l 549 25 q 599 131 588 131 m 655 131 l 810 131 q 822 118 822 129 q 791 106 822 106 l 791 32 q 779 19 791 19 q 766 32 766 19 l 766 106 q 735 112 735 106 q 698 106 726 106 l 698 32 q 686 19 698 19 q 673 32 673 19 l 673 106 q 642 118 642 106 q 655 131 644 131 m 878 131 q 934 75 934 122 q 884 13 934 28 q 822 75 822 21 q 878 131 830 131 m 996 131 q 1045 81 1045 131 l 1045 50 q 989 13 1021 13 q 940 68 949 13 l 940 94 q 996 131 962 131 m 1063 131 q 1082 62 1082 106 l 1095 62 q 1120 131 1103 131 l 1126 131 q 1150 56 1139 131 l 1156 56 q 1181 131 1164 131 q 1194 118 1194 129 q 1156 19 1166 19 l 1150 19 q 1126 94 1136 19 l 1120 94 q 1088 19 1103 19 q 1051 125 1069 19 l 1063 131 m 1249 131 q 1305 62 1305 131 q 1249 13 1285 13 q 1194 87 1194 13 q 1249 131 1212 131 m 1367 131 q 1417 81 1417 131 l 1417 50 q 1361 13 1393 13 q 1311 68 1321 13 l 1311 81 q 1367 131 1311 131 m 1522 131 q 1565 94 1565 131 l 1553 87 q 1516 112 1532 112 q 1491 75 1491 106 l 1491 56 q 1510 38 1491 47 l 1528 38 q 1559 62 1556 62 l 1565 50 l 1565 44 q 1516 13 1548 13 q 1466 87 1466 13 q 1522 131 1485 131 m 1627 131 q 1683 75 1683 122 l 1683 68 q 1627 13 1675 13 q 1571 75 1571 27 q 1627 131 1584 131 m 1708 131 l 1714 131 q 1745 50 1728 131 l 1751 50 q 1788 131 1771 131 q 1801 118 1801 129 l 1801 32 q 1788 19 1801 19 q 1782 75 1782 23 l 1775 75 q 1751 19 1763 19 l 1745 19 q 1720 81 1731 19 l 1714 81 q 1702 19 1714 19 l 1695 32 l 1695 118 q 1708 131 1697 131 m 847 87 l 847 56 q 865 38 847 47 l 890 38 q 909 56 899 38 l 909 87 q 884 112 909 97 l 871 112 q 847 87 862 112 m 958 75 q 983 38 971 38 l 1008 38 q 1027 75 1027 44 q 989 112 1021 112 q 958 75 971 111 m 1219 75 l 1219 56 q 1237 38 1219 47 l 1261 38 q 1280 56 1271 38 l 1280 87 q 1255 112 1280 97 q 1219 75 1219 112 m 1330 68 q 1355 38 1342 40 l 1379 38 q 1398 75 1398 44 q 1361 112 1393 112 q 1330 68 1330 102 m 1596 87 l 1596 75 q 1615 38 1600 38 l 1640 38 q 1658 56 1649 38 l 1658 75 q 1627 112 1658 112 q 1596 87 1599 100 m 593 81 l 593 68 l 611 68 l 611 75 q 605 94 605 87 q 593 81 593 92 m 456 38 l 463 25 l 450 19 l 444 32 l 456 38 m 1441 38 q 1454 25 1454 36 l 1441 19 q 1429 32 1429 19 l 1441 38 z "},"=":{"ha":1843,"x_min":17,"x_max":1801,"o":"m 921 1158 q 1033 1065 977 1158 q 1082 991 1082 1031 l 1082 972 q 1051 917 1082 949 l 1051 873 q 1082 855 1082 869 q 1045 793 1045 849 l 1045 738 l 1033 738 l 1033 781 q 989 762 1010 762 l 977 762 q 958 781 968 762 q 964 787 958 787 q 958 831 958 812 l 946 824 l 946 837 q 1002 892 964 881 l 1039 880 l 1039 899 l 996 905 q 952 886 975 905 l 946 899 q 977 924 977 915 l 964 924 l 934 917 l 903 924 q 884 917 896 924 q 841 924 859 924 q 779 917 833 924 q 772 924 779 924 l 766 911 l 779 905 l 772 892 l 772 880 q 828 892 819 892 q 884 831 884 873 l 871 837 l 871 806 l 878 774 l 859 762 l 841 762 q 785 831 785 762 l 779 831 l 779 806 q 853 663 779 663 q 921 638 853 652 q 1027 725 1027 674 l 1039 725 q 1021 675 1039 713 q 1014 558 1014 577 q 1144 484 1144 532 q 1150 452 1150 473 l 1150 347 q 1156 218 1150 298 q 1132 186 1144 189 l 1126 186 l 1126 193 l 1138 211 l 1138 353 q 1114 359 1124 353 q 946 236 1114 236 l 946 248 q 1039 260 1025 260 l 1039 267 q 667 317 736 317 q 649 279 667 284 l 642 279 l 642 286 l 655 311 q 618 323 631 311 l 618 317 q 636 242 618 307 q 587 527 601 242 q 655 645 601 645 q 649 750 649 718 l 649 806 q 779 1134 649 1064 q 921 1158 818 1152 m 1008 924 l 1008 917 l 1039 911 l 1039 924 l 1008 924 m 859 917 q 890 892 888 905 l 890 886 l 884 886 l 853 905 q 785 899 798 899 l 785 911 q 859 917 795 911 m 748 855 l 748 831 q 760 843 760 831 q 748 855 760 855 m 785 855 l 791 824 l 797 824 l 797 855 l 785 855 m 1039 855 q 1033 818 1033 823 l 1033 812 l 1039 812 q 1045 849 1039 817 l 1045 855 l 1039 855 m 835 849 q 847 837 836 837 l 853 849 l 835 849 m 816 812 l 816 800 q 853 774 822 774 l 859 806 l 847 812 q 822 806 836 806 q 816 812 822 812 m 946 818 q 958 793 946 808 l 958 787 q 934 812 949 787 l 946 818 m 996 812 l 989 800 l 977 806 l 970 806 q 989 774 979 774 l 996 774 q 1014 793 1004 774 l 1014 806 q 996 812 1008 806 m 909 725 l 934 725 q 921 713 934 713 l 909 713 l 909 725 m 884 700 l 890 700 l 903 694 q 928 700 913 700 q 946 682 936 700 q 928 663 946 673 l 909 663 q 884 694 900 664 l 884 700 m 828 657 q 822 601 822 614 q 871 564 868 578 l 871 558 q 797 595 822 595 l 797 583 q 871 552 797 569 q 909 521 871 545 q 964 533 956 533 l 958 521 q 983 539 983 524 l 996 539 q 1063 521 1056 521 l 1063 533 q 996 545 1057 533 l 940 545 l 940 558 l 989 558 l 989 564 q 946 632 946 573 l 934 626 l 921 626 q 828 657 886 626 m 667 638 q 717 595 681 607 l 717 601 q 673 638 707 638 l 667 638 m 630 614 l 636 614 q 649 626 649 614 l 649 632 q 630 614 640 632 m 928 595 l 934 595 q 909 558 921 558 q 897 570 897 558 l 897 576 l 909 570 q 928 595 918 595 m 692 558 l 698 527 l 692 496 l 711 484 l 723 484 l 717 514 l 717 539 l 729 539 l 723 583 l 692 558 m 605 576 l 605 545 l 611 545 l 611 576 l 605 576 m 797 552 l 797 545 l 816 545 l 816 539 l 810 527 l 828 527 l 822 539 q 828 545 828 539 q 810 552 822 545 l 797 552 m 847 552 l 847 545 q 871 533 857 545 l 871 539 l 853 552 l 847 552 m 599 527 l 599 521 q 630 496 630 521 l 642 496 q 661 527 644 527 q 655 545 655 539 l 649 545 q 599 527 633 527 m 680 539 l 673 514 l 673 503 l 680 503 l 686 533 l 686 539 l 680 539 m 1002 514 l 996 503 q 1002 496 1002 503 q 996 490 996 496 l 1008 490 q 1039 508 1008 508 l 1039 514 l 1002 514 m 1088 521 l 1082 508 l 1082 465 q 1120 378 1105 378 l 1132 397 q 1120 410 1120 397 l 1132 410 q 1120 421 1132 421 l 1114 421 l 1120 410 l 1114 410 q 1101 421 1101 410 l 1120 446 q 1114 465 1114 458 l 1126 471 l 1138 465 l 1138 471 q 1088 521 1126 521 m 797 503 q 915 378 797 414 l 915 434 q 928 421 928 432 l 928 378 l 977 378 q 1045 446 1045 378 q 1051 503 1051 469 l 1045 503 q 952 446 979 446 l 952 452 l 940 446 l 921 459 q 909 446 921 446 q 890 465 909 456 l 871 452 q 847 477 847 469 l 835 471 l 828 484 q 835 490 835 484 q 816 503 816 490 q 822 508 822 503 l 810 508 l 797 503 m 642 490 l 636 477 l 636 471 l 642 471 q 655 484 655 471 l 642 490 m 605 484 l 605 428 q 636 440 621 440 l 636 459 l 630 471 l 618 465 l 611 465 l 611 484 l 605 484 m 958 484 l 958 477 q 970 465 960 465 l 970 471 q 958 484 970 484 m 655 465 l 649 452 l 667 452 q 655 465 667 465 m 624 428 q 605 410 624 410 q 618 397 607 397 l 636 421 l 624 428 m 704 428 l 704 410 q 723 404 711 410 l 723 428 l 704 428 m 680 404 l 680 397 q 704 385 689 397 l 704 391 q 698 410 698 403 q 680 404 686 404 m 1126 372 l 1126 366 q 1138 378 1138 366 l 1138 385 q 1126 372 1126 382 m 686 378 l 686 372 q 742 335 715 372 l 735 335 q 729 341 729 335 l 717 335 l 686 341 l 667 341 l 667 335 l 772 317 l 772 323 q 723 378 762 355 l 723 372 q 754 341 731 372 l 754 335 q 692 378 707 378 l 686 378 m 661 372 l 661 366 q 704 347 673 366 l 711 347 l 711 353 q 667 372 698 353 l 661 372 m 636 323 l 642 323 q 655 335 655 323 l 649 335 q 636 323 636 333 m 29 131 q 54 56 45 131 l 60 56 q 91 131 73 131 q 122 62 105 131 l 129 62 q 153 131 133 131 l 172 131 q 197 62 182 131 l 203 62 q 228 131 212 131 l 234 131 q 258 62 250 131 l 264 62 q 290 131 277 131 l 308 131 q 332 62 327 131 q 363 131 340 62 l 370 131 q 401 62 387 131 l 408 62 q 432 131 414 131 l 438 131 l 438 118 q 401 19 422 19 q 376 87 385 19 l 363 87 q 339 19 355 19 q 302 112 321 19 l 296 112 q 264 19 281 19 q 234 94 244 19 l 228 94 q 197 19 215 19 q 165 106 178 19 q 129 19 157 106 l 122 19 q 91 87 109 19 l 85 87 q 60 19 76 19 l 54 19 q 17 125 42 19 l 29 131 m 488 131 l 556 131 q 568 118 568 129 q 531 106 568 106 l 531 32 q 518 19 531 19 q 507 32 507 19 l 507 106 q 475 118 475 106 q 488 131 477 131 m 599 131 q 655 25 615 131 l 642 19 q 624 50 625 19 l 581 50 q 562 19 576 19 l 549 25 q 599 131 588 131 m 655 131 l 810 131 q 822 118 822 129 q 791 106 822 106 l 791 32 q 779 19 791 19 q 766 32 766 19 l 766 106 q 735 112 735 106 q 698 106 726 106 l 698 32 q 686 19 698 19 q 673 32 673 19 l 673 106 q 642 118 642 106 q 655 131 644 131 m 878 131 q 934 75 934 122 q 884 13 934 28 q 822 75 822 21 q 878 131 830 131 m 996 131 q 1045 81 1045 131 l 1045 50 q 989 13 1021 13 q 940 68 949 13 l 940 94 q 996 131 962 131 m 1063 131 q 1082 62 1082 106 l 1095 62 q 1120 131 1103 131 l 1126 131 q 1150 56 1139 131 l 1156 56 q 1181 131 1164 131 q 1194 118 1194 129 q 1156 19 1166 19 l 1150 19 q 1126 94 1136 19 l 1120 94 q 1088 19 1103 19 q 1051 125 1069 19 l 1063 131 m 1249 131 q 1305 62 1305 131 q 1249 13 1285 13 q 1194 87 1194 13 q 1249 131 1212 131 m 1367 131 q 1417 81 1417 131 l 1417 50 q 1361 13 1393 13 q 1311 68 1321 13 l 1311 81 q 1367 131 1311 131 m 1522 131 q 1565 94 1565 131 l 1553 87 q 1516 112 1532 112 q 1491 75 1491 106 l 1491 56 q 1510 38 1491 47 l 1528 38 q 1559 62 1556 62 l 1565 50 l 1565 44 q 1516 13 1548 13 q 1466 87 1466 13 q 1522 131 1485 131 m 1627 131 q 1683 75 1683 122 l 1683 68 q 1627 13 1675 13 q 1571 75 1571 27 q 1627 131 1584 131 m 1708 131 l 1714 131 q 1745 50 1728 131 l 1751 50 q 1788 131 1771 131 q 1801 118 1801 129 l 1801 32 q 1788 19 1801 19 q 1782 75 1782 23 l 1775 75 q 1751 19 1763 19 l 1745 19 q 1720 81 1731 19 l 1714 81 q 1702 19 1714 19 l 1695 32 l 1695 118 q 1708 131 1697 131 m 847 87 l 847 56 q 865 38 847 47 l 890 38 q 909 56 899 38 l 909 87 q 884 112 909 97 l 871 112 q 847 87 862 112 m 958 75 q 983 38 971 38 l 1008 38 q 1027 75 1027 44 q 989 112 1021 112 q 958 75 971 111 m 1219 75 l 1219 56 q 1237 38 1219 47 l 1261 38 q 1280 56 1271 38 l 1280 87 q 1255 112 1280 97 q 1219 75 1219 112 m 1330 68 q 1355 38 1342 40 l 1379 38 q 1398 75 1398 44 q 1361 112 1393 112 q 1330 68 1330 102 m 1596 87 l 1596 75 q 1615 38 1600 38 l 1640 38 q 1658 56 1649 38 l 1658 75 q 1627 112 1658 112 q 1596 87 1599 100 m 593 81 l 593 68 l 611 68 l 611 75 q 605 94 605 87 q 593 81 593 92 m 456 38 l 463 25 l 450 19 l 444 32 l 456 38 m 1441 38 q 1454 25 1454 36 l 1441 19 q 1429 32 1429 19 l 1441 38 z "},">":{"ha":1843,"x_min":17,"x_max":1801,"o":"m 921 1158 q 1033 1065 977 1158 q 1082 991 1082 1031 l 1082 972 q 1051 917 1082 949 l 1051 873 q 1082 855 1082 869 q 1045 793 1045 849 l 1045 738 l 1033 738 l 1033 781 q 989 762 1010 762 l 977 762 q 958 781 968 762 q 964 787 958 787 q 958 831 958 812 l 946 824 l 946 837 q 1002 892 964 881 l 1039 880 l 1039 899 l 996 905 q 952 886 975 905 l 946 899 q 977 924 977 915 l 964 924 l 934 917 l 903 924 q 884 917 896 924 q 841 924 859 924 q 779 917 833 924 q 772 924 779 924 l 766 911 l 779 905 l 772 892 l 772 880 q 828 892 819 892 q 884 831 884 873 l 871 837 l 871 806 l 878 774 l 859 762 l 841 762 q 785 831 785 762 l 779 831 l 779 806 q 853 663 779 663 q 921 638 853 652 q 1027 725 1027 674 l 1039 725 q 1021 675 1039 713 q 1014 558 1014 577 q 1144 484 1144 532 q 1150 452 1150 473 l 1150 347 q 1156 218 1150 298 q 1132 186 1144 189 l 1126 186 l 1126 193 l 1138 211 l 1138 353 q 1114 359 1124 353 q 946 236 1114 236 l 946 248 q 1039 260 1025 260 l 1039 267 q 667 317 736 317 q 649 279 667 284 l 642 279 l 642 286 l 655 311 q 618 323 631 311 l 618 317 q 636 242 618 307 q 587 527 601 242 q 655 645 601 645 q 649 750 649 718 l 649 806 q 779 1134 649 1064 q 921 1158 818 1152 m 1008 924 l 1008 917 l 1039 911 l 1039 924 l 1008 924 m 859 917 q 890 892 888 905 l 890 886 l 884 886 l 853 905 q 785 899 798 899 l 785 911 q 859 917 795 911 m 748 855 l 748 831 q 760 843 760 831 q 748 855 760 855 m 785 855 l 791 824 l 797 824 l 797 855 l 785 855 m 1039 855 q 1033 818 1033 823 l 1033 812 l 1039 812 q 1045 849 1039 817 l 1045 855 l 1039 855 m 835 849 q 847 837 836 837 l 853 849 l 835 849 m 816 812 l 816 800 q 853 774 822 774 l 859 806 l 847 812 q 822 806 836 806 q 816 812 822 812 m 946 818 q 958 793 946 808 l 958 787 q 934 812 949 787 l 946 818 m 996 812 l 989 800 l 977 806 l 970 806 q 989 774 979 774 l 996 774 q 1014 793 1004 774 l 1014 806 q 996 812 1008 806 m 909 725 l 934 725 q 921 713 934 713 l 909 713 l 909 725 m 884 700 l 890 700 l 903 694 q 928 700 913 700 q 946 682 936 700 q 928 663 946 673 l 909 663 q 884 694 900 664 l 884 700 m 828 657 q 822 601 822 614 q 871 564 868 578 l 871 558 q 797 595 822 595 l 797 583 q 871 552 797 569 q 909 521 871 545 q 964 533 956 533 l 958 521 q 983 539 983 524 l 996 539 q 1063 521 1056 521 l 1063 533 q 996 545 1057 533 l 940 545 l 940 558 l 989 558 l 989 564 q 946 632 946 573 l 934 626 l 921 626 q 828 657 886 626 m 667 638 q 717 595 681 607 l 717 601 q 673 638 707 638 l 667 638 m 630 614 l 636 614 q 649 626 649 614 l 649 632 q 630 614 640 632 m 928 595 l 934 595 q 909 558 921 558 q 897 570 897 558 l 897 576 l 909 570 q 928 595 918 595 m 692 558 l 698 527 l 692 496 l 711 484 l 723 484 l 717 514 l 717 539 l 729 539 l 723 583 l 692 558 m 605 576 l 605 545 l 611 545 l 611 576 l 605 576 m 797 552 l 797 545 l 816 545 l 816 539 l 810 527 l 828 527 l 822 539 q 828 545 828 539 q 810 552 822 545 l 797 552 m 847 552 l 847 545 q 871 533 857 545 l 871 539 l 853 552 l 847 552 m 599 527 l 599 521 q 630 496 630 521 l 642 496 q 661 527 644 527 q 655 545 655 539 l 649 545 q 599 527 633 527 m 680 539 l 673 514 l 673 503 l 680 503 l 686 533 l 686 539 l 680 539 m 1002 514 l 996 503 q 1002 496 1002 503 q 996 490 996 496 l 1008 490 q 1039 508 1008 508 l 1039 514 l 1002 514 m 1088 521 l 1082 508 l 1082 465 q 1120 378 1105 378 l 1132 397 q 1120 410 1120 397 l 1132 410 q 1120 421 1132 421 l 1114 421 l 1120 410 l 1114 410 q 1101 421 1101 410 l 1120 446 q 1114 465 1114 458 l 1126 471 l 1138 465 l 1138 471 q 1088 521 1126 521 m 797 503 q 915 378 797 414 l 915 434 q 928 421 928 432 l 928 378 l 977 378 q 1045 446 1045 378 q 1051 503 1051 469 l 1045 503 q 952 446 979 446 l 952 452 l 940 446 l 921 459 q 909 446 921 446 q 890 465 909 456 l 871 452 q 847 477 847 469 l 835 471 l 828 484 q 835 490 835 484 q 816 503 816 490 q 822 508 822 503 l 810 508 l 797 503 m 642 490 l 636 477 l 636 471 l 642 471 q 655 484 655 471 l 642 490 m 605 484 l 605 428 q 636 440 621 440 l 636 459 l 630 471 l 618 465 l 611 465 l 611 484 l 605 484 m 958 484 l 958 477 q 970 465 960 465 l 970 471 q 958 484 970 484 m 655 465 l 649 452 l 667 452 q 655 465 667 465 m 624 428 q 605 410 624 410 q 618 397 607 397 l 636 421 l 624 428 m 704 428 l 704 410 q 723 404 711 410 l 723 428 l 704 428 m 680 404 l 680 397 q 704 385 689 397 l 704 391 q 698 410 698 403 q 680 404 686 404 m 1126 372 l 1126 366 q 1138 378 1138 366 l 1138 385 q 1126 372 1126 382 m 686 378 l 686 372 q 742 335 715 372 l 735 335 q 729 341 729 335 l 717 335 l 686 341 l 667 341 l 667 335 l 772 317 l 772 323 q 723 378 762 355 l 723 372 q 754 341 731 372 l 754 335 q 692 378 707 378 l 686 378 m 661 372 l 661 366 q 704 347 673 366 l 711 347 l 711 353 q 667 372 698 353 l 661 372 m 636 323 l 642 323 q 655 335 655 323 l 649 335 q 636 323 636 333 m 29 131 q 54 56 45 131 l 60 56 q 91 131 73 131 q 122 62 105 131 l 129 62 q 153 131 133 131 l 172 131 q 197 62 182 131 l 203 62 q 228 131 212 131 l 234 131 q 258 62 250 131 l 264 62 q 290 131 277 131 l 308 131 q 332 62 327 131 q 363 131 340 62 l 370 131 q 401 62 387 131 l 408 62 q 432 131 414 131 l 438 131 l 438 118 q 401 19 422 19 q 376 87 385 19 l 363 87 q 339 19 355 19 q 302 112 321 19 l 296 112 q 264 19 281 19 q 234 94 244 19 l 228 94 q 197 19 215 19 q 165 106 178 19 q 129 19 157 106 l 122 19 q 91 87 109 19 l 85 87 q 60 19 76 19 l 54 19 q 17 125 42 19 l 29 131 m 488 131 l 556 131 q 568 118 568 129 q 531 106 568 106 l 531 32 q 518 19 531 19 q 507 32 507 19 l 507 106 q 475 118 475 106 q 488 131 477 131 m 599 131 q 655 25 615 131 l 642 19 q 624 50 625 19 l 581 50 q 562 19 576 19 l 549 25 q 599 131 588 131 m 655 131 l 810 131 q 822 118 822 129 q 791 106 822 106 l 791 32 q 779 19 791 19 q 766 32 766 19 l 766 106 q 735 112 735 106 q 698 106 726 106 l 698 32 q 686 19 698 19 q 673 32 673 19 l 673 106 q 642 118 642 106 q 655 131 644 131 m 878 131 q 934 75 934 122 q 884 13 934 28 q 822 75 822 21 q 878 131 830 131 m 996 131 q 1045 81 1045 131 l 1045 50 q 989 13 1021 13 q 940 68 949 13 l 940 94 q 996 131 962 131 m 1063 131 q 1082 62 1082 106 l 1095 62 q 1120 131 1103 131 l 1126 131 q 1150 56 1139 131 l 1156 56 q 1181 131 1164 131 q 1194 118 1194 129 q 1156 19 1166 19 l 1150 19 q 1126 94 1136 19 l 1120 94 q 1088 19 1103 19 q 1051 125 1069 19 l 1063 131 m 1249 131 q 1305 62 1305 131 q 1249 13 1285 13 q 1194 87 1194 13 q 1249 131 1212 131 m 1367 131 q 1417 81 1417 131 l 1417 50 q 1361 13 1393 13 q 1311 68 1321 13 l 1311 81 q 1367 131 1311 131 m 1522 131 q 1565 94 1565 131 l 1553 87 q 1516 112 1532 112 q 1491 75 1491 106 l 1491 56 q 1510 38 1491 47 l 1528 38 q 1559 62 1556 62 l 1565 50 l 1565 44 q 1516 13 1548 13 q 1466 87 1466 13 q 1522 131 1485 131 m 1627 131 q 1683 75 1683 122 l 1683 68 q 1627 13 1675 13 q 1571 75 1571 27 q 1627 131 1584 131 m 1708 131 l 1714 131 q 1745 50 1728 131 l 1751 50 q 1788 131 1771 131 q 1801 118 1801 129 l 1801 32 q 1788 19 1801 19 q 1782 75 1782 23 l 1775 75 q 1751 19 1763 19 l 1745 19 q 1720 81 1731 19 l 1714 81 q 1702 19 1714 19 l 1695 32 l 1695 118 q 1708 131 1697 131 m 847 87 l 847 56 q 865 38 847 47 l 890 38 q 909 56 899 38 l 909 87 q 884 112 909 97 l 871 112 q 847 87 862 112 m 958 75 q 983 38 971 38 l 1008 38 q 1027 75 1027 44 q 989 112 1021 112 q 958 75 971 111 m 1219 75 l 1219 56 q 1237 38 1219 47 l 1261 38 q 1280 56 1271 38 l 1280 87 q 1255 112 1280 97 q 1219 75 1219 112 m 1330 68 q 1355 38 1342 40 l 1379 38 q 1398 75 1398 44 q 1361 112 1393 112 q 1330 68 1330 102 m 1596 87 l 1596 75 q 1615 38 1600 38 l 1640 38 q 1658 56 1649 38 l 1658 75 q 1627 112 1658 112 q 1596 87 1599 100 m 593 81 l 593 68 l 611 68 l 611 75 q 605 94 605 87 q 593 81 593 92 m 456 38 l 463 25 l 450 19 l 444 32 l 456 38 m 1441 38 q 1454 25 1454 36 l 1441 19 q 1429 32 1429 19 l 1441 38 z "},"?":{"ha":1843,"x_min":17,"x_max":1801,"o":"m 921 1158 q 1033 1065 977 1158 q 1082 991 1082 1031 l 1082 972 q 1051 917 1082 949 l 1051 873 q 1082 855 1082 869 q 1045 793 1045 849 l 1045 738 l 1033 738 l 1033 781 q 989 762 1010 762 l 977 762 q 958 781 968 762 q 964 787 958 787 q 958 831 958 812 l 946 824 l 946 837 q 1002 892 964 881 l 1039 880 l 1039 899 l 996 905 q 952 886 975 905 l 946 899 q 977 924 977 915 l 964 924 l 934 917 l 903 924 q 884 917 896 924 q 841 924 859 924 q 779 917 833 924 q 772 924 779 924 l 766 911 l 779 905 l 772 892 l 772 880 q 828 892 819 892 q 884 831 884 873 l 871 837 l 871 806 l 878 774 l 859 762 l 841 762 q 785 831 785 762 l 779 831 l 779 806 q 853 663 779 663 q 921 638 853 652 q 1027 725 1027 674 l 1039 725 q 1021 675 1039 713 q 1014 558 1014 577 q 1144 484 1144 532 q 1150 452 1150 473 l 1150 347 q 1156 218 1150 298 q 1132 186 1144 189 l 1126 186 l 1126 193 l 1138 211 l 1138 353 q 1114 359 1124 353 q 946 236 1114 236 l 946 248 q 1039 260 1025 260 l 1039 267 q 667 317 736 317 q 649 279 667 284 l 642 279 l 642 286 l 655 311 q 618 323 631 311 l 618 317 q 636 242 618 307 q 587 527 601 242 q 655 645 601 645 q 649 750 649 718 l 649 806 q 779 1134 649 1064 q 921 1158 818 1152 m 1008 924 l 1008 917 l 1039 911 l 1039 924 l 1008 924 m 859 917 q 890 892 888 905 l 890 886 l 884 886 l 853 905 q 785 899 798 899 l 785 911 q 859 917 795 911 m 748 855 l 748 831 q 760 843 760 831 q 748 855 760 855 m 785 855 l 791 824 l 797 824 l 797 855 l 785 855 m 1039 855 q 1033 818 1033 823 l 1033 812 l 1039 812 q 1045 849 1039 817 l 1045 855 l 1039 855 m 835 849 q 847 837 836 837 l 853 849 l 835 849 m 816 812 l 816 800 q 853 774 822 774 l 859 806 l 847 812 q 822 806 836 806 q 816 812 822 812 m 946 818 q 958 793 946 808 l 958 787 q 934 812 949 787 l 946 818 m 996 812 l 989 800 l 977 806 l 970 806 q 989 774 979 774 l 996 774 q 1014 793 1004 774 l 1014 806 q 996 812 1008 806 m 909 725 l 934 725 q 921 713 934 713 l 909 713 l 909 725 m 884 700 l 890 700 l 903 694 q 928 700 913 700 q 946 682 936 700 q 928 663 946 673 l 909 663 q 884 694 900 664 l 884 700 m 828 657 q 822 601 822 614 q 871 564 868 578 l 871 558 q 797 595 822 595 l 797 583 q 871 552 797 569 q 909 521 871 545 q 964 533 956 533 l 958 521 q 983 539 983 524 l 996 539 q 1063 521 1056 521 l 1063 533 q 996 545 1057 533 l 940 545 l 940 558 l 989 558 l 989 564 q 946 632 946 573 l 934 626 l 921 626 q 828 657 886 626 m 667 638 q 717 595 681 607 l 717 601 q 673 638 707 638 l 667 638 m 630 614 l 636 614 q 649 626 649 614 l 649 632 q 630 614 640 632 m 928 595 l 934 595 q 909 558 921 558 q 897 570 897 558 l 897 576 l 909 570 q 928 595 918 595 m 692 558 l 698 527 l 692 496 l 711 484 l 723 484 l 717 514 l 717 539 l 729 539 l 723 583 l 692 558 m 605 576 l 605 545 l 611 545 l 611 576 l 605 576 m 797 552 l 797 545 l 816 545 l 816 539 l 810 527 l 828 527 l 822 539 q 828 545 828 539 q 810 552 822 545 l 797 552 m 847 552 l 847 545 q 871 533 857 545 l 871 539 l 853 552 l 847 552 m 599 527 l 599 521 q 630 496 630 521 l 642 496 q 661 527 644 527 q 655 545 655 539 l 649 545 q 599 527 633 527 m 680 539 l 673 514 l 673 503 l 680 503 l 686 533 l 686 539 l 680 539 m 1002 514 l 996 503 q 1002 496 1002 503 q 996 490 996 496 l 1008 490 q 1039 508 1008 508 l 1039 514 l 1002 514 m 1088 521 l 1082 508 l 1082 465 q 1120 378 1105 378 l 1132 397 q 1120 410 1120 397 l 1132 410 q 1120 421 1132 421 l 1114 421 l 1120 410 l 1114 410 q 1101 421 1101 410 l 1120 446 q 1114 465 1114 458 l 1126 471 l 1138 465 l 1138 471 q 1088 521 1126 521 m 797 503 q 915 378 797 414 l 915 434 q 928 421 928 432 l 928 378 l 977 378 q 1045 446 1045 378 q 1051 503 1051 469 l 1045 503 q 952 446 979 446 l 952 452 l 940 446 l 921 459 q 909 446 921 446 q 890 465 909 456 l 871 452 q 847 477 847 469 l 835 471 l 828 484 q 835 490 835 484 q 816 503 816 490 q 822 508 822 503 l 810 508 l 797 503 m 642 490 l 636 477 l 636 471 l 642 471 q 655 484 655 471 l 642 490 m 605 484 l 605 428 q 636 440 621 440 l 636 459 l 630 471 l 618 465 l 611 465 l 611 484 l 605 484 m 958 484 l 958 477 q 970 465 960 465 l 970 471 q 958 484 970 484 m 655 465 l 649 452 l 667 452 q 655 465 667 465 m 624 428 q 605 410 624 410 q 618 397 607 397 l 636 421 l 624 428 m 704 428 l 704 410 q 723 404 711 410 l 723 428 l 704 428 m 680 404 l 680 397 q 704 385 689 397 l 704 391 q 698 410 698 403 q 680 404 686 404 m 1126 372 l 1126 366 q 1138 378 1138 366 l 1138 385 q 1126 372 1126 382 m 686 378 l 686 372 q 742 335 715 372 l 735 335 q 729 341 729 335 l 717 335 l 686 341 l 667 341 l 667 335 l 772 317 l 772 323 q 723 378 762 355 l 723 372 q 754 341 731 372 l 754 335 q 692 378 707 378 l 686 378 m 661 372 l 661 366 q 704 347 673 366 l 711 347 l 711 353 q 667 372 698 353 l 661 372 m 636 323 l 642 323 q 655 335 655 323 l 649 335 q 636 323 636 333 m 29 131 q 54 56 45 131 l 60 56 q 91 131 73 131 q 122 62 105 131 l 129 62 q 153 131 133 131 l 172 131 q 197 62 182 131 l 203 62 q 228 131 212 131 l 234 131 q 258 62 250 131 l 264 62 q 290 131 277 131 l 308 131 q 332 62 327 131 q 363 131 340 62 l 370 131 q 401 62 387 131 l 408 62 q 432 131 414 131 l 438 131 l 438 118 q 401 19 422 19 q 376 87 385 19 l 363 87 q 339 19 355 19 q 302 112 321 19 l 296 112 q 264 19 281 19 q 234 94 244 19 l 228 94 q 197 19 215 19 q 165 106 178 19 q 129 19 157 106 l 122 19 q 91 87 109 19 l 85 87 q 60 19 76 19 l 54 19 q 17 125 42 19 l 29 131 m 488 131 l 556 131 q 568 118 568 129 q 531 106 568 106 l 531 32 q 518 19 531 19 q 507 32 507 19 l 507 106 q 475 118 475 106 q 488 131 477 131 m 599 131 q 655 25 615 131 l 642 19 q 624 50 625 19 l 581 50 q 562 19 576 19 l 549 25 q 599 131 588 131 m 655 131 l 810 131 q 822 118 822 129 q 791 106 822 106 l 791 32 q 779 19 791 19 q 766 32 766 19 l 766 106 q 735 112 735 106 q 698 106 726 106 l 698 32 q 686 19 698 19 q 673 32 673 19 l 673 106 q 642 118 642 106 q 655 131 644 131 m 878 131 q 934 75 934 122 q 884 13 934 28 q 822 75 822 21 q 878 131 830 131 m 996 131 q 1045 81 1045 131 l 1045 50 q 989 13 1021 13 q 940 68 949 13 l 940 94 q 996 131 962 131 m 1063 131 q 1082 62 1082 106 l 1095 62 q 1120 131 1103 131 l 1126 131 q 1150 56 1139 131 l 1156 56 q 1181 131 1164 131 q 1194 118 1194 129 q 1156 19 1166 19 l 1150 19 q 1126 94 1136 19 l 1120 94 q 1088 19 1103 19 q 1051 125 1069 19 l 1063 131 m 1249 131 q 1305 62 1305 131 q 1249 13 1285 13 q 1194 87 1194 13 q 1249 131 1212 131 m 1367 131 q 1417 81 1417 131 l 1417 50 q 1361 13 1393 13 q 1311 68 1321 13 l 1311 81 q 1367 131 1311 131 m 1522 131 q 1565 94 1565 131 l 1553 87 q 1516 112 1532 112 q 1491 75 1491 106 l 1491 56 q 1510 38 1491 47 l 1528 38 q 1559 62 1556 62 l 1565 50 l 1565 44 q 1516 13 1548 13 q 1466 87 1466 13 q 1522 131 1485 131 m 1627 131 q 1683 75 1683 122 l 1683 68 q 1627 13 1675 13 q 1571 75 1571 27 q 1627 131 1584 131 m 1708 131 l 1714 131 q 1745 50 1728 131 l 1751 50 q 1788 131 1771 131 q 1801 118 1801 129 l 1801 32 q 1788 19 1801 19 q 1782 75 1782 23 l 1775 75 q 1751 19 1763 19 l 1745 19 q 1720 81 1731 19 l 1714 81 q 1702 19 1714 19 l 1695 32 l 1695 118 q 1708 131 1697 131 m 847 87 l 847 56 q 865 38 847 47 l 890 38 q 909 56 899 38 l 909 87 q 884 112 909 97 l 871 112 q 847 87 862 112 m 958 75 q 983 38 971 38 l 1008 38 q 1027 75 1027 44 q 989 112 1021 112 q 958 75 971 111 m 1219 75 l 1219 56 q 1237 38 1219 47 l 1261 38 q 1280 56 1271 38 l 1280 87 q 1255 112 1280 97 q 1219 75 1219 112 m 1330 68 q 1355 38 1342 40 l 1379 38 q 1398 75 1398 44 q 1361 112 1393 112 q 1330 68 1330 102 m 1596 87 l 1596 75 q 1615 38 1600 38 l 1640 38 q 1658 56 1649 38 l 1658 75 q 1627 112 1658 112 q 1596 87 1599 100 m 593 81 l 593 68 l 611 68 l 611 75 q 605 94 605 87 q 593 81 593 92 m 456 38 l 463 25 l 450 19 l 444 32 l 456 38 m 1441 38 q 1454 25 1454 36 l 1441 19 q 1429 32 1429 19 l 1441 38 z "},"@":{"ha":1843,"x_min":17,"x_max":1801,"o":"m 921 1158 q 1033 1065 977 1158 q 1082 991 1082 1031 l 1082 972 q 1051 917 1082 949 l 1051 873 q 1082 855 1082 869 q 1045 793 1045 849 l 1045 738 l 1033 738 l 1033 781 q 989 762 1010 762 l 977 762 q 958 781 968 762 q 964 787 958 787 q 958 831 958 812 l 946 824 l 946 837 q 1002 892 964 881 l 1039 880 l 1039 899 l 996 905 q 952 886 975 905 l 946 899 q 977 924 977 915 l 964 924 l 934 917 l 903 924 q 884 917 896 924 q 841 924 859 924 q 779 917 833 924 q 772 924 779 924 l 766 911 l 779 905 l 772 892 l 772 880 q 828 892 819 892 q 884 831 884 873 l 871 837 l 871 806 l 878 774 l 859 762 l 841 762 q 785 831 785 762 l 779 831 l 779 806 q 853 663 779 663 q 921 638 853 652 q 1027 725 1027 674 l 1039 725 q 1021 675 1039 713 q 1014 558 1014 577 q 1144 484 1144 532 q 1150 452 1150 473 l 1150 347 q 1156 218 1150 298 q 1132 186 1144 189 l 1126 186 l 1126 193 l 1138 211 l 1138 353 q 1114 359 1124 353 q 946 236 1114 236 l 946 248 q 1039 260 1025 260 l 1039 267 q 667 317 736 317 q 649 279 667 284 l 642 279 l 642 286 l 655 311 q 618 323 631 311 l 618 317 q 636 242 618 307 q 587 527 601 242 q 655 645 601 645 q 649 750 649 718 l 649 806 q 779 1134 649 1064 q 921 1158 818 1152 m 1008 924 l 1008 917 l 1039 911 l 1039 924 l 1008 924 m 859 917 q 890 892 888 905 l 890 886 l 884 886 l 853 905 q 785 899 798 899 l 785 911 q 859 917 795 911 m 748 855 l 748 831 q 760 843 760 831 q 748 855 760 855 m 785 855 l 791 824 l 797 824 l 797 855 l 785 855 m 1039 855 q 1033 818 1033 823 l 1033 812 l 1039 812 q 1045 849 1039 817 l 1045 855 l 1039 855 m 835 849 q 847 837 836 837 l 853 849 l 835 849 m 816 812 l 816 800 q 853 774 822 774 l 859 806 l 847 812 q 822 806 836 806 q 816 812 822 812 m 946 818 q 958 793 946 808 l 958 787 q 934 812 949 787 l 946 818 m 996 812 l 989 800 l 977 806 l 970 806 q 989 774 979 774 l 996 774 q 1014 793 1004 774 l 1014 806 q 996 812 1008 806 m 909 725 l 934 725 q 921 713 934 713 l 909 713 l 909 725 m 884 700 l 890 700 l 903 694 q 928 700 913 700 q 946 682 936 700 q 928 663 946 673 l 909 663 q 884 694 900 664 l 884 700 m 828 657 q 822 601 822 614 q 871 564 868 578 l 871 558 q 797 595 822 595 l 797 583 q 871 552 797 569 q 909 521 871 545 q 964 533 956 533 l 958 521 q 983 539 983 524 l 996 539 q 1063 521 1056 521 l 1063 533 q 996 545 1057 533 l 940 545 l 940 558 l 989 558 l 989 564 q 946 632 946 573 l 934 626 l 921 626 q 828 657 886 626 m 667 638 q 717 595 681 607 l 717 601 q 673 638 707 638 l 667 638 m 630 614 l 636 614 q 649 626 649 614 l 649 632 q 630 614 640 632 m 928 595 l 934 595 q 909 558 921 558 q 897 570 897 558 l 897 576 l 909 570 q 928 595 918 595 m 692 558 l 698 527 l 692 496 l 711 484 l 723 484 l 717 514 l 717 539 l 729 539 l 723 583 l 692 558 m 605 576 l 605 545 l 611 545 l 611 576 l 605 576 m 797 552 l 797 545 l 816 545 l 816 539 l 810 527 l 828 527 l 822 539 q 828 545 828 539 q 810 552 822 545 l 797 552 m 847 552 l 847 545 q 871 533 857 545 l 871 539 l 853 552 l 847 552 m 599 527 l 599 521 q 630 496 630 521 l 642 496 q 661 527 644 527 q 655 545 655 539 l 649 545 q 599 527 633 527 m 680 539 l 673 514 l 673 503 l 680 503 l 686 533 l 686 539 l 680 539 m 1002 514 l 996 503 q 1002 496 1002 503 q 996 490 996 496 l 1008 490 q 1039 508 1008 508 l 1039 514 l 1002 514 m 1088 521 l 1082 508 l 1082 465 q 1120 378 1105 378 l 1132 397 q 1120 410 1120 397 l 1132 410 q 1120 421 1132 421 l 1114 421 l 1120 410 l 1114 410 q 1101 421 1101 410 l 1120 446 q 1114 465 1114 458 l 1126 471 l 1138 465 l 1138 471 q 1088 521 1126 521 m 797 503 q 915 378 797 414 l 915 434 q 928 421 928 432 l 928 378 l 977 378 q 1045 446 1045 378 q 1051 503 1051 469 l 1045 503 q 952 446 979 446 l 952 452 l 940 446 l 921 459 q 909 446 921 446 q 890 465 909 456 l 871 452 q 847 477 847 469 l 835 471 l 828 484 q 835 490 835 484 q 816 503 816 490 q 822 508 822 503 l 810 508 l 797 503 m 642 490 l 636 477 l 636 471 l 642 471 q 655 484 655 471 l 642 490 m 605 484 l 605 428 q 636 440 621 440 l 636 459 l 630 471 l 618 465 l 611 465 l 611 484 l 605 484 m 958 484 l 958 477 q 970 465 960 465 l 970 471 q 958 484 970 484 m 655 465 l 649 452 l 667 452 q 655 465 667 465 m 624 428 q 605 410 624 410 q 618 397 607 397 l 636 421 l 624 428 m 704 428 l 704 410 q 723 404 711 410 l 723 428 l 704 428 m 680 404 l 680 397 q 704 385 689 397 l 704 391 q 698 410 698 403 q 680 404 686 404 m 1126 372 l 1126 366 q 1138 378 1138 366 l 1138 385 q 1126 372 1126 382 m 686 378 l 686 372 q 742 335 715 372 l 735 335 q 729 341 729 335 l 717 335 l 686 341 l 667 341 l 667 335 l 772 317 l 772 323 q 723 378 762 355 l 723 372 q 754 341 731 372 l 754 335 q 692 378 707 378 l 686 378 m 661 372 l 661 366 q 704 347 673 366 l 711 347 l 711 353 q 667 372 698 353 l 661 372 m 636 323 l 642 323 q 655 335 655 323 l 649 335 q 636 323 636 333 m 29 131 q 54 56 45 131 l 60 56 q 91 131 73 131 q 122 62 105 131 l 129 62 q 153 131 133 131 l 172 131 q 197 62 182 131 l 203 62 q 228 131 212 131 l 234 131 q 258 62 250 131 l 264 62 q 290 131 277 131 l 308 131 q 332 62 327 131 q 363 131 340 62 l 370 131 q 401 62 387 131 l 408 62 q 432 131 414 131 l 438 131 l 438 118 q 401 19 422 19 q 376 87 385 19 l 363 87 q 339 19 355 19 q 302 112 321 19 l 296 112 q 264 19 281 19 q 234 94 244 19 l 228 94 q 197 19 215 19 q 165 106 178 19 q 129 19 157 106 l 122 19 q 91 87 109 19 l 85 87 q 60 19 76 19 l 54 19 q 17 125 42 19 l 29 131 m 488 131 l 556 131 q 568 118 568 129 q 531 106 568 106 l 531 32 q 518 19 531 19 q 507 32 507 19 l 507 106 q 475 118 475 106 q 488 131 477 131 m 599 131 q 655 25 615 131 l 642 19 q 624 50 625 19 l 581 50 q 562 19 576 19 l 549 25 q 599 131 588 131 m 655 131 l 810 131 q 822 118 822 129 q 791 106 822 106 l 791 32 q 779 19 791 19 q 766 32 766 19 l 766 106 q 735 112 735 106 q 698 106 726 106 l 698 32 q 686 19 698 19 q 673 32 673 19 l 673 106 q 642 118 642 106 q 655 131 644 131 m 878 131 q 934 75 934 122 q 884 13 934 28 q 822 75 822 21 q 878 131 830 131 m 996 131 q 1045 81 1045 131 l 1045 50 q 989 13 1021 13 q 940 68 949 13 l 940 94 q 996 131 962 131 m 1063 131 q 1082 62 1082 106 l 1095 62 q 1120 131 1103 131 l 1126 131 q 1150 56 1139 131 l 1156 56 q 1181 131 1164 131 q 1194 118 1194 129 q 1156 19 1166 19 l 1150 19 q 1126 94 1136 19 l 1120 94 q 1088 19 1103 19 q 1051 125 1069 19 l 1063 131 m 1249 131 q 1305 62 1305 131 q 1249 13 1285 13 q 1194 87 1194 13 q 1249 131 1212 131 m 1367 131 q 1417 81 1417 131 l 1417 50 q 1361 13 1393 13 q 1311 68 1321 13 l 1311 81 q 1367 131 1311 131 m 1522 131 q 1565 94 1565 131 l 1553 87 q 1516 112 1532 112 q 1491 75 1491 106 l 1491 56 q 1510 38 1491 47 l 1528 38 q 1559 62 1556 62 l 1565 50 l 1565 44 q 1516 13 1548 13 q 1466 87 1466 13 q 1522 131 1485 131 m 1627 131 q 1683 75 1683 122 l 1683 68 q 1627 13 1675 13 q 1571 75 1571 27 q 1627 131 1584 131 m 1708 131 l 1714 131 q 1745 50 1728 131 l 1751 50 q 1788 131 1771 131 q 1801 118 1801 129 l 1801 32 q 1788 19 1801 19 q 1782 75 1782 23 l 1775 75 q 1751 19 1763 19 l 1745 19 q 1720 81 1731 19 l 1714 81 q 1702 19 1714 19 l 1695 32 l 1695 118 q 1708 131 1697 131 m 847 87 l 847 56 q 865 38 847 47 l 890 38 q 909 56 899 38 l 909 87 q 884 112 909 97 l 871 112 q 847 87 862 112 m 958 75 q 983 38 971 38 l 1008 38 q 1027 75 1027 44 q 989 112 1021 112 q 958 75 971 111 m 1219 75 l 1219 56 q 1237 38 1219 47 l 1261 38 q 1280 56 1271 38 l 1280 87 q 1255 112 1280 97 q 1219 75 1219 112 m 1330 68 q 1355 38 1342 40 l 1379 38 q 1398 75 1398 44 q 1361 112 1393 112 q 1330 68 1330 102 m 1596 87 l 1596 75 q 1615 38 1600 38 l 1640 38 q 1658 56 1649 38 l 1658 75 q 1627 112 1658 112 q 1596 87 1599 100 m 593 81 l 593 68 l 611 68 l 611 75 q 605 94 605 87 q 593 81 593 92 m 456 38 l 463 25 l 450 19 l 444 32 l 456 38 m 1441 38 q 1454 25 1454 36 l 1441 19 q 1429 32 1429 19 l 1441 38 z "},"A":{"ha":811,"x_min":0,"x_max":840,"o":"m 698 975 l 706 975 q 840 793 810 905 l 840 769 l 825 737 l 833 722 q 777 578 833 701 q 634 64 698 227 q 468 0 608 39 q 444 47 444 8 q 515 301 444 89 l 507 301 q 500 309 500 301 q 412 286 463 295 q 380 294 398 294 l 372 294 q 230 127 316 294 q 39 79 176 97 l 32 79 q 0 95 12 95 l 0 127 q 325 666 0 204 q 698 975 582 975 m 475 484 q 563 460 479 484 q 587 595 563 484 l 587 634 l 578 634 q 475 484 475 548 z "},"B":{"ha":801,"x_min":0,"x_max":790,"o":"m 372 972 q 736 918 736 972 q 790 804 767 918 l 790 777 q 783 770 790 770 q 790 749 790 757 q 689 567 790 608 q 574 418 607 454 q 696 263 696 320 q 709 189 703 203 q 648 108 709 108 q 223 0 648 83 q 27 121 146 23 q 81 176 27 135 q 7 210 59 196 q 0 237 0 221 l 0 250 q 101 479 0 269 l 270 878 q 372 972 270 935 m 385 594 q 534 749 534 715 l 520 756 l 452 756 q 385 594 431 756 m 317 452 q 196 203 196 255 l 182 203 q 196 189 184 189 l 203 189 q 466 243 378 216 l 466 277 q 324 452 372 325 l 317 452 z "},"C":{"ha":754,"x_min":-8,"x_max":873,"o":"m 750 972 q 867 776 836 980 q 667 520 873 712 q 608 499 660 519 l 592 498 q 584 505 585 497 l 569 496 q 498 513 530 492 l 491 512 q 264 208 391 473 l 303 204 q 629 340 612 338 q 648 296 647 310 l 618 201 q 578 128 596 189 q 320 6 368 10 l 319 14 q 298 4 306 5 q 212 20 214 -3 l 197 10 q 4 109 8 60 l 0 155 q 240 574 -8 249 q 750 972 550 955 z "},"D":{"ha":747,"x_min":-5,"x_max":873,"o":"m 474 972 q 785 857 614 984 q 868 572 850 777 q 704 349 873 522 q 469 170 666 275 q 224 7 314 18 q 115 22 117 3 l 99 12 l 74 10 q 10 71 23 73 l 1 87 l -5 145 q 313 816 317 764 q 283 863 287 822 q 474 972 375 963 m 363 328 l 389 330 q 610 659 622 527 q 562 729 587 731 l 546 728 q 513 625 530 726 l 363 328 z "},"E":{"ha":763,"x_min":-13,"x_max":893,"o":"m 840 974 q 893 901 890 942 l 868 836 q 878 814 877 822 q 497 625 596 737 l 484 601 l 492 602 q 650 654 519 619 q 701 612 700 619 q 574 460 659 534 l 583 446 q 430 323 442 341 l 422 323 q 319 345 399 340 q 245 206 244 229 l 300 211 q 612 378 328 214 l 628 372 q 703 410 627 393 q 736 381 715 410 l 738 366 q 711 309 709 337 q 479 117 663 240 q 317 18 484 68 q 295 0 318 2 q 5 107 147 -13 q -8 176 -6 149 q 221 578 -13 296 q 313 687 220 596 l 361 753 q 342 798 344 777 l 341 806 q 701 962 335 873 l 840 974 z "},"F":{"ha":719,"x_min":-12,"x_max":1031,"o":"m 564 959 q 573 952 572 961 l 612 968 l 621 969 q 703 933 658 976 q 722 928 720 936 q 745 941 730 929 q 902 960 836 948 l 960 970 q 969 963 968 971 l 984 974 q 1023 947 997 977 l 1031 898 q 984 830 1012 835 l 1000 791 l 709 705 l 685 701 l 642 702 l 549 610 l 550 602 l 562 586 q 649 618 577 597 q 659 612 657 620 l 698 627 l 780 642 q 810 613 793 644 q 660 460 823 545 l 661 452 l 677 454 l 682 430 l 649 424 q 463 332 494 354 l 437 328 q 428 334 429 326 q 299 201 338 293 q 190 4 208 7 q 1 64 9 16 l 0 72 q 73 280 -12 138 q 359 771 186 523 q 399 880 342 869 l 564 959 z "},"G":{"ha":880,"x_min":0,"x_max":873,"o":"m 721 969 l 809 969 q 873 905 873 961 q 849 809 857 905 q 513 625 691 781 q 288 360 339 455 l 288 345 q 705 481 551 481 l 721 481 q 793 376 793 481 q 649 112 793 206 q 528 0 579 14 q 368 80 368 30 l 376 120 l 360 120 q 288 88 331 120 l 288 96 l 273 88 l 192 88 q 0 224 0 189 l 0 240 q 368 785 2 378 q 721 969 581 958 z "},"H":{"ha":784,"x_min":-55,"x_max":819,"o":"m 315 970 q 428 898 412 987 q 321 460 406 673 l 329 462 q 461 661 418 477 l 553 853 q 712 948 605 922 q 808 923 805 945 l 819 866 q 770 715 817 724 q 574 212 655 503 q 551 57 541 197 q 520 -7 530 -5 l 480 -14 q 349 13 460 2 q 321 75 328 40 q 330 219 305 170 l 313 216 q 187 127 210 153 l 146 119 q 82 58 153 83 q -24 140 -16 90 l -16 141 l -28 156 q -21 165 -29 164 q -55 218 -52 202 q 20 315 -18 309 q 116 625 74 437 l 210 901 q 315 970 269 959 z "},"I":{"ha":475,"x_min":-22,"x_max":583,"o":"m 233 930 q 337 935 335 949 l 349 946 l 370 950 q 397 948 385 954 l 410 959 q 539 978 485 966 l 572 943 l 577 911 q 553 788 583 872 q 491 690 485 734 q 419 465 456 624 q 375 338 397 445 q 351 316 349 332 l 353 300 q 387 257 380 306 q 336 128 396 199 q 226 29 343 82 q 194 5 228 13 l 161 -1 q 58 35 142 14 l -15 104 q 113 232 -22 151 q 271 720 135 332 q 156 838 186 814 q 233 930 148 895 z "},"J":{"ha":792,"x_min":0,"x_max":863,"o":"m 448 973 l 448 965 q 471 973 463 973 l 487 965 q 518 973 500 973 q 573 910 573 930 l 612 910 q 745 958 631 926 q 863 871 863 958 l 855 871 l 863 855 l 863 824 q 855 793 863 806 l 863 777 q 753 424 863 618 q 675 283 732 411 l 557 94 q 431 0 477 0 q 165 71 243 0 q 0 267 0 192 l 0 275 q 102 361 5 279 l 157 369 q 235 267 226 267 q 314 243 275 243 q 448 416 372 271 q 557 635 521 534 q 503 683 557 646 q 361 448 458 683 q 290 408 320 408 q 196 479 214 479 q 118 589 118 530 q 267 855 149 673 q 369 949 330 949 q 448 973 443 973 z "},"K":{"ha":952,"x_min":-15,"x_max":948,"o":"m 527 976 l 534 977 q 659 916 653 982 q 550 621 664 854 q 504 514 539 565 l 506 490 q 783 578 599 538 l 784 570 q 791 579 792 571 q 946 529 942 580 l 939 528 l 948 513 q 829 329 941 338 q 615 239 665 278 q 821 146 618 210 l 826 90 q 721 26 827 67 l 720 34 q 699 8 696 32 q 410 134 561 14 l 402 133 q 210 -27 292 62 l 189 -60 q 31 21 120 -60 q -13 73 -11 49 q 77 231 -15 96 q 294 646 240 472 q 457 954 427 951 q 527 976 507 975 z "},"L":{"ha":781,"x_min":-85,"x_max":734,"o":"m 585 982 q 681 930 665 960 q 432 530 674 840 q 280 180 261 252 q 319 172 285 173 l 653 289 q 715 279 705 290 q 600 136 734 232 q 431 28 515 50 l 344 0 q -19 104 134 1 l -37 138 q 328 827 -85 226 q 454 930 403 911 q 585 982 567 977 z "},"M":{"ha":1194,"x_min":6,"x_max":1122,"o":"m 635 956 q 764 804 734 973 l 781 712 q 762 482 790 654 l 770 484 q 1006 628 867 603 q 1107 514 1069 639 q 1107 427 1122 429 l 1117 414 q 1076 275 1120 395 q 947 12 1034 109 l 926 8 q 855 39 887 1 l 849 75 q 877 248 859 100 q 791 72 830 172 q 743 12 784 38 l 736 11 q 561 53 614 19 l 548 43 q 505 80 540 42 l 530 391 l 528 405 q 360 33 446 266 q 203 -149 274 -136 q 98 -131 163 -134 q 25 -92 95 -116 l 6 -66 q 100 103 12 -33 q 270 461 220 380 q 455 779 282 523 q 615 945 543 932 q 623 939 616 938 q 635 956 623 954 z "},"N":{"ha":960,"x_min":0,"x_max":960,"o":"m 404 976 l 492 976 q 549 943 549 954 l 564 951 l 572 951 q 629 871 588 945 q 613 814 623 814 l 621 798 l 621 774 q 613 766 621 766 l 621 750 l 621 742 q 613 734 621 734 l 621 718 l 621 709 q 613 701 621 701 q 621 694 613 694 q 605 637 621 678 q 613 629 605 629 l 605 589 l 605 500 q 597 468 605 481 q 605 460 597 460 l 597 419 l 597 355 q 677 572 648 406 q 766 758 706 758 q 879 798 858 782 q 887 790 887 798 l 903 798 q 943 742 913 798 l 943 701 q 960 694 960 701 q 920 581 930 581 q 927 572 920 572 q 718 81 927 312 q 605 24 626 24 l 589 24 q 363 282 428 130 l 355 323 q 282 161 300 246 q 250 81 268 161 q 145 0 180 0 q 0 129 121 0 l 0 178 q 290 734 211 558 q 371 960 338 833 q 404 976 384 960 z "},"O":{"ha":813,"x_min":0,"x_max":838,"o":"m 547 966 l 592 966 q 701 939 604 952 q 838 756 838 835 q 692 282 838 553 q 428 45 533 45 q 282 0 428 28 l 273 0 q 18 273 129 0 q 0 337 3 273 q 119 620 0 456 q 547 966 326 905 m 282 337 l 282 319 q 528 620 408 319 q 538 656 538 635 q 310 392 382 552 l 282 337 z "},"P":{"ha":839,"x_min":-1,"x_max":921,"o":"m 556 970 q 806 866 688 981 q 905 623 894 743 l 921 611 q 814 416 915 526 q 627 334 792 414 q 619 340 627 340 q 446 278 621 321 l 359 297 q 271 150 303 153 l 280 138 q 201 -28 214 58 l 186 -36 q 3 27 4 13 q 204 648 -1 74 q 276 800 220 707 l 276 806 q 257 844 258 827 l 256 851 q 556 970 328 949 m 420 481 l 437 476 q 618 611 624 548 q 634 699 640 633 q 566 766 629 764 q 494 706 489 759 q 420 481 441 517 z "},"Q":{"ha":871,"x_min":0,"x_max":830,"o":"m 614 971 l 630 971 q 814 687 814 817 l 830 595 l 830 533 q 584 126 830 426 q 699 3 597 3 l 715 -20 l 715 -28 q 669 -127 715 -53 q 676 -151 676 -142 l 669 -151 q 568 -127 587 -127 l 522 -127 q 369 -12 369 -64 q 39 134 207 12 q 0 256 0 185 l 0 264 q 69 518 0 338 q 215 756 151 669 q 300 840 228 756 l 430 932 q 614 971 514 971 m 231 288 q 238 256 238 274 q 231 249 231 256 l 277 218 q 300 233 300 226 q 292 349 292 330 l 300 349 l 292 364 q 369 449 305 449 q 399 479 369 460 q 407 472 407 479 l 422 479 l 453 479 q 530 456 491 479 q 600 664 600 572 l 600 710 q 576 756 576 740 l 561 756 q 338 541 401 660 q 231 288 254 418 z "},"R":{"ha":827,"x_min":0,"x_max":773,"o":"m 401 970 q 707 882 559 970 q 766 773 741 838 q 773 766 773 773 l 773 642 q 700 437 751 486 q 540 277 540 302 q 686 124 540 243 l 707 95 l 707 87 q 635 0 707 38 l 606 7 q 583 0 591 0 q 379 132 455 50 q 292 262 292 243 l 284 262 q 219 80 250 191 q 146 29 182 29 l 138 29 q 0 132 52 71 q 87 365 0 189 l 292 795 q 313 868 313 821 q 299 911 299 892 q 401 970 299 948 m 401 496 l 401 489 q 540 686 540 563 l 532 722 l 525 722 q 401 496 469 658 z "},"S":{"ha":838,"x_min":0,"x_max":805,"o":"m 755 971 q 805 913 778 971 l 805 905 q 739 764 774 873 q 573 689 610 713 q 722 465 573 671 q 739 357 739 390 l 739 340 q 614 92 739 141 q 374 0 541 28 l 233 0 q 0 100 116 0 l 0 149 q 41 191 0 161 l 50 191 q 249 166 132 166 l 249 158 l 266 166 l 282 158 q 481 315 481 202 l 481 382 q 332 597 395 526 q 282 689 332 614 l 282 772 q 456 913 321 864 q 755 971 556 946 z "},"T":{"ha":604,"x_min":1,"x_max":948,"o":"m 708 952 l 722 945 q 750 957 734 955 l 750 949 l 764 958 l 924 975 q 948 928 945 968 q 873 813 932 819 l 873 805 l 894 807 l 895 791 q 663 718 671 719 q 655 726 662 726 q 642 707 656 709 l 593 703 q 612 647 612 652 q 543 451 599 457 q 433 227 502 404 q 343 29 391 171 q 317 1 332 28 l 303 0 q 224 33 225 14 l 210 24 q 165 60 166 47 q 226 288 160 136 q 361 621 256 395 l 341 619 l 300 607 q 264 620 264 612 q 182 595 252 610 q 4 724 126 589 l 1 765 q 232 863 22 825 q 239 855 239 863 q 418 898 332 873 l 433 891 q 597 932 588 932 l 598 924 l 612 935 l 646 938 q 708 952 671 941 z "},"U":{"ha":754,"x_min":-27,"x_max":758,"o":"m 245 971 q 319 943 313 962 q 339 914 332 932 l 345 898 q 328 719 380 800 q 273 343 274 531 q 267 286 281 322 l 273 271 l 289 276 q 575 791 382 410 q 668 861 640 850 q 722 789 684 867 q 734 703 736 725 q 754 673 748 692 l 758 665 q 722 488 734 517 q 444 23 504 45 l 380 0 q 24 125 76 50 q 35 548 -27 267 q 195 935 81 893 q 245 971 190 948 z "},"V":{"ha":754,"x_min":0,"x_max":849,"o":"m 789 970 q 849 915 817 970 l 849 896 q 611 286 846 671 q 469 102 470 125 q 290 0 388 0 l 283 0 q 15 268 94 96 q 0 453 0 399 l 7 471 q 0 480 7 480 q 15 610 9 583 q 7 619 15 619 l 15 665 l 15 841 q 149 943 111 943 q 238 813 238 881 l 231 813 l 238 795 q 231 785 238 785 q 238 776 231 776 l 231 730 l 231 665 q 223 656 231 656 l 231 637 l 231 564 q 223 554 231 554 q 231 545 223 545 l 223 480 q 238 323 223 442 q 536 721 378 435 q 789 970 665 934 z "},"W":{"ha":1179,"x_min":0,"x_max":1194,"o":"m 404 916 q 498 873 416 903 q 517 840 498 861 l 517 790 q 508 782 517 782 l 517 765 q 479 656 492 726 q 319 355 422 627 l 338 355 q 498 372 465 372 l 564 372 q 724 347 633 372 l 931 698 q 1063 765 952 698 q 1109 782 1086 765 l 1128 782 q 1194 740 1194 782 q 1138 497 1185 515 q 1147 489 1138 489 q 837 -4 984 -4 q 630 113 760 26 l 583 121 q 273 46 549 121 l 254 46 q 0 288 0 203 q 226 848 47 546 q 311 899 284 899 l 311 890 q 404 916 385 916 z "},"X":{"ha":1004,"x_min":9,"x_max":966,"o":"m 378 967 l 377 958 l 391 964 q 422 939 425 956 l 437 944 l 444 943 q 477 787 490 885 l 509 661 q 532 628 518 631 q 941 779 839 803 q 964 745 966 759 l 954 665 q 918 554 936 649 q 659 349 775 430 q 785 218 654 310 q 925 85 910 115 l 918 31 q 860 8 915 9 q 788 -21 810 4 q 682 59 687 47 l 655 57 q 465 221 596 71 q 157 9 265 119 q 23 188 111 20 q 12 255 9 237 q 211 419 162 422 q 331 501 219 440 q 349 533 332 515 q 271 928 262 785 q 378 967 293 963 z "},"Y":{"ha":575,"x_min":0,"x_max":872,"o":"m 770 975 q 872 920 872 961 q 797 715 872 759 q 477 368 684 602 q 354 245 405 278 q 313 191 321 191 q 163 0 260 147 l 157 0 q 61 54 92 53 q 7 116 61 73 l 0 143 l 143 340 q 204 416 153 340 l 204 436 q 136 566 136 497 l 143 579 q 136 586 143 586 l 143 613 q 150 892 150 854 q 225 954 175 938 q 368 892 345 954 q 361 852 361 857 l 368 838 q 354 763 361 763 q 361 756 354 756 l 347 586 q 675 947 481 726 q 770 975 697 963 z "},"Z":{"ha":768,"x_min":35,"x_max":903,"o":"m 454 945 l 452 937 l 468 943 l 610 911 q 894 732 815 867 q 899 667 903 694 q 767 460 842 444 l 714 454 l 687 469 q 444 313 667 473 l 384 254 q 397 241 398 250 l 448 239 l 513 225 q 692 195 573 212 l 703 166 l 698 131 q 444 50 567 23 q 329 20 395 6 q 201 3 306 25 l 194 4 q 35 330 70 126 l 42 328 l 37 347 q 293 491 48 426 q 575 611 483 537 q 569 621 568 612 l 553 616 q 192 658 423 644 q 66 912 79 838 l 71 939 q 374 954 78 993 l 417 945 l 454 945 z "},"[":{"ha":1843,"x_min":17,"x_max":1801,"o":"m 921 1158 q 1033 1065 977 1158 q 1082 991 1082 1031 l 1082 972 q 1051 917 1082 949 l 1051 873 q 1082 855 1082 869 q 1045 793 1045 849 l 1045 738 l 1033 738 l 1033 781 q 989 762 1010 762 l 977 762 q 958 781 968 762 q 964 787 958 787 q 958 831 958 812 l 946 824 l 946 837 q 1002 892 964 881 l 1039 880 l 1039 899 l 996 905 q 952 886 975 905 l 946 899 q 977 924 977 915 l 964 924 l 934 917 l 903 924 q 884 917 896 924 q 841 924 859 924 q 779 917 833 924 q 772 924 779 924 l 766 911 l 779 905 l 772 892 l 772 880 q 828 892 819 892 q 884 831 884 873 l 871 837 l 871 806 l 878 774 l 859 762 l 841 762 q 785 831 785 762 l 779 831 l 779 806 q 853 663 779 663 q 921 638 853 652 q 1027 725 1027 674 l 1039 725 q 1021 675 1039 713 q 1014 558 1014 577 q 1144 484 1144 532 q 1150 452 1150 473 l 1150 347 q 1156 218 1150 298 q 1132 186 1144 189 l 1126 186 l 1126 193 l 1138 211 l 1138 353 q 1114 359 1124 353 q 946 236 1114 236 l 946 248 q 1039 260 1025 260 l 1039 267 q 667 317 736 317 q 649 279 667 284 l 642 279 l 642 286 l 655 311 q 618 323 631 311 l 618 317 q 636 242 618 307 q 587 527 601 242 q 655 645 601 645 q 649 750 649 718 l 649 806 q 779 1134 649 1064 q 921 1158 818 1152 m 1008 924 l 1008 917 l 1039 911 l 1039 924 l 1008 924 m 859 917 q 890 892 888 905 l 890 886 l 884 886 l 853 905 q 785 899 798 899 l 785 911 q 859 917 795 911 m 748 855 l 748 831 q 760 843 760 831 q 748 855 760 855 m 785 855 l 791 824 l 797 824 l 797 855 l 785 855 m 1039 855 q 1033 818 1033 823 l 1033 812 l 1039 812 q 1045 849 1039 817 l 1045 855 l 1039 855 m 835 849 q 847 837 836 837 l 853 849 l 835 849 m 816 812 l 816 800 q 853 774 822 774 l 859 806 l 847 812 q 822 806 836 806 q 816 812 822 812 m 946 818 q 958 793 946 808 l 958 787 q 934 812 949 787 l 946 818 m 996 812 l 989 800 l 977 806 l 970 806 q 989 774 979 774 l 996 774 q 1014 793 1004 774 l 1014 806 q 996 812 1008 806 m 909 725 l 934 725 q 921 713 934 713 l 909 713 l 909 725 m 884 700 l 890 700 l 903 694 q 928 700 913 700 q 946 682 936 700 q 928 663 946 673 l 909 663 q 884 694 900 664 l 884 700 m 828 657 q 822 601 822 614 q 871 564 868 578 l 871 558 q 797 595 822 595 l 797 583 q 871 552 797 569 q 909 521 871 545 q 964 533 956 533 l 958 521 q 983 539 983 524 l 996 539 q 1063 521 1056 521 l 1063 533 q 996 545 1057 533 l 940 545 l 940 558 l 989 558 l 989 564 q 946 632 946 573 l 934 626 l 921 626 q 828 657 886 626 m 667 638 q 717 595 681 607 l 717 601 q 673 638 707 638 l 667 638 m 630 614 l 636 614 q 649 626 649 614 l 649 632 q 630 614 640 632 m 928 595 l 934 595 q 909 558 921 558 q 897 570 897 558 l 897 576 l 909 570 q 928 595 918 595 m 692 558 l 698 527 l 692 496 l 711 484 l 723 484 l 717 514 l 717 539 l 729 539 l 723 583 l 692 558 m 605 576 l 605 545 l 611 545 l 611 576 l 605 576 m 797 552 l 797 545 l 816 545 l 816 539 l 810 527 l 828 527 l 822 539 q 828 545 828 539 q 810 552 822 545 l 797 552 m 847 552 l 847 545 q 871 533 857 545 l 871 539 l 853 552 l 847 552 m 599 527 l 599 521 q 630 496 630 521 l 642 496 q 661 527 644 527 q 655 545 655 539 l 649 545 q 599 527 633 527 m 680 539 l 673 514 l 673 503 l 680 503 l 686 533 l 686 539 l 680 539 m 1002 514 l 996 503 q 1002 496 1002 503 q 996 490 996 496 l 1008 490 q 1039 508 1008 508 l 1039 514 l 1002 514 m 1088 521 l 1082 508 l 1082 465 q 1120 378 1105 378 l 1132 397 q 1120 410 1120 397 l 1132 410 q 1120 421 1132 421 l 1114 421 l 1120 410 l 1114 410 q 1101 421 1101 410 l 1120 446 q 1114 465 1114 458 l 1126 471 l 1138 465 l 1138 471 q 1088 521 1126 521 m 797 503 q 915 378 797 414 l 915 434 q 928 421 928 432 l 928 378 l 977 378 q 1045 446 1045 378 q 1051 503 1051 469 l 1045 503 q 952 446 979 446 l 952 452 l 940 446 l 921 459 q 909 446 921 446 q 890 465 909 456 l 871 452 q 847 477 847 469 l 835 471 l 828 484 q 835 490 835 484 q 816 503 816 490 q 822 508 822 503 l 810 508 l 797 503 m 642 490 l 636 477 l 636 471 l 642 471 q 655 484 655 471 l 642 490 m 605 484 l 605 428 q 636 440 621 440 l 636 459 l 630 471 l 618 465 l 611 465 l 611 484 l 605 484 m 958 484 l 958 477 q 970 465 960 465 l 970 471 q 958 484 970 484 m 655 465 l 649 452 l 667 452 q 655 465 667 465 m 624 428 q 605 410 624 410 q 618 397 607 397 l 636 421 l 624 428 m 704 428 l 704 410 q 723 404 711 410 l 723 428 l 704 428 m 680 404 l 680 397 q 704 385 689 397 l 704 391 q 698 410 698 403 q 680 404 686 404 m 1126 372 l 1126 366 q 1138 378 1138 366 l 1138 385 q 1126 372 1126 382 m 686 378 l 686 372 q 742 335 715 372 l 735 335 q 729 341 729 335 l 717 335 l 686 341 l 667 341 l 667 335 l 772 317 l 772 323 q 723 378 762 355 l 723 372 q 754 341 731 372 l 754 335 q 692 378 707 378 l 686 378 m 661 372 l 661 366 q 704 347 673 366 l 711 347 l 711 353 q 667 372 698 353 l 661 372 m 636 323 l 642 323 q 655 335 655 323 l 649 335 q 636 323 636 333 m 29 131 q 54 56 45 131 l 60 56 q 91 131 73 131 q 122 62 105 131 l 129 62 q 153 131 133 131 l 172 131 q 197 62 182 131 l 203 62 q 228 131 212 131 l 234 131 q 258 62 250 131 l 264 62 q 290 131 277 131 l 308 131 q 332 62 327 131 q 363 131 340 62 l 370 131 q 401 62 387 131 l 408 62 q 432 131 414 131 l 438 131 l 438 118 q 401 19 422 19 q 376 87 385 19 l 363 87 q 339 19 355 19 q 302 112 321 19 l 296 112 q 264 19 281 19 q 234 94 244 19 l 228 94 q 197 19 215 19 q 165 106 178 19 q 129 19 157 106 l 122 19 q 91 87 109 19 l 85 87 q 60 19 76 19 l 54 19 q 17 125 42 19 l 29 131 m 488 131 l 556 131 q 568 118 568 129 q 531 106 568 106 l 531 32 q 518 19 531 19 q 507 32 507 19 l 507 106 q 475 118 475 106 q 488 131 477 131 m 599 131 q 655 25 615 131 l 642 19 q 624 50 625 19 l 581 50 q 562 19 576 19 l 549 25 q 599 131 588 131 m 655 131 l 810 131 q 822 118 822 129 q 791 106 822 106 l 791 32 q 779 19 791 19 q 766 32 766 19 l 766 106 q 735 112 735 106 q 698 106 726 106 l 698 32 q 686 19 698 19 q 673 32 673 19 l 673 106 q 642 118 642 106 q 655 131 644 131 m 878 131 q 934 75 934 122 q 884 13 934 28 q 822 75 822 21 q 878 131 830 131 m 996 131 q 1045 81 1045 131 l 1045 50 q 989 13 1021 13 q 940 68 949 13 l 940 94 q 996 131 962 131 m 1063 131 q 1082 62 1082 106 l 1095 62 q 1120 131 1103 131 l 1126 131 q 1150 56 1139 131 l 1156 56 q 1181 131 1164 131 q 1194 118 1194 129 q 1156 19 1166 19 l 1150 19 q 1126 94 1136 19 l 1120 94 q 1088 19 1103 19 q 1051 125 1069 19 l 1063 131 m 1249 131 q 1305 62 1305 131 q 1249 13 1285 13 q 1194 87 1194 13 q 1249 131 1212 131 m 1367 131 q 1417 81 1417 131 l 1417 50 q 1361 13 1393 13 q 1311 68 1321 13 l 1311 81 q 1367 131 1311 131 m 1522 131 q 1565 94 1565 131 l 1553 87 q 1516 112 1532 112 q 1491 75 1491 106 l 1491 56 q 1510 38 1491 47 l 1528 38 q 1559 62 1556 62 l 1565 50 l 1565 44 q 1516 13 1548 13 q 1466 87 1466 13 q 1522 131 1485 131 m 1627 131 q 1683 75 1683 122 l 1683 68 q 1627 13 1675 13 q 1571 75 1571 27 q 1627 131 1584 131 m 1708 131 l 1714 131 q 1745 50 1728 131 l 1751 50 q 1788 131 1771 131 q 1801 118 1801 129 l 1801 32 q 1788 19 1801 19 q 1782 75 1782 23 l 1775 75 q 1751 19 1763 19 l 1745 19 q 1720 81 1731 19 l 1714 81 q 1702 19 1714 19 l 1695 32 l 1695 118 q 1708 131 1697 131 m 847 87 l 847 56 q 865 38 847 47 l 890 38 q 909 56 899 38 l 909 87 q 884 112 909 97 l 871 112 q 847 87 862 112 m 958 75 q 983 38 971 38 l 1008 38 q 1027 75 1027 44 q 989 112 1021 112 q 958 75 971 111 m 1219 75 l 1219 56 q 1237 38 1219 47 l 1261 38 q 1280 56 1271 38 l 1280 87 q 1255 112 1280 97 q 1219 75 1219 112 m 1330 68 q 1355 38 1342 40 l 1379 38 q 1398 75 1398 44 q 1361 112 1393 112 q 1330 68 1330 102 m 1596 87 l 1596 75 q 1615 38 1600 38 l 1640 38 q 1658 56 1649 38 l 1658 75 q 1627 112 1658 112 q 1596 87 1599 100 m 593 81 l 593 68 l 611 68 l 611 75 q 605 94 605 87 q 593 81 593 92 m 456 38 l 463 25 l 450 19 l 444 32 l 456 38 m 1441 38 q 1454 25 1454 36 l 1441 19 q 1429 32 1429 19 l 1441 38 z "},"\\":{"ha":1843,"x_min":17,"x_max":1801,"o":"m 921 1158 q 1033 1065 977 1158 q 1082 991 1082 1031 l 1082 972 q 1051 917 1082 949 l 1051 873 q 1082 855 1082 869 q 1045 793 1045 849 l 1045 738 l 1033 738 l 1033 781 q 989 762 1010 762 l 977 762 q 958 781 968 762 q 964 787 958 787 q 958 831 958 812 l 946 824 l 946 837 q 1002 892 964 881 l 1039 880 l 1039 899 l 996 905 q 952 886 975 905 l 946 899 q 977 924 977 915 l 964 924 l 934 917 l 903 924 q 884 917 896 924 q 841 924 859 924 q 779 917 833 924 q 772 924 779 924 l 766 911 l 779 905 l 772 892 l 772 880 q 828 892 819 892 q 884 831 884 873 l 871 837 l 871 806 l 878 774 l 859 762 l 841 762 q 785 831 785 762 l 779 831 l 779 806 q 853 663 779 663 q 921 638 853 652 q 1027 725 1027 674 l 1039 725 q 1021 675 1039 713 q 1014 558 1014 577 q 1144 484 1144 532 q 1150 452 1150 473 l 1150 347 q 1156 218 1150 298 q 1132 186 1144 189 l 1126 186 l 1126 193 l 1138 211 l 1138 353 q 1114 359 1124 353 q 946 236 1114 236 l 946 248 q 1039 260 1025 260 l 1039 267 q 667 317 736 317 q 649 279 667 284 l 642 279 l 642 286 l 655 311 q 618 323 631 311 l 618 317 q 636 242 618 307 q 587 527 601 242 q 655 645 601 645 q 649 750 649 718 l 649 806 q 779 1134 649 1064 q 921 1158 818 1152 m 1008 924 l 1008 917 l 1039 911 l 1039 924 l 1008 924 m 859 917 q 890 892 888 905 l 890 886 l 884 886 l 853 905 q 785 899 798 899 l 785 911 q 859 917 795 911 m 748 855 l 748 831 q 760 843 760 831 q 748 855 760 855 m 785 855 l 791 824 l 797 824 l 797 855 l 785 855 m 1039 855 q 1033 818 1033 823 l 1033 812 l 1039 812 q 1045 849 1039 817 l 1045 855 l 1039 855 m 835 849 q 847 837 836 837 l 853 849 l 835 849 m 816 812 l 816 800 q 853 774 822 774 l 859 806 l 847 812 q 822 806 836 806 q 816 812 822 812 m 946 818 q 958 793 946 808 l 958 787 q 934 812 949 787 l 946 818 m 996 812 l 989 800 l 977 806 l 970 806 q 989 774 979 774 l 996 774 q 1014 793 1004 774 l 1014 806 q 996 812 1008 806 m 909 725 l 934 725 q 921 713 934 713 l 909 713 l 909 725 m 884 700 l 890 700 l 903 694 q 928 700 913 700 q 946 682 936 700 q 928 663 946 673 l 909 663 q 884 694 900 664 l 884 700 m 828 657 q 822 601 822 614 q 871 564 868 578 l 871 558 q 797 595 822 595 l 797 583 q 871 552 797 569 q 909 521 871 545 q 964 533 956 533 l 958 521 q 983 539 983 524 l 996 539 q 1063 521 1056 521 l 1063 533 q 996 545 1057 533 l 940 545 l 940 558 l 989 558 l 989 564 q 946 632 946 573 l 934 626 l 921 626 q 828 657 886 626 m 667 638 q 717 595 681 607 l 717 601 q 673 638 707 638 l 667 638 m 630 614 l 636 614 q 649 626 649 614 l 649 632 q 630 614 640 632 m 928 595 l 934 595 q 909 558 921 558 q 897 570 897 558 l 897 576 l 909 570 q 928 595 918 595 m 692 558 l 698 527 l 692 496 l 711 484 l 723 484 l 717 514 l 717 539 l 729 539 l 723 583 l 692 558 m 605 576 l 605 545 l 611 545 l 611 576 l 605 576 m 797 552 l 797 545 l 816 545 l 816 539 l 810 527 l 828 527 l 822 539 q 828 545 828 539 q 810 552 822 545 l 797 552 m 847 552 l 847 545 q 871 533 857 545 l 871 539 l 853 552 l 847 552 m 599 527 l 599 521 q 630 496 630 521 l 642 496 q 661 527 644 527 q 655 545 655 539 l 649 545 q 599 527 633 527 m 680 539 l 673 514 l 673 503 l 680 503 l 686 533 l 686 539 l 680 539 m 1002 514 l 996 503 q 1002 496 1002 503 q 996 490 996 496 l 1008 490 q 1039 508 1008 508 l 1039 514 l 1002 514 m 1088 521 l 1082 508 l 1082 465 q 1120 378 1105 378 l 1132 397 q 1120 410 1120 397 l 1132 410 q 1120 421 1132 421 l 1114 421 l 1120 410 l 1114 410 q 1101 421 1101 410 l 1120 446 q 1114 465 1114 458 l 1126 471 l 1138 465 l 1138 471 q 1088 521 1126 521 m 797 503 q 915 378 797 414 l 915 434 q 928 421 928 432 l 928 378 l 977 378 q 1045 446 1045 378 q 1051 503 1051 469 l 1045 503 q 952 446 979 446 l 952 452 l 940 446 l 921 459 q 909 446 921 446 q 890 465 909 456 l 871 452 q 847 477 847 469 l 835 471 l 828 484 q 835 490 835 484 q 816 503 816 490 q 822 508 822 503 l 810 508 l 797 503 m 642 490 l 636 477 l 636 471 l 642 471 q 655 484 655 471 l 642 490 m 605 484 l 605 428 q 636 440 621 440 l 636 459 l 630 471 l 618 465 l 611 465 l 611 484 l 605 484 m 958 484 l 958 477 q 970 465 960 465 l 970 471 q 958 484 970 484 m 655 465 l 649 452 l 667 452 q 655 465 667 465 m 624 428 q 605 410 624 410 q 618 397 607 397 l 636 421 l 624 428 m 704 428 l 704 410 q 723 404 711 410 l 723 428 l 704 428 m 680 404 l 680 397 q 704 385 689 397 l 704 391 q 698 410 698 403 q 680 404 686 404 m 1126 372 l 1126 366 q 1138 378 1138 366 l 1138 385 q 1126 372 1126 382 m 686 378 l 686 372 q 742 335 715 372 l 735 335 q 729 341 729 335 l 717 335 l 686 341 l 667 341 l 667 335 l 772 317 l 772 323 q 723 378 762 355 l 723 372 q 754 341 731 372 l 754 335 q 692 378 707 378 l 686 378 m 661 372 l 661 366 q 704 347 673 366 l 711 347 l 711 353 q 667 372 698 353 l 661 372 m 636 323 l 642 323 q 655 335 655 323 l 649 335 q 636 323 636 333 m 29 131 q 54 56 45 131 l 60 56 q 91 131 73 131 q 122 62 105 131 l 129 62 q 153 131 133 131 l 172 131 q 197 62 182 131 l 203 62 q 228 131 212 131 l 234 131 q 258 62 250 131 l 264 62 q 290 131 277 131 l 308 131 q 332 62 327 131 q 363 131 340 62 l 370 131 q 401 62 387 131 l 408 62 q 432 131 414 131 l 438 131 l 438 118 q 401 19 422 19 q 376 87 385 19 l 363 87 q 339 19 355 19 q 302 112 321 19 l 296 112 q 264 19 281 19 q 234 94 244 19 l 228 94 q 197 19 215 19 q 165 106 178 19 q 129 19 157 106 l 122 19 q 91 87 109 19 l 85 87 q 60 19 76 19 l 54 19 q 17 125 42 19 l 29 131 m 488 131 l 556 131 q 568 118 568 129 q 531 106 568 106 l 531 32 q 518 19 531 19 q 507 32 507 19 l 507 106 q 475 118 475 106 q 488 131 477 131 m 599 131 q 655 25 615 131 l 642 19 q 624 50 625 19 l 581 50 q 562 19 576 19 l 549 25 q 599 131 588 131 m 655 131 l 810 131 q 822 118 822 129 q 791 106 822 106 l 791 32 q 779 19 791 19 q 766 32 766 19 l 766 106 q 735 112 735 106 q 698 106 726 106 l 698 32 q 686 19 698 19 q 673 32 673 19 l 673 106 q 642 118 642 106 q 655 131 644 131 m 878 131 q 934 75 934 122 q 884 13 934 28 q 822 75 822 21 q 878 131 830 131 m 996 131 q 1045 81 1045 131 l 1045 50 q 989 13 1021 13 q 940 68 949 13 l 940 94 q 996 131 962 131 m 1063 131 q 1082 62 1082 106 l 1095 62 q 1120 131 1103 131 l 1126 131 q 1150 56 1139 131 l 1156 56 q 1181 131 1164 131 q 1194 118 1194 129 q 1156 19 1166 19 l 1150 19 q 1126 94 1136 19 l 1120 94 q 1088 19 1103 19 q 1051 125 1069 19 l 1063 131 m 1249 131 q 1305 62 1305 131 q 1249 13 1285 13 q 1194 87 1194 13 q 1249 131 1212 131 m 1367 131 q 1417 81 1417 131 l 1417 50 q 1361 13 1393 13 q 1311 68 1321 13 l 1311 81 q 1367 131 1311 131 m 1522 131 q 1565 94 1565 131 l 1553 87 q 1516 112 1532 112 q 1491 75 1491 106 l 1491 56 q 1510 38 1491 47 l 1528 38 q 1559 62 1556 62 l 1565 50 l 1565 44 q 1516 13 1548 13 q 1466 87 1466 13 q 1522 131 1485 131 m 1627 131 q 1683 75 1683 122 l 1683 68 q 1627 13 1675 13 q 1571 75 1571 27 q 1627 131 1584 131 m 1708 131 l 1714 131 q 1745 50 1728 131 l 1751 50 q 1788 131 1771 131 q 1801 118 1801 129 l 1801 32 q 1788 19 1801 19 q 1782 75 1782 23 l 1775 75 q 1751 19 1763 19 l 1745 19 q 1720 81 1731 19 l 1714 81 q 1702 19 1714 19 l 1695 32 l 1695 118 q 1708 131 1697 131 m 847 87 l 847 56 q 865 38 847 47 l 890 38 q 909 56 899 38 l 909 87 q 884 112 909 97 l 871 112 q 847 87 862 112 m 958 75 q 983 38 971 38 l 1008 38 q 1027 75 1027 44 q 989 112 1021 112 q 958 75 971 111 m 1219 75 l 1219 56 q 1237 38 1219 47 l 1261 38 q 1280 56 1271 38 l 1280 87 q 1255 112 1280 97 q 1219 75 1219 112 m 1330 68 q 1355 38 1342 40 l 1379 38 q 1398 75 1398 44 q 1361 112 1393 112 q 1330 68 1330 102 m 1596 87 l 1596 75 q 1615 38 1600 38 l 1640 38 q 1658 56 1649 38 l 1658 75 q 1627 112 1658 112 q 1596 87 1599 100 m 593 81 l 593 68 l 611 68 l 611 75 q 605 94 605 87 q 593 81 593 92 m 456 38 l 463 25 l 450 19 l 444 32 l 456 38 m 1441 38 q 1454 25 1454 36 l 1441 19 q 1429 32 1429 19 l 1441 38 z "}}}
